<?xml version="1.0" encoding="UTF-8"?>
<!DOCTYPE svg PUBLIC "-//W3C//DTD SVG 1.1//EN" "http://www.w3.org/Graphics/SVG/1.1/DTD/svg11.dtd">
<!-- Creator: CorelDRAW 2018 -->
<svg xmlns="http://www.w3.org/2000/svg" xml:space="preserve" width="250mm" height="250mm" version="1.1" style="shape-rendering:geometricPrecision; text-rendering:geometricPrecision; image-rendering:optimizeQuality; fill-rule:evenodd; clip-rule:evenodd"
viewBox="0 0 25000 25000"
 xmlns:xlink="http://www.w3.org/1999/xlink">
 <defs>
  <style type="text/css">
   <![CDATA[
    .fil0 {fill:white}
   ]]>
  </style>
 </defs>
 <g id="Слой_x0020_1">
  <metadata id="CorelCorpID_0Corel-Layer"/>
  <path class="fil0" d="M14252.54 21434.34c113.32,-177.24 135.08,-195.48 305,-363.08l661.48 -746.04c125.88,-160.6 141.68,-168.76 306.84,-336.8l1260.44 -1438.6c256.2,-271.8 389.48,-427.56 646.2,-698.96 493.16,-521.4 1459.28,-1758.68 1919.4,-2122.2l3265.84 5710.04 -8365.2 -4.36zm-11700.4 -276.36c117.2,-309.6 1147.72,-2011.6 1408.88,-2477.84l2786.24 -4834.52c1263.2,-2141.24 780.68,-1854.96 1921.28,-1858.72l6916.68 -20.64c1920.36,-5.84 1499.28,-185.4 2058.6,805.76l1031.84 1780.6c141.76,241.32 391.12,624.88 475.64,868.6l-4768.2 5359.24c-235.72,275.52 -527.72,661.04 -732.2,661.08l-10834.64 -20.84 8852.48 -4474.36 -129.96 -322.8 -8986.64 4534.44zm9950.84 -17264.68c161.44,191.2 432.56,710.72 573.4,960 526.48,931.96 3786.52,6457.76 3880.28,6776.6l-8922.76 21.92 4469.08 -7758.52zm-10696.68 17857.32l21387.4 20.2c-144.16,-395.72 -7478.88,-12991.32 -8008.12,-13926.92 -208.48,-368.56 -2482.84,-4383.92 -2701.96,-4614.72l-10677.32 18521.44z"/>
 </g>
</svg>
