<?xml version="1.0" encoding="UTF-8"?>
<!DOCTYPE svg PUBLIC "-//W3C//DTD SVG 1.1//EN" "http://www.w3.org/Graphics/SVG/1.1/DTD/svg11.dtd">
<!-- Creator: CorelDRAW 2018 -->
<svg xmlns="http://www.w3.org/2000/svg" xml:space="preserve" width="250mm" height="250mm" version="1.1" style="shape-rendering:geometricPrecision; text-rendering:geometricPrecision; image-rendering:optimizeQuality; fill-rule:evenodd; clip-rule:evenodd"
viewBox="0 0 25000 25000"
 xmlns:xlink="http://www.w3.org/1999/xlink">
 <defs>
  <style type="text/css">
   <![CDATA[
    .str0 {stroke:#FEFEFE;stroke-width:200;stroke-miterlimit:22.9256}
    .fil0 {fill:none}
   ]]>
  </style>
 </defs>
 <g id="Слой_x0020_1">
  <metadata id="CorelCorpID_0Corel-Layer"/>
  <path class="fil0 str0" d="M4505.46 8240.16l7958.3 7602.24m0 0l36.24 5928.4m-1742.28 -2.11l1742.28 2.11m-4581.16 -13530.64l2390.29 0m2224.87 -5010.96l-3421.13 2797.59m-4607.41 2213.37l-3.16 -1517.05m752.17 -12.71l314.95 0 23.79 0 334.15 0m663.81 2.85l296.86 -2.85 355.68 0m-1397.91 -674.89l0 709.84m824.68 -712.22l0 711.16m491.67 -718.28l0 709.83m833.75 -709.05l0 711.16m0 -27.55l0 1529.76m-3495.9 -1487.39l0 -709.84 908.54 -1.24m-77.05 -0.09l0 711.17m435.03 -714.24l490.44 -3.91 37.5 -0.4 455.33 -1.09m326.26 -7.12l469 0.36 536.95 0.42m-86.1 0l86.1 0m983.27 2.12l3398.49 -2.12m-2233.92 0l0 2213.37m10264.7 0l-7958.3 7602.24m0 0l-36.24 5928.4m1742.28 -2.11l-1742.28 2.11m4581.16 -13530.64l-2390.29 0m-2249.79 -5006.71l3446.05 2793.34m4607.41 2213.37l3.16 -1517.05m-752.17 -12.71l-314.95 0 -23.79 0 -334.15 0m-663.81 2.85l-296.86 -2.85 -355.68 0m1397.91 -674.89l0 709.84m-824.68 -712.22l0 711.16m-491.67 -718.28l0 709.83m-833.75 -709.05l0 711.16m0 -27.55l0 1529.76m3495.9 -1487.39l0 -709.84 -908.54 -1.24m77.05 -0.09l0 711.17m-435.03 -714.24l-490.44 -3.91 -37.5 -0.4 -455.33 -1.09m-326.26 -7.12l-469 0.36 -536.95 0.42m86.1 0l-86.1 0m-983.27 2.12l-3516.29 -2.09m2351.72 -0.03l0 2213.37"/>
 </g>
</svg>
