<?xml version="1.0" encoding="UTF-8"?>
<!DOCTYPE svg PUBLIC "-//W3C//DTD SVG 1.1//EN" "http://www.w3.org/Graphics/SVG/1.1/DTD/svg11.dtd">
<!-- Creator: CorelDRAW 2018 -->
<svg xmlns="http://www.w3.org/2000/svg" xml:space="preserve" width="250mm" height="250mm" version="1.1" style="shape-rendering:geometricPrecision; text-rendering:geometricPrecision; image-rendering:optimizeQuality; fill-rule:evenodd; clip-rule:evenodd"
viewBox="0 0 25000 25000"
 xmlns:xlink="http://www.w3.org/1999/xlink">
 <defs>
  <style type="text/css">
   <![CDATA[
    .fil0 {fill:white}
   ]]>
  </style>
 </defs>
 <g id="Слой_x0020_1">
  <metadata id="CorelCorpID_0Corel-Layer"/>
  <g id="_636266168">
   <path class="fil0" d="M8125.83 18236.86c80.97,-201.88 158.31,-222.04 317.86,-368.75 115.98,-106.71 208.89,-188.34 308.4,-288.5l201.23 140.49c-55.23,84.34 -472.8,574.91 -667.88,650.38l-159.61 -133.62zm4783.64 -792.61c-192.29,-205.19 -195.85,-204.16 -181.98,-537.32l1173.3 1083.45c197.73,217.05 103.67,216.14 100.42,521.23l-735.37 -712.61c-148.33,-135.04 -191.77,-179.19 -356.37,-354.75zm-2117.62 800.07c226.13,-238.32 449.86,-446.42 696.21,-681.37 126.16,-120.33 252.13,-223.99 361.37,-351.64 137.83,-161.04 153.97,-240.91 337.96,-313.71 19.84,485.77 -249.99,609.4 -510.54,855.17 -157.21,148.34 -540.23,543.22 -709.89,641.63 -63.73,-56.66 -86.1,-68.85 -175.11,-150.08zm-2496.3 -956.38c-99.38,1.88 -215.17,17.7 -305.93,18.54 -268.79,2.66 -125.06,19.71 -197.08,-80.39 195.85,-118.83 1108.85,-57.96 1348.14,-58.74l-28.39 474.5 -218.16 -193c34.88,-178.22 67.69,120.13 5.9,-57.12 -190.99,-79.48 -364.54,-108.39 -604.48,-103.79zm7511 373.94l-3.89 1094.92 -313.39 11.15c-20.17,-1292.46 203.69,-1279.68 -420.43,-1892.85 95.37,-72.68 146.45,-153.52 198.45,-223.28l186.9 172.32c214.33,209.66 219.06,251.09 578.1,246.81 385.61,-4.54 769.01,-9.79 1156.12,-3.76l-0.26 320.52 -1120.86 1.95c234.82,310.73 529.34,453.68 705.1,782.57l-195.92 206.93 -769.92 -717.28zm-978.42 591.9c-161.69,-57.11 -104.64,21.66 -108.14,-259.25 -1.49,-494.08 112.09,-1313.66 -120.13,-1701.48 -42.6,-71.18 -179.13,-187.94 36.04,-138.35 204.35,47.07 -158.12,170.77 1125.39,173.94 165,0.39 330.45,-1.94 495.24,-7.52 26.52,-0.9 265.1,-0.97 273.91,2.01 158.71,53.75 63.08,-23.21 121.69,139.97 -368.76,-0.45 -1225.36,47.91 -1439.75,-49.79 -76.96,79.81 -10.25,-50.5 -83.25,137.7 -26.77,68.98 -5.05,44.67 -21.59,114.69 -276.69,-49.14 -293.09,59.32 -305.48,66.38 0.52,170.77 148.72,1319.24 26.07,1521.7zm-1139.53 -1986.86c86.87,116.12 51.41,58.74 48.82,245.58 -13.16,12.71 -38.38,57.05 -44.28,65.42l-72.29 95.82c121.37,94.58 63.34,-9.6 100.94,166.48 1.95,9.14 -9.01,175.3 -10.11,201.43 -145.02,-122.27 -189.89,-121.95 -276.11,-336.8 -136.21,-0.64 -73.52,14.4 -170.76,-54.65 -33.26,-23.6 -94.79,-93.03 -138.22,-128.56 246.55,-25.28 -6.81,17.83 109.5,-109.75 -214.46,-5.58 -293.04,-77.35 -400.07,-213.36 -207.01,-263.15 -118.97,-1209.61 -38.77,-1357.68 203.57,87.26 518.06,419.32 669.44,563.57 256.4,244.28 315.27,391.97 221.91,862.5zm-4239.65 -26.25c518.06,-0.13 751.06,32.02 932,-341.27l235.21 236.83c-465.55,254.39 -348.79,546.52 -347.23,1199.62l-3.76 997.41 -318.38 -2.26 -8.5 -1483.65c-681.37,254.4 -524.09,1048.83 -516.11,1911.66l-302.83 8.94c-3.43,-231.12 -12.44,-493.1 -4.66,-721.69 12.25,-358.12 82.85,-232.03 124.21,-546.33 40.26,-306.19 -72.15,-372.64 123.57,-579 134.2,-141.46 196.11,-146.58 296.14,-346.38 -251.73,-18.35 -505.87,-10.83 -758.58,-10.31l-596.57 -10.51c-132.9,-22.04 -63.66,-6.02 -133.22,-41.16l-1.17 -219.58c13.61,-6.94 32.16,-12.84 43.05,-15.82 11.02,-2.98 30.21,-11.09 44.21,-14.26l1192.62 -22.24zm3924.51 -1465.17c248.24,102.11 406.55,422.05 635.08,577.38l-27.62 708.47c155.66,30.92 81.17,-15.69 169.66,67.81l-46.93 330.64 29.56 1593.72c-236.83,-152.8 -701.92,-723.05 -1068.67,-986.07l281.82 -223.6 481.17 434.36 11.61 -704.77 10.44 -450.96c-75.86,-539.65 23.08,-470.02 -310.61,-790.67 -175.82,-169.01 -389.56,-294.2 -511.77,-519.81 -172.06,-95.82 -65.28,11.86 -133.35,-135.11 196.56,-60.35 426,-131.86 479.61,98.61zm4133.85 -391.9c206.74,214.65 433.32,399.23 636.44,667.37l-199.55 180.16c-222.3,-160.07 -471.9,-347.17 -596.64,-603.51l159.75 -244.02zm-10749.86 717.16c85.26,-194.56 129.08,-167.72 259.39,-307.43 88.82,-95.24 158.25,-193.78 215.95,-272.22 17.83,3.04 38.38,9.72 52.58,13.22l100.87 25.8c16.99,3.57 31.06,8.17 47.85,11.16 112.67,20.29 68.91,17.89 193.06,10.24 -90.89,151.31 -533.55,589.11 -708.27,661.01l-161.43 -141.78zm9334.8 -564.29c285.19,-111.57 -105.73,31.25 165.39,18.15 170.69,-8.23 26.12,-32.54 221.33,-71.12 179.64,196.51 676.5,641.89 748.08,821.54l-203.31 180.74c-142.11,-93.48 -848.83,-768.63 -931.49,-949.31zm-8228.79 -327.39c-38.25,272.48 64.05,97.57 -127.33,163.31 39.23,-158.13 53.88,-114.49 127.33,-163.31zm6375.55 -45.71c-58.35,34.3 -69.69,21.53 -124.73,62.37l-177.96 -22.3 -695.44 -5.84 -5.38 -318.51 820.75 4.41 165.06 -18.09 32.03 96.66c160.52,-102.17 55.56,-31.96 236.5,-92.64 86.74,-29.11 153.84,-70.08 221.14,-104.7 -13.16,383.28 -59.97,602.08 -471.97,398.64zm-7205.18 -175.23c404.15,1.03 518.44,-134.79 803.05,-66.97 -9.01,15.43 -19.77,34.29 -26.06,46.74 -6.1,12.19 -16.47,31.77 -23.67,46.48 -124.79,255.3 -110.34,346.13 -335.36,465.03 20.42,-228.07 21.46,-193.65 163.3,-350.73 -364.02,-1.75 -976.73,66.45 -1061.27,-86.23 139.19,-100.55 113.45,-55.23 425.09,-54.45l54.92 0.13zm6736.98 348.85c120.06,-31.57 60.74,-38.38 175.82,-27.04 152.67,15.04 50.3,-39.61 119.67,75.86 256.93,-158 436.18,-98.09 604.22,91.34 111.77,125.97 318.77,332.06 359.88,428.4 197.02,37.28 315.85,85.51 310.92,322.01 138.55,-29.11 58.54,-42.33 159.42,4.8 -75.14,65.41 -60.75,112.74 -178.02,17.7 -180.88,105.35 -240.2,84.67 -506.91,45.51 -295.05,10.44 -643.25,61.72 -826.52,-84.54 -130.57,-104.18 -362.47,-363.5 -445.84,-539.58 -178.61,3.43 -130.31,26 -194.3,-143.99l-222.56 -151.64c-340.23,163.18 -124.67,290.83 -765.2,218.67 87.14,77.54 10.12,47.01 160.26,94.72 146.72,46.68 213.04,-29.3 278.84,62.63l-610.05 -60.62c-0.85,352.29 0.64,704 2.46,1056.15 1.36,275.99 36.11,276.12 -104.57,442.99 -64.12,76.11 -165.19,163.57 -249.79,194.17 -87.01,223.47 -92.32,215.36 -281.56,307.16l-338.09 354.11c-9.6,-71.83 -36.63,-253.1 -33.78,-317.87 14.52,-329.08 -39.61,-154.81 94.39,-204.34 -10.63,-12.71 -26.84,-26.58 -34.1,-36.24 -7,-9.34 -23.14,-24.77 -30.92,-36.57 -93.29,-141.72 -123.05,-257.76 -4.67,-415.17 -37.99,-454.14 168.56,-579.26 375.17,-790.22 200.85,-205.12 386.85,-337.31 583.35,-545.93 -43.7,-127.01 110.02,-107.82 -49.27,-107.82 -42.6,-29.69 -98.93,-68.91 -147.36,-106.26 -104.77,-80.71 -57.9,-55.62 -183.67,-133.68 -330.57,285.78 -592.29,664.58 -966.81,939.01 -119.74,-25.8 -92.13,-15.56 -189.31,-85.12 1.62,146.06 14.52,54.91 -30.47,127.13l-276.63 -33.84 -883.25 6.09c94.14,-201.69 62.95,-75.53 332.58,-387.1 118.64,-137.12 218.93,-199.1 324.15,-332l133.1 134.53c-10.18,-213.3 -29.37,-157.54 18.67,-320.98 165.19,-84.34 64.57,-60.68 254.98,-77.67l1261.4 6.75c-14.32,-98.35 -27.22,-70.73 -13.35,-171.93 20.23,-146.85 -46.09,-44.67 69.76,-117.09 -243.96,-717.67 855.82,-673.85 914.56,-689.99 129.14,162.4 329.27,306.32 194.75,551.71 -153.13,279.22 -355.34,144.63 -569.92,15.69l47.19 -295.11c-70.34,23.47 -59.58,-124.48 -122.72,148.01 -32.55,140.55 -11.61,99.38 7.97,236.5 406.17,310.08 554.43,268.66 820.56,-142.63l32.03 437.93 623.54 35.4zm-5796.43 -466.33c-283.37,-79.41 -80.64,-65.41 -414.26,-81.42 -237.67,-11.41 -744.64,-647.72 -789.25,-734.79 81.17,-88.75 109.05,-117.09 191.38,-192.74 195.27,148.07 334.4,334 515.47,517.28l496.66 491.67zm7833.92 226.97c-13.94,16.47 -37.02,34.3 -45.84,45.77l-55.1 118.64c-227.82,-103.01 -143.54,50.25 -309.38,-110.86 -124.34,47.07 -47.9,42.79 -204.92,34.69l-8.76 -287.59 236.83 -12.71c230.41,-33.51 198.25,-21.58 393.65,-104.24l35.53 36.95c310.53,-352.42 755.98,-950.22 1188.53,-1227.56l177.12 189.88 -1016.67 1093.37c732.26,31.57 715.86,31.51 1062.5,-361.3 189.37,-214.52 459.07,-545.48 699.72,-666.78 93.35,78.12 94.91,67.55 188.85,192.42 -104.51,168.68 -237.41,283.5 -380.49,433.58 -76.43,80.13 -111.12,116.37 -190.21,192.29 -36.76,35.27 -84.15,78.31 -114.43,111.57 -79.42,87.39 -4.6,-23.08 -80.58,103.08l1053.1 12.45 0.78 310.15 -1047.59 5.44 -76.57 203.38c-451.74,-171.74 -507.36,-220.88 -1059.13,-207.33 -39.16,102.17 45.44,79.42 16.2,204.28 -239.35,-79.74 -494.33,140.42 -463.14,-309.57zm-1478.72 -335.04l-160.13 24.18c-9.27,-105.15 6.42,-75.72 -30.15,-179.32 -55.75,-158.06 -40.52,-82.79 -78.83,-132.06l9.59 288.63 -934.72 35.98c79.35,-197.61 0.58,-85.38 180.55,-230.02 497.9,-400.2 369.21,-465.48 633.72,-564.48 -34.36,-196.5 -61.4,-163.89 190.92,-184.77l1334.47 -28.33c-161.36,219.39 -321.94,356.83 -526.61,546.98 -170.77,158.64 -324.16,418.87 -618.81,423.21zm-3702.98 -940.69c176.85,-48.69 262.24,-64.44 306.97,133.49 172.45,85.64 235.33,230.02 379.65,376.21 172.19,174.39 280.78,154.68 239.93,420.49 -180.61,56.92 -319.48,35.78 -513.78,40.52 -593.52,14.52 -464.83,22.62 -442.21,-184.9 -99.19,124.86 -71.76,-184.05 -105.28,207.65 -202.73,-68.2 -171.93,1.75 -194.3,-202.14 -288.75,-132.25 -667.56,-597.15 -876.89,-807.14 223.08,-29.3 1042.66,-55.36 1205.91,15.82zm-2210.14 964.22c-482.85,-2.52 -541.4,-160.71 -782.63,-398.31 -201.95,-198.97 -418.93,-370.12 -546.97,-622.31l386.06 26.26c235.72,281.75 801.95,719.29 943.54,994.36zm-332.97 -1188.66c248.56,-80.46 66.84,-51.41 267.95,-145.42 320.91,408.82 1031.45,867.76 1260.24,1332.46 -713.14,33.84 -735.57,-531.09 -1584.65,-1170.77l56.46 -16.27zm-419.51 11.99c0.39,23.92 -95.89,141.27 -66.91,5.9 18.15,-84.54 -36.82,-20.94 50.31,-18.99 148.66,3.24 13.87,-146 16.6,13.09zm8426.07 -234.23l346.06 -0.58c-66.64,150.34 -15.56,91.93 -144.31,222.95 -133.29,135.56 -63.21,75.91 -224.05,145.8l22.3 -368.17zm-383.67 -433.78l363.83 9.53 -24.37 333.03 -339.72 -2.01 0.26 -340.55zm-659.45 22.37c56.27,-6.55 284.67,-15.95 336.53,-11.87 353.98,27.81 251.42,113.78 251.54,114.49 -48.81,297.12 85.19,113.78 -139.12,188.01l-842.28 -3.57c77.73,-170.63 130.77,-256.4 393.33,-287.06zm-3640.88 569.73c-187.75,-38.19 -82.01,23.53 -210.76,-68.72l119.61 -223.99c-196.69,-112.74 -102.5,198.7 -141.26,-280.07l15.62 -886.43c203.57,111.45 737.45,638.52 841.95,845.52 177.77,61.78 190.15,98.61 134.66,273.65 30.47,147.75 14.58,361.36 17.24,532.19 9.59,607.92 -47,744.9 -677.54,24.83 -134.98,-154.16 -117.61,-32.67 -99.52,-216.98zm2242.03 -357.03c7.85,14.72 20.94,33.13 25.03,43.51l33.26 81.29c25.93,200.65 -96.08,124.41 -137.38,123.5 -43.89,217.64 -25.54,145.68 -171.93,298.87 -289.14,302.63 -405.13,511.84 -654.72,431.64 -71.58,-184.7 -51.61,-838.84 -22.24,-1069.7 57.76,-261.33 108.98,-261.01 340.04,-272.03 -45,-213.35 314.88,-419.51 637.8,-756.57l17.37 902.7c-18.99,333.36 15.04,113.2 -67.23,216.79zm1990.04 -560.58l452.51 -7.2c241.63,9.79 397.93,-42.59 561.5,73.52 -158.51,122.01 -326.36,80.13 -588.27,72.67l-380.23 68.92 -10.96 -87.52 -844.54 -9.79c-182.05,-297.25 -101.79,-1030.09 -109.5,-1528.19 -6.81,-439.29 13.68,-340.23 109.5,-379.19 112.15,185.93 47.52,1116.9 54.19,1478.85 89.21,65.09 71.38,-16.86 136.6,250.11l619.2 67.82zm-146.84 -263.6l94.39 -59.84c-41.49,-100.94 -47.07,-65.35 71.9,-65.35l29.56 -111.45 354.88 -2.91 21.91 329.92 -425.15 -19.77 -209.21 20.22 61.72 -90.82zm634.75 -623.8c249.99,-84.09 734.2,-37.15 1056.61,-25.81l-0.52 314.95 -1094.02 1.75 37.93 -290.89zm-3489.11 -405.13c47.26,70.8 84.48,153.91 136.15,244.28 -99.71,127.65 -147.56,126.75 -219.71,212.65 -114.88,136.72 -11.74,109.82 -153.33,229.89l-62.23 -295.96c-239.88,-49.07 -322.6,-63.08 -278,-324.15 354.69,-34.55 310.99,-83.89 577.12,-66.71zm-15.04 -704.45l-22.04 553.98 -298.93 65.87 -10.05 -532.58 331.02 -87.27zm3419.03 560.92c196.43,-185.55 357.34,-381.66 549.24,-460.1l175.56 134.06c-75.01,284.35 -406.29,589.25 -692.13,687.27l-32.67 -361.23zm-423.6 2194.7l408.3 -24.57c-30.6,245.9 -74.82,294.14 -13.42,514.24 -122.14,157.47 -251.09,262.62 -372.26,403.76l-19.9 -244.8c-131.22,167.72 -4.15,203.89 -225.35,432.87 -111.32,115.14 -184.44,180.75 -292.06,313.78l-391.64 -5.12c62.62,-146.58 749.11,-810.38 910.86,-890.58l19.19 -248.94c-260.87,85.83 -1375.57,102.17 -1624.97,21.13 -80.07,214.78 -4.6,118.83 -194.3,179.65 -176.47,365.06 -451.09,420.49 -623.28,729.34l-178.28 -281.3c123.96,-181.98 470.54,-568.43 680.52,-647.33 21.66,-111.77 -18.47,-56.99 49.54,-158.58 77.4,-115.59 -4.09,-17.24 103.59,-76.24l-43.89 -1565.13c-189.17,35.85 -364.21,328.3 -513.84,475.53 -174.07,171.41 -326.62,356.37 -538.61,475.01 -126.49,313.39 -81.56,142.82 -344.25,334.65 196.3,31.96 88.17,-45.51 180.1,64.32l-0.07 994.43 -295.62 16.4 1.88 -1055.83 -59.32 -288.88c-339.2,-85.51 -819.01,-830.61 -1163.65,-1040.66l16.73 1580.89c115.46,190.34 103.21,91.41 82.92,283.24 201.62,49.21 120.91,8.3 262.95,156.18 66.06,68.72 92.32,103.73 157.02,171.74 121.43,127.52 219.32,198.44 311.51,332.77 94.59,94.59 102.69,-116.17 74.23,120.26 -149.76,91.61 -80.39,80.72 -251.22,163.63l-32.8 -128.62c-114.23,-48.04 -228.72,-183.21 -356.44,-287.72 -126.22,-103.21 -215.82,-219.77 -291.67,-365.58 -127.26,-34.49 -143.02,-12.64 -246.81,-150.6l-1564.81 3.05c51.47,214.13 317.47,439.68 455.89,568.63 190.27,177.18 321.17,352.74 509.89,522.47 149.69,65.34 92.38,74.29 267.42,96.14l3.63 181.39 126.62 -143.85 952.68 5.44 91.86 298.09 -1140.49 -6.03c-229.05,76.18 -164.15,100.04 -347.75,176.67 -235.73,344.76 -772.91,603.31 -927.73,1034.3 219.59,4.34 439.3,4.28 658.81,1.62 274.56,-3.31 375.95,-41.88 535.89,82.85 122.4,-139.38 177.96,-88.36 180.94,-88.94 95.89,-18.74 99.13,3.11 180.55,11.41 211.93,-74.36 391,-307.88 529.34,-445 98.22,-97.37 149.76,-147.55 245.78,-247.91 127.06,-132.84 95.1,-129.66 252.64,-198.25l154.23 171.15c-106.51,184.44 -344.44,357.09 -509.57,527.46 -482.07,497.19 -250.95,341.33 -411.73,608.5 37.34,106.06 89.72,302.37 -45,418.09 96.93,287.91 85.78,673.01 94.92,1046.1 137.31,-103.98 214.65,-194.88 316.63,-304.89 133.09,-143.6 161.68,-230.99 395.27,-219.91 -64.77,-152.22 -107.62,-86.22 33.71,-224.12 71.57,-69.82 86.16,-50.95 166.94,-62.23 93.16,-179.97 242.66,-274.76 344.18,-353.59 52.71,-89.47 13.68,-839.62 21.33,-1001.89 13.16,-282.59 -26.32,-145.35 92.84,-216.4 112.68,170.05 60.23,1076.38 58.74,1284.94 152.28,135.56 193.9,101.59 282.4,331.47 139.06,3.05 199.22,16.41 321.56,252.32 -429.57,78.06 -41.24,-100.09 -479.75,-97.24l-36.04 227.1c-63.47,765.97 736.34,857.32 1308.99,1736.35 -91.48,97.7 -86.68,126.49 -269.5,187.75 -159.55,-238.51 -775.63,-904.97 -1051.42,-1023.67 24.96,733.17 -33.91,679.68 367.91,1046.36 216.34,197.41 506.97,428.79 653.04,667.82 -90.96,143.34 -47.85,91.28 -192.36,189.63l-603.31 -613.43c-95.23,-102.49 -88.62,-135.36 -130.31,-131.15 -110.34,138.8 -105.09,290.38 -103.73,499.52 1.11,175.37 11.54,354.56 20.1,537.19l-310.73 8.55 24.7 -1047.72c-435.6,175.3 -480.59,619.26 -915.92,741.59 -231.38,-318.96 -36.63,-229.3 212.12,-533.23 651.48,-795.85 668.66,-296.08 681.82,-1358.32 -474.82,228.2 -760.91,918.38 -1154.04,996.96l-159.42 -120.91c33.58,-169.53 574.72,-693.17 729.41,-846.36 143.34,-141.91 250.44,-235.72 391.18,-380.1 191.64,-196.63 188.46,-231.32 193.52,-578.87l-25.28 -244.93 -270.67 197.41c-57.24,72.48 -1129.28,1157.41 -1241.31,1217.25 1.62,-334.46 0.33,-668.53 3.24,-1003.12l76.76 -929.54 -181.2 -195.98c-201.49,-50.31 -56.08,-24.83 -231.44,-199.68l-2029 3.18c115.79,-200.52 1203.45,-1221.41 1454.6,-1507.57 -1097.84,-189.43 -1043.9,602.08 -2010.97,1281.25l-170.25 -208.11c91.02,-125.9 868.53,-874.63 1006.56,-1106.46l-709.96 54.2c-14.39,-202.92 48.56,-227.69 -3.57,-382.05l708.6 26.06c-201.88,-403.24 -836.96,-717.47 -1029.7,-1106.52l203.89 -187.75 434.82 402.27c888.76,833.72 639.55,928.63 1539.27,895.89 -191.12,-508.59 -1151.26,-1115.53 -1374.41,-1523.38l2007.54 -10.24c-283.89,-616.74 -815.63,-532.07 -1674.11,-518.52 -689.28,10.89 -610.12,63.21 -640.72,-111.38 41.81,-259.97 -81.43,-181.39 303.53,-194.42l1188.54 3.69c-327.33,-830.09 -1233.34,-422.82 -1927.41,-545.35l13.87 -285.12 1103.09 -35.14c-201.75,-231.12 -564.54,-491.35 -687.39,-756.57l135.17 -172.71c202.98,48.23 115.98,12.12 260.42,151.96 180.3,174.52 355.01,443.83 565.58,519.36l-0.45 -1099.27 299.45 0.91c21.52,412.52 -30.73,862.76 -3.7,1260.76 19.45,287.33 372.39,583.34 540.11,699.65l4.41 -1525.14 310.79 18.15c29.69,1496.29 -223.14,1767.02 509.12,2324.63l9.01 -2074.38c519.55,299.77 1030.48,1206.3 1543.22,1451.03l186.13 -316.69c3.3,-21.92 11.02,-28.66 19.71,-41.17l126.16 349.76 1467.04 -1419.07 25.42 2048.9 397.8 -432.88 346.58 218.42c-223.08,99.45 -359.16,236.82 -466.84,478.45l1198.39 9.72zm-5792.92 -1356.77c-523.77,-417.83 -246.49,-528.5 -305.74,-1746.92 1514.63,-19.13 1196.25,-93.42 1369.73,253.42l637.74 683.25c250.96,274.82 716.18,483.05 631.9,999.88 -35.4,-87.07 -1320.59,-1325.46 -1496.67,-1426.66l-5.39 2072.18c-383.21,-223.41 -289.59,-438.26 -285.96,-994.05 2.53,-384.77 18.93,-805.39 -10.7,-1199.04l-526.62 -3.63 -8.29 1361.57zm1808.37 -1300.37c155.34,152.74 295.18,272.55 428.99,428.14l-127.91 270.34c-150.54,-75.46 -842.86,-772.84 -968.44,-940.75l165.38 -211.93c177.51,74.23 22.89,-24.18 177.12,122.72l324.86 331.48zm3958.48 992.94l5.06 426.26c-462.89,313.72 -130.11,323.77 -480.26,308.47 -66.52,-301.98 -24.12,-445.13 427.29,-626.59 3.44,-184.38 -7.26,-416.21 67.49,-542.82 -3.63,-227.69 -49.46,-228.01 -75.59,-460.49 -27.68,-245.65 -18.35,-340.56 61.4,-455.05 173.22,86.68 101.91,-90.83 88.36,238.97 -14.59,356.43 -66.06,771.93 41.62,1075.86 58.22,-164.09 17.31,-106 145.41,-202.34 181.27,269.5 83.05,176.79 147.49,564.16l-313 4.92 -115.27 -331.35zm-2849.62 -455.3c63.6,-139.06 798.58,-907.37 988.86,-980.17l166.62 156.82c-75.73,207.14 -336.54,388.08 -499.2,544.77 -185.15,178.48 -331.99,371.87 -546.19,492.78l-110.09 -214.2zm2042.29 5694.38c-141,-34.88 -79.68,27.1 -149.17,-99 -3.18,-5.7 -5.25,-24.11 -7.39,-29.56 -39.03,-100.23 59.7,-77.21 -194.43,-89.79l-313.59 211.93 -8.49 -440.33 483.05 31.9c115.14,-22.24 427.3,-110.54 473.27,24.25 211.54,-74.23 358.51,-58.42 628.53,-59.58 -2.21,-244.8 -149.11,-265.68 -244.8,-467.49 -132.26,-35.34 -106.26,-1.56 -199.75,-91.03 -88.81,-84.99 -68.59,-76.17 -113.32,-217.63 -176.53,-53.81 -254.98,-206.1 -408.5,-343.6 42.27,-239.55 46.68,-60.81 81.17,-238.19 14.07,-72.22 6.36,-185.61 5.32,-261.91l199.03 157.47c-19.78,528.88 209.98,114.88 196.95,532 155.34,-27.04 114.88,-56.99 232.35,61.39 77.35,77.93 61.33,84.8 101.79,193 156.11,81.88 361.36,284.87 498.87,418.35 65.02,63.08 392.16,424.38 430.02,490.64l-1467.57 -7.33 -233.97 20.62 0.26 160.91c419.97,-167.14 1385.62,-48.43 1913.99,-66.91 -68.14,-245.45 -333.49,-450.63 -512.94,-617.77 -162.14,-150.99 -522.15,-371.8 -541.27,-630.15 -211.48,95.95 -312.48,-68.07 -261.59,-279.74 391.64,-45.32 273.06,19.25 340.29,89.27 388.27,223.92 898.68,941.01 1311.72,1239.43 165.31,-77.41 263.27,-172.32 351.44,-335.63 -240.71,-417.7 -580.62,-653.04 -925.91,-970.19 480.85,-106.32 563.58,140.82 811.1,407.66 160.26,172.84 502.04,448.69 616.08,620.42 205.38,-67.48 323.76,-178.8 410.12,-335.36l-659.33 -710.87 920.47 -22.49 -6.1 -518 -897.38 -20.75c90.44,-100.68 698.55,-806.68 806.62,-827.62l1317.16 4.02 -18.74 8721.18 -14517.08 -6.03 1.55 -13144.62 5642.32 -0.85c254.92,106.71 -51.54,-39.35 109.44,107.88 201.56,184.25 125.25,38.83 328.56,165.9 43.63,27.29 281.17,297.77 350.67,361.17 285.96,260.94 519.35,341.33 511.51,912.62l-968.37 -936.22c-497.51,265.35 210.37,15.3 -990.42,40.78 -451.54,9.53 -808.95,52.71 -1228.99,59.13l-0.32 968.24c-250.57,-156.96 -401.76,-432.23 -647.72,-594.76l-381.53 339.78 608.56 660.62 -958.32 34.49 7.07 479.03c845.84,221.08 1396.18,-278.83 1811.1,339.39l-1392.1 -4.28 0.9 539.52c435.92,-16.46 867.17,-17.76 1303.35,-16.72 497.64,1.16 735.63,-21.66 910.61,305.74 -504.44,-2.08 -1011.61,4.02 -1515.6,-4.67 -417.19,-7.2 -346.98,-10.96 -527.01,99.71 -177.96,109.43 -357.67,86.22 -679.36,96.27 -11.41,31.25 -27.23,89.99 -38.64,113.52 -49.53,102.37 -6.35,26.51 -71.31,95.3l-548.98 9.01 -270.8 388.66 653.94 713.72 -855.17 14.71c-43.89,227.23 28.98,372.71 -115.53,524.55l1021.21 10.89c-109.5,129.85 -219.71,222.89 -355.6,344.44 -197.67,176.86 -230.21,166.68 -327.39,360.59 104.76,209.14 149.76,253.23 359.09,345.42 173.62,-69.11 243.9,-169.99 363.77,-311 127.71,-150.27 170.96,-188.59 295.56,-309.37 244.73,-237.15 324.28,-469.76 808.05,-422.5l-923.97 897.84c79.87,203.57 208.82,337.05 341.72,437.15 262.24,-263.08 513.59,-506.19 783.48,-781.01 564.61,-574.85 470.8,-583.22 956.77,-561.3 -305.94,384.83 -1205.53,1057.9 -1393.66,1523.06l2065.49 -0.13c-158.18,377.7 -501.2,282.98 -991.84,280.71 -406.55,-1.81 -817.83,-3.89 -1233.85,2.73l20.55 539 1374.15 6.09c-72.87,105.55 -161.5,219.65 -287.53,265.29 -162.72,58.86 -1295.11,25.48 -1512.55,23.21 -137.9,765.19 248.75,529.34 992.36,539.84 -176.02,285.97 -527.01,408.89 -668.99,721.56l327.85 273.26c435.98,-149.63 364.21,-454.78 710.28,-617.77l1.1 995.99 535.7 -12.38c-7.98,-347.55 -2.14,-690.18 -6.55,-1036.7 -6.1,-481.69 -18.03,-573.04 293.42,-768.89l4.6 1381.73 539.33 -7.84c11.86,-418.68 8.68,-844.16 4.08,-1263.29 -5.7,-516.83 -90.83,-747.56 283.25,-931.48 10.89,344.5 2.52,695.89 1.36,1041.3 -4.02,1205.2 -21.59,489.6 -138.03,933.11 11.8,9.4 28.72,19.77 37.35,25.67 624.9,430.73 -168.82,83.37 572.45,737.83 494.2,-145.22 638.58,-729.86 1054.46,-939.45 4.28,580.42 -141.52,567.46 -430.34,839.29 -222.82,209.73 -460.94,394.04 -617.77,654.01 80.78,152.87 180.36,260.04 350.73,351.77l696.35 -677.8 5.7 933.95 543.28 -7.46 19.77 -894.47 626.4 634.89c196.56,-74.75 306.25,-195.85 393,-340.88 -581.08,-771.16 -1154.63,-803.25 -1024.26,-1442.99l978.42 899.84c422.76,-227.81 311.9,-390.73 428.92,-675.27 265.61,-645.78 -55.69,-1458.69 120,-1949.13 175.43,17.18 255.04,69.18 275.79,309.83l-20.88 1764.81 540.69 -3.5 0.84 -1347.83c350.74,275.34 308.6,153.65 300.3,741.99 -4.93,346.78 -0.78,693.81 1.68,1047.59l536.93 -18.54 4.47 -928.24c207.98,104.44 491.29,414.85 644.09,589.57 135.11,-103.99 249.99,-215.89 366.94,-377.12l-606.29 -639.81 975.44 -7.07 -7.98 -535.69c-1073.33,-21.14 -1537.06,162.98 -1803.64,-295.82l1344.25 -14.07c168.24,-788.28 -253.16,-486.94 -1567.92,-514.76 -421.01,-8.88 -406.16,-41.1 -480.07,-185.8zm-3036.72 -7334.59c104.96,115.07 167.39,148.92 260.75,266.91 -182.76,47.06 -156.37,74.81 -302.5,107.75l-444.02 -435.99c72.41,-152.35 53.03,-129.72 218.47,-199.29 175.5,123.37 129.34,109.5 267.3,260.62zm544.25 -552.22l304.19 1.23 1.55 1028.4c363.51,-114.16 791.71,-1074.04 933.95,-612.58 24.7,80.26 -73.32,137.44 -230.15,301.72 -693.23,726.36 -635.14,760.66 -760.72,542.11l-127.26 192.87c-176.15,-170.96 -609.47,-67.62 -488.76,-498.93l367.59 33.32 -0.39 -988.14zm2947.52 -925.01c501.78,-81.23 306.13,-58.93 520.91,227.49l-16.99 -240.19 2817.73 0.06c200.13,81.88 21.46,-14.07 188.33,147.36 -6.16,-195.79 16.34,-114.55 33.39,-173.09l170.95 56.72 815.12 -30.73 -20.49 5687.45c-285.84,0.64 -572.19,1.62 -858.03,0 -427.23,-2.4 -516.89,-52.32 -683.9,98.41l-249.14 -188.72c-708.79,345.67 -640.91,1051.16 -1497.13,1044.54 186.97,-352.67 699.13,-592.29 927.47,-1001.95l-284.16 -333.81c-247.78,92.19 -642.59,553.13 -889.53,805.45 -42.47,43.37 -91.74,101.27 -135.69,128.3 -117.74,72.22 -4.87,61.85 -92.91,14.85l-117.53 226.38c-40.59,55.95 -112.22,114.43 -158.97,172.32l-233.65 -11.15 -193.19 -3.43c73.32,-95.89 140.68,-243.44 208.95,-143.34 325.38,-488.63 316.11,-388.27 437.73,-571.61l29.7 204.54c106.77,-133.16 30.34,-136.79 136.79,-303.73 107.68,-169.15 466.65,-403.05 605.19,-687.4l-589.37 -7.46 5.18 -270.53 729.8 -49.27 2.98 -486.62 -731.93 -16.99 -20.49 -295.17 1163.12 -32.09c55.3,-162.34 45.06,-287.46 17.7,-507.95l-968.96 -14.32c194.88,-251.94 477.42,-371.61 598.84,-712.3l-322.2 -283.11c-394.5,180.49 -361.17,384.51 -596.57,412.19 -53.16,169.21 35.52,111.64 -107.82,144.57l-0.58 -876.25c-150.28,-73.64 -142.5,-43.11 -338.16,-46.8 -26.58,-402.41 -7.97,-112.29 -98.34,-227.36 -18.87,286.68 -49.99,149.17 -71.84,440.78l-12.05 1309.64c-124.8,100.62 -190.48,143.21 -297.51,265.41 -115.98,-1493.75 287.2,-1369.41 -531.35,-1356.9 -66.58,1217.65 212.64,1824.27 -302.69,2189.07l-1.11 -2050.72c-228.39,107.3 -53.03,-4.73 -220.29,193.39 -81.95,97.05 -94.98,110.86 -185.16,197.34 -274.23,262.83 -915.4,944.07 -1114.75,1049.61 -31.32,-410.38 -39.16,-392.03 181.26,-610.77l1178.36 -1119.68c-74.23,-152.29 -214.27,-299.07 -324.09,-390.8 -364.73,188.01 -648.76,704.9 -1011.09,920.52 -10.25,-631.18 255.88,-637.47 1035.79,-1460.11 -64.31,-70.79 -100.23,-129.92 -172.25,-209.07 -121.69,-133.62 -40.72,-74.62 -193.33,-155.79 -270.86,177.83 -445.9,446.94 -686.68,650.57l-12.06 -906 -522.99 4.99 -7.52 910.67c-106.97,-158.83 -523.76,-570.96 -691.87,-644.87 -197.92,75.6 -308.98,153.52 -355.91,382.44l-83.25 -208.95 -5809.84 -10.31 2.85 -1258.75 10005.22 13.03zm3663.11 -117.21l-289.15 -14.46 -2897.27 15.17c-256.21,41.82 -338.28,62.11 -506.78,-50.3l-76.17 35.46c-66.78,17.44 -45.45,19.25 -138.03,28.07l-7302.17 -2.14c-622.56,0 -2011.69,-73.71 -2543.62,20.03l-10.11 14657.25c173.48,51.35 14257.76,102.44 14722.46,10.44l-0.13 -14673.46 -959.03 -26.06z"/>
   <path class="fil0" d="M15208.87 6970.83c168.5,112.41 250.57,92.12 506.78,50.3l-218.93 -2185.88c335.56,404.93 993.72,830.35 1544.78,1120.14 576.86,303.4 1368.57,474.43 1571.42,1050.57l289.15 14.46c-213.1,-886.17 -1094.6,-984.06 -2081.58,-1665.82 -1360.79,-939.91 -939.32,-1011.42 -1618.03,-2125.4l-285.26 0c-226.06,465.49 249.08,2985.44 291.67,3741.63z"/>
   <path class="fil0" d="M15443.11 8992.89c90.37,115.07 71.76,-175.05 98.34,227.36 195.66,3.69 187.88,-26.84 338.16,46.8l0.58 876.25c143.34,-32.93 54.66,24.64 107.82,-144.57l-228.14 -2633.61c-214.78,-286.42 -19.13,-308.72 -520.91,-227.49l204.15 1855.26z"/>
   <path class="fil0" d="M11808.91 16776.49l202.01 70.8 270.67 -197.41 25.28 244.93 307.95 22.04 36.04 -227.1c438.51,-2.85 50.18,175.3 479.75,97.24 -122.34,-235.91 -182.5,-249.27 -321.56,-252.32l-799.49 -44.53c-80.78,11.28 -95.37,-7.59 -166.94,62.23 -141.33,137.9 -98.48,71.9 -33.71,224.12z"/>
   <path class="fil0" d="M18748.94 7272.35c-14.13,177.05 -103.34,1547.37 -91.93,1588.02 303.6,-291.54 326.23,-1204.09 296.27,-1704.39l-170.95 -56.72c-17.05,58.54 -39.55,-22.7 -33.39,173.09z"/>
   <path class="fil0" d="M10626.6 12821.9c-131.93,232.81 -332.06,486.68 -329.02,791.32 22.37,203.89 -8.43,133.94 194.3,202.14 33.52,-391.7 6.09,-82.79 105.28,-207.65 113.91,-280.71 200.65,-426.91 336.41,-652.32 -44.73,-197.93 -130.12,-182.18 -306.97,-133.49z"/>
   <path class="fil0" d="M10231.39 14720.4c-37.21,220.61 41.95,366.81 93.42,578.48l276.63 33.84c44.99,-72.22 32.09,18.93 30.47,-127.13l-126.87 -883.84c-190.41,16.99 -89.79,-6.67 -254.98,77.67 -48.04,163.44 -28.85,107.68 -18.67,320.98z"/>
   <path class="fil0" d="M15610.82 10275.69l-19.58 434.68 115.27 331.35 313 -4.92c-64.44,-387.37 33.78,-294.66 -147.49,-564.16 -128.1,96.34 -87.19,38.25 -145.41,202.34 -107.68,-303.93 -56.21,-719.43 -41.62,-1075.86 13.55,-329.8 84.86,-152.29 -88.36,-238.97 -79.75,114.49 -89.08,209.4 -61.4,455.05 26.13,232.48 71.96,232.8 75.59,460.49z"/>
   <path class="fil0" d="M11314.9 12240.83l-119.61 223.99c128.75,92.25 23.01,30.53 210.76,68.72 202.08,-167.72 475.6,-285.19 759.82,-340.04 55.49,-175.04 43.11,-211.87 -134.66,-273.65 -222.82,36.89 -582.37,160.59 -716.31,320.98z"/>
   <path class="fil0" d="M10668.41 15935.9l181.2 195.98 152.48 123.31c134.72,-115.72 82.34,-312.03 45,-418.09 -127.4,-166.87 -161.11,-217.96 -260.69,-415.95 -81.42,-8.3 -84.66,-30.15 -180.55,-11.41 -2.98,0.58 -58.54,-50.44 -180.94,88.94l243.5 437.22z"/>
   <path class="fil0" d="M12720.1 12085.62c628.27,-96.72 510.28,154.62 848.89,339.19 41.3,0.91 163.31,77.15 137.38,-123.5l-33.26 -81.29c-4.09,-10.38 -17.18,-28.79 -25.03,-43.51 -117.08,-161.49 -287.2,-366.16 -587.94,-362.92 -231.06,11.02 -282.28,10.7 -340.04,272.03z"/>
   <path class="fil0" d="M15617.31 12374.57l23.72 250.64 -19.19 248.94 -1.81 149.05 19.9 244.8c121.17,-141.14 250.12,-246.29 372.26,-403.76 -61.4,-220.1 -17.18,-268.34 13.42,-514.24l-408.3 24.57z"/>
   <path class="fil0" d="M11279.5 16523.59l277.48 168.1c189.24,-91.8 194.55,-83.69 281.56,-307.16 -321.37,-101.46 -412.91,-231.12 -628.73,-348.92 -118.38,157.41 -88.62,273.45 4.67,415.17 7.78,11.8 23.92,27.23 30.92,36.57 7.26,9.66 23.47,23.53 34.1,36.24z"/>
   <path class="fil0" d="M13949.61 13005.5l110.86 469.89c38.31,49.27 23.08,-26 78.83,132.06 36.57,103.6 20.88,74.17 30.15,179.32l160.13 -24.18c0.26,-461.01 -109.04,-584.77 -189.05,-941.86 -252.32,20.88 -225.28,-11.73 -190.92,184.77z"/>
   <path class="fil0" d="M15490.5 13620.55l-15.76 146.77 233.65 11.15c46.75,-57.89 118.38,-116.37 158.97,-172.32l117.53 -226.38 -26.96 -126.29 -29.7 -204.54c-121.62,183.34 -112.35,82.98 -437.73,571.61z"/>
   <path class="fil0" d="M13236.09 16411.89c-116.31,127.58 137.05,84.47 -109.5,109.75 43.43,35.53 104.96,104.96 138.22,128.56 97.24,69.05 34.55,54.01 170.76,54.65l185.28 -31.11 72.29 -95.82c5.9,-8.37 31.12,-52.71 44.28,-65.42 2.59,-186.84 38.05,-129.46 -48.82,-245.58l-452.51 144.97z"/>
   <path class="fil0" d="M13349.15 14527.46c63.99,169.99 15.69,147.42 194.3,143.99 255.23,-14.91 390.47,-140.29 522.85,-285.64 -69.37,-115.47 33,-60.82 -119.67,-75.86 -115.08,-11.34 -55.76,-4.53 -175.82,27.04l-421.66 190.47z"/>
   <path class="fil0" d="M11766.44 14328.5l21.59 23.2c125.77,78.06 78.9,52.97 183.67,133.68 48.43,37.35 104.76,76.57 147.36,106.26 159.29,0 5.57,-19.19 49.27,107.82l22.11 -8.24 610.05 60.62c-65.8,-91.93 -132.12,-15.95 -278.84,-62.63 -150.14,-47.71 -73.12,-17.18 -160.26,-94.72 -158.38,-121.88 -157.21,-96.2 -303.21,-252.7 -125.06,-134.07 -145.28,-131.29 -235.33,-302.31 -115.85,72.42 -49.53,-29.76 -69.76,117.09 -13.87,101.2 -0.97,73.58 13.35,171.93z"/>
   <path class="fil0" d="M15421.13 13885.57l-23.15 265.61c165.84,161.11 81.56,7.85 309.38,110.86l55.1 -118.64c8.82,-11.47 31.9,-29.3 45.84,-45.77l42.01 -279.35 -35.53 -36.95c-195.4,82.66 -163.24,70.73 -393.65,104.24z"/>
   <path class="fil0" d="M14815.81 15295.57c266.71,39.16 326.03,59.84 506.91,-45.51l18.6 -22.5c4.93,-236.5 -113.9,-284.73 -310.92,-322.01l-214.59 390.02z"/>
   <path class="fil0" d="M14432.92 15731.1c254.13,12.58 155.4,-10.44 194.43,89.79 2.14,5.45 4.21,23.86 7.39,29.56 69.49,126.1 8.17,64.12 149.17,99l-10.37 -42.98 -0.26 -160.91 233.97 -20.62 59.91 -166.09c-45.97,-134.79 -358.13,-46.49 -473.27,-24.25l-160.97 196.5z"/>
   <path class="fil0" d="M10157.94 14379.91c183.6,-76.63 118.7,-100.49 347.75,-176.67l-30.67 -153.65 -3.63 -181.39c-175.04,-21.85 -117.73,-30.8 -267.42,-96.14l-46.03 607.85z"/>
   <path class="fil0" d="M15137.82 14723.12c44.73,141.46 24.51,132.64 113.32,217.63 93.49,89.47 67.49,55.69 199.75,91.03l95.04 -208.5c-40.46,-108.2 -24.44,-115.07 -101.79,-193 -117.47,-118.38 -77.01,-88.43 -232.35,-61.39l-73.97 154.23z"/>
   <polygon class="fil0" points="15657.57,11227.14 15638.77,11422.93 16063.92,11442.7 16042.01,11112.78 15687.13,11115.69 "/>
   <path class="fil0" d="M13849.58 16122.48l-10.44 450.96 264.51 -113.64 46.93 -330.64c-88.49,-83.5 -14,-36.89 -169.66,-67.81l-131.34 61.13z"/>
   <polygon class="fil0" points="15706.12,12281.99 16045.84,12284 16070.21,11950.97 15706.38,11941.44 "/>
   <path class="fil0" d="M12240.23 11842.38l59.32 288.88 113.71 -19.32c262.69,-191.83 217.76,-21.26 344.25,-334.65l-517.28 65.09z"/>
   <path class="fil0" d="M10803 12677.91c103.79,137.96 119.55,116.11 246.81,150.6l126.42 -162.66c20.29,-191.83 32.54,-92.9 -82.92,-283.24 -106.97,63.02 -37.21,-1.36 -161.36,127 -80.39,83.05 -84.93,91.87 -128.95,168.3z"/>
   <path class="fil0" d="M15633.32 14591.64l78.7 -190.47c-67.23,-70.02 51.35,-134.59 -340.29,-89.27 -50.89,211.67 50.11,375.69 261.59,279.74z"/>
   <path class="fil0" d="M13700.72 12626.7l121.04 199.29c189.7,-60.82 114.23,35.13 194.3,-179.65l-162.21 -254.46c-107.68,59 -26.19,-39.35 -103.59,76.24 -68.01,101.59 -27.88,46.81 -49.54,158.58z"/>
   <path class="fil0" d="M13936.32 14203.44l177.96 22.3c55.04,-40.84 66.38,-28.07 124.73,-62.37l14.33 -201.3 -32.03 -96.66 -165.06 18.09 -119.93 319.94z"/>
   <polygon class="fil0" points="15672.67,11736.32 15683.63,11823.84 16063.86,11754.92 16090.63,11608.73 15638.12,11615.93 "/>
   <path class="fil0" d="M13027.2 14812l346.26 -36.5c-53.61,-230.47 -283.05,-158.96 -479.61,-98.61 68.07,146.97 -38.71,39.29 133.35,135.11z"/>
   <path class="fil0" d="M11697.92 13481.81l32.8 128.62c170.83,-82.91 101.46,-72.02 251.22,-163.63 28.46,-236.43 20.36,-25.67 -74.23,-120.26l-209.79 155.27z"/>
   <path class="fil0" d="M12409.43 13621.78l247.07 -2.4c-57.5,-64.96 73.2,-114.88 -129.53,-108.66 -295.17,9.15 -47.07,13.42 -117.54,111.06z"/>
   <path class="fil0" d="M15474.74 13767.32l15.76 -146.77c-68.27,-100.1 -135.63,47.45 -208.95,143.34l193.19 3.43z"/>
   <path class="fil0" d="M15491.28 11352.33l-61.72 90.82 209.21 -20.22 18.8 -195.79c-118.97,0 -113.39,-35.59 -71.9,65.35l19.9 111.63c-203.18,6.42 -61.52,15.76 -114.29,-51.79z"/>
   <path class="fil0" d="M15341.32 15227.56l-18.6 22.5c117.27,95.04 102.88,47.71 178.02,-17.7 -100.88,-47.13 -20.87,-33.91 -159.42,-4.8z"/>
   <path class="fil0" d="M7597.07 12615.35c-28.98,135.37 67.3,18.02 66.91,-5.9 -2.73,-159.09 132.06,-9.85 -16.6,-13.09 -87.13,-1.95 -32.16,-65.55 -50.31,18.99z"/>
  </g>
 </g>
</svg>
