<?xml version="1.0" standalone="no"?>
<!DOCTYPE svg PUBLIC "-//W3C//DTD SVG 20010904//EN"
 "http://www.w3.org/TR/2001/REC-SVG-20010904/DTD/svg10.dtd">
<svg version="1.0" xmlns="http://www.w3.org/2000/svg"
 width="700.000000pt" height="700.000000pt" viewBox="0 0 700.000000 700.000000"
 preserveAspectRatio="xMidYMid meet">
<metadata>
Created by potrace 1.11, written by Peter Selinger 2001-2013
</metadata>
<g transform="translate(0.000000,700.000000) scale(0.100000,-0.100000)"
fill="#000000" stroke="none">
<path d="M3183 6739 c-78 -14 -128 -50 -165 -119 l-23 -45 -1 -489 0 -488 -65
-22 c-220 -74 -412 -243 -521 -461 -26 -51 -57 -134 -64 -170 -39 -216 -10
-455 76 -625 34 -67 102 -159 159 -215 28 -27 51 -55 51 -63 0 -7 -30 -90 -66
-185 -36 -95 -81 -217 -101 -272 -19 -55 -91 -246 -160 -425 -69 -179 -153
-404 -188 -500 -35 -96 -97 -263 -138 -370 -41 -107 -118 -314 -171 -460 -54
-146 -101 -274 -106 -285 -6 -11 -41 -105 -79 -210 -90 -249 -165 -446 -237
-625 -54 -136 -57 -151 -58 -231 -1 -74 2 -90 23 -121 45 -65 116 -100 203
-99 101 1 174 58 215 168 12 32 76 204 143 383 67 179 146 388 175 465 56 149
175 465 325 865 50 135 95 254 100 265 5 11 86 227 180 480 230 614 290 774
305 810 6 17 22 58 35 92 l22 62 47 -7 c57 -9 191 -9 247 -1 l41 7 21 -47 c12
-25 31 -73 43 -106 42 -118 143 -385 254 -675 180 -468 375 -986 465 -1230 45
-124 86 -234 91 -245 5 -11 22 -56 37 -100 256 -713 322 -888 384 -1025 55
-119 81 -142 183 -158 153 -24 273 95 252 249 -7 55 -66 221 -219 619 -16 41
-65 172 -109 290 -43 118 -84 224 -89 235 -5 11 -74 196 -154 410 -80 215
-152 408 -160 430 -77 197 -576 1541 -576 1549 0 6 23 36 51 66 181 197 254
365 252 575 -2 229 -39 382 -124 516 -56 88 -219 246 -307 299 -40 23 -109 55
-154 71 l-81 28 -1 488 -1 489 -26 49 c-43 85 -139 131 -236 114z m178 -1588
c189 -71 312 -248 303 -436 -1 -33 -4 -67 -6 -75 -24 -85 -34 -110 -58 -145
-192 -279 -595 -274 -760 10 -34 59 -69 185 -66 235 15 203 154 374 349 424
69 18 169 12 238 -13z"/>
<path d="M5385 3923 c-22 -6 -83 -49 -102 -73 -7 -8 -42 -71 -78 -139 -122
-230 -237 -382 -441 -586 -73 -73 -178 -163 -258 -221 -24 -18 -27 -24 -17
-41 6 -12 37 -95 70 -185 33 -89 65 -177 73 -195 l14 -32 117 84 c238 170 401
323 555 521 296 379 407 629 339 761 -44 83 -168 131 -272 106z"/>
<path d="M2786 2524 c-8 -8 -19 -29 -25 -47 -5 -18 -26 -77 -46 -132 -60 -160
-83 -229 -79 -236 2 -4 27 -9 56 -13 29 -4 85 -13 125 -21 130 -27 397 -36
623 -22 93 6 131 11 245 32 17 3 51 8 76 11 43 6 45 8 41 33 -2 14 -28 89 -57
166 -28 77 -60 161 -69 187 -10 26 -21 50 -24 52 -4 2 -32 0 -62 -5 -81 -13
-304 -31 -405 -32 -58 -1 -212 12 -270 22 -111 20 -114 21 -129 5z"/>
</g>
</svg>
