<?xml version="1.0" encoding="UTF-8"?>
<!DOCTYPE svg PUBLIC "-//W3C//DTD SVG 1.1//EN" "http://www.w3.org/Graphics/SVG/1.1/DTD/svg11.dtd">
<!-- Creator: CorelDRAW 2018 -->
<svg xmlns="http://www.w3.org/2000/svg" xml:space="preserve" width="80mm" height="80mm" version="1.1" style="shape-rendering:geometricPrecision; text-rendering:geometricPrecision; image-rendering:optimizeQuality; fill-rule:evenodd; clip-rule:evenodd"
viewBox="0 0 8000 8000"
 xmlns:xlink="http://www.w3.org/1999/xlink">
 <defs>
  <style type="text/css">
   <![CDATA[
    .fil0 {fill:white}
   ]]>
  </style>
 </defs>
 <g id="Слой_x0020_1">
  <metadata id="CorelCorpID_0Corel-Layer"/>
  <path class="fil0" d="M4302.3 6647.2c32.18,-198.07 99.57,-345 332.39,-356.78 -70.03,56.51 -145.34,86.73 -196.28,146.69 -38.27,45.04 -90.53,143.33 -136.11,210.09zm-299.68 -30.95c-32.58,-38.64 -44.38,-60.11 -79.45,-113.82 -17.17,-26.24 -49.78,-72.7 -67.51,-90.21 -33.56,-33.15 -134.95,-97.88 -195.56,-139.06 210.72,17.14 314.52,132.47 342.52,343.09zm22.76 1321.33l282.6 0 -1.19 -875.94c128.76,-66.45 90.25,-45.73 120.51,-210.37 57.06,-310.48 473.33,-355.59 459.92,17.36 217.31,-90.47 195.18,-374.74 -145.99,-434.72 24.14,-22.41 10.61,-18.02 50.25,-39.4l123.99 -34.78c133.57,-19.65 468.03,34.85 345.2,236.02 -116.93,0.26 9.23,5.56 -71.63,-31.86 -26.65,-12.33 25.86,-38.89 -71.51,-6.56 -155.29,133.66 407.75,321.28 368.67,-167.21l-173.02 -130.11c272.22,-15.01 537.24,-6.75 809.58,-2.23 539.84,8.98 750.69,189.31 962.89,174.9l491.47 51.26c140.72,20.38 25.49,-1.91 116.2,-19.24 91.44,-17.48 209.5,30.07 306.68,33.9 -113.41,-105.94 -249.67,-190.82 -356.96,-303.82 105.81,-92.95 252.5,-161.85 345.35,-278.99 -101.27,11.77 -199.33,39.61 -292.27,24.57 -68.53,-11.08 17.98,-32.17 -137.15,-15.85l-393.85 31.86c-157.1,26.12 -63.4,-37.26 -229.11,7.54 -144.71,39.11 -357.37,133.91 -494.61,140.72 -301.6,15 -1660.53,-0.22 -1789.38,-64.98 -162.35,-81.61 -348.9,-52.42 -392.72,-236.02 -17.86,-74.77 -12.75,-493.51 -5.56,-586.87 86.95,17.61 91.32,53.43 170.73,91.13 -20.46,-100.42 -96.77,-149.51 -149.45,-210.47 48.85,-202.34 142.48,-150.58 237.53,-233.64l109.18 -128.19c163.82,-127.19 230.96,-411.46 662.2,-493.45l173.18 241.45c31.82,-173.62 -16.33,-234.26 -54.09,-373.29 99.98,89.21 131.9,245 162.41,377.15 60.74,-57.41 79.26,-122.33 78.16,-212.48 -1.22,-97.56 -25.14,-171.67 -36.41,-265.08 187.68,77.69 144.55,179.58 244.25,228.83l15.22 -226.51 84.22 116.61c115.42,-177.92 -36.82,-411.65 -95.93,-551.46 28.22,27.88 3.8,-0.78 42.47,45.96 83.44,100.73 114.04,240.76 205.26,332.7l-33.46 -289.73c35.63,55.15 36.91,79.2 55.43,154.6l57.48 137.04c2.16,-152.08 1.57,-309.78 -35.88,-450.47 -29.63,-111.4 -102.08,-232.57 -117.56,-335.69 89.28,96.91 136.02,245.07 187.87,400.48l65.89 -110.06c22.32,125.5 49.94,195.5 66.23,350.5 150.39,-143.07 206.89,-662.23 216.78,-766.04 0.82,-8.5 5.02,-10.51 7.94,-15.53 38.3,156.22 28.03,336.84 15.86,498.66 -10.24,136.04 -90.66,323.25 -42.35,432.55 181.28,-88.33 258.4,-484.94 286.18,-729.75 46.49,-409.92 -46.14,-559.78 -88.02,-888.15 24.18,96.74 89.53,201.99 128.08,355.65 38.98,155.44 40.52,286.87 63.25,440.34 87.95,-51.89 75.11,-105.16 84.12,-218.79 19.31,-242.99 -39.42,-487.14 -70.56,-713.68 239.72,408.88 276.29,696.98 295.97,1239.49 168,-118.56 119.25,-584.32 92.1,-788.61 -51.39,-386.41 -201.99,-714.87 -407.35,-1023.75 -46.27,-69.62 -158.08,-208.3 -217.09,-261.73 -159.62,-144.61 -333.27,-271.33 -611.98,-340.52 -592.95,-147.18 -1122.5,68.09 -1408.56,402.45 -326.7,381.89 -369.64,1214.98 -585.01,1292.26 -186.71,15.98 -447.12,-175.84 -502.83,-310.57 -210.16,-508.42 1.22,-1627.78 -758.76,-1687.17 129.48,-75.15 214.01,-86.51 276.17,-228.36 56.66,-129.24 102.01,-305.49 23.7,-439.02 -146.88,53.8 -62.6,188.49 -152.5,143.82 -4.08,-2.04 -40.43,-28.53 -50.91,-34.81 -17.01,132.56 -4.11,126.13 -101.89,162.23l-33.37 -216.91c-72.7,54.43 -27.91,21.79 -67.74,78.79 -17.89,25.58 -15.54,24.2 -34.37,47.71l-28.97 27.91c-53.71,-43.92 -93.77,-163.57 -168.57,-202.53l-116.17 355.37c-69.4,-28.51 -39.11,-16.48 -78.41,-84.79 -18.37,-31.92 -9.48,-21.5 -30.83,-51.51 -2.57,-3.61 -12.62,-5.05 -14.6,-14.44 -1.97,-9.45 -10.23,-9.23 -15.6,-13.59 -26.9,33.96 -17.86,2.04 -32.99,61.87 -20.18,79.95 5.78,111.18 -11.08,199.11l-142.19 11.3c-0.22,97.56 36.25,131.55 73.13,193.14l-120.53 20.87c-6.41,115.17 11.2,101.93 74.74,153.12 -55.78,112.13 -60.62,126.28 112.94,189.88l-89.78 162.29c447.81,-167.12 -6.15,421.88 410.77,544.86 -40.24,539.06 -669.86,844.83 -290.45,1564.35 91,172.58 315.28,418.93 470.22,538.4 66.42,51.2 119.69,99.85 191.07,153.59 446.52,336.03 824.24,418.36 1087.13,965.36l-228.05 126.35c-82.05,35.09 -156.79,72.95 -226.1,118.59 -138.21,91 -203.69,298.58 -6.37,424.08l59.07 -293.15 153 228.61c87.17,-127.79 -126.88,-283.58 300.78,-348.55 -0.57,135.32 18.67,396.33 1.72,514.67 -21.16,147.72 -112.66,197.19 -275.88,214.89 -121.67,13.22 -112.63,-8.88 -232.85,29.29 -194.75,61.84 -951.56,10.07 -1198.75,6.34 -277.21,-4.14 -298.93,-28.16 -426.62,-37.39 -174.12,-12.58 -119.6,72.26 -409.83,-16.45 -124.62,-38.07 -101.99,9.17 -180.34,28.79 -70.69,17.7 -156,6.03 -230.71,8.38 51.76,-108.36 90.21,-68.96 142.38,-226.38l-1226.81 295.78 1236.2 300.88c-56.31,-137.15 -90.94,-119.19 -146.34,-211.95 122.14,-3.99 161.09,-14.53 267.66,25.87 168.94,64.03 237.03,-63.85 458.2,-3.99 146.43,39.61 50.44,19.62 178.92,-3.36 154.85,-27.68 863.95,3.52 1035.74,31.11 -155.85,11.33 -297.6,184.79 -160.31,344.66 153.78,179.02 449.82,57.79 312.65,-50.48 -101.08,-33.43 -49.82,18.96 -120.66,45.05 -115.9,-137.77 44.6,-233.67 173.3,-243.37 187.71,-14.09 246.16,56.91 353.98,82.34 -347.8,75.24 -373.91,194.21 -202.46,443.79 4.83,-5.78 10.14,-13.94 12.46,-18.9l36.13 -129.32c42.56,-140.25 221.11,-142.07 329.31,-69.72 212.01,141.82 11.8,290.61 253.13,427.18l7.47 876.13z"/>
 </g>
</svg>
