<?xml version="1.0" encoding="UTF-8"?>
<!DOCTYPE svg PUBLIC "-//W3C//DTD SVG 1.1//EN" "http://www.w3.org/Graphics/SVG/1.1/DTD/svg11.dtd">
<!-- Creator: CorelDRAW 2018 -->
<svg xmlns="http://www.w3.org/2000/svg" xml:space="preserve" width="185mm" height="185mm" version="1.1" style="shape-rendering:geometricPrecision; text-rendering:geometricPrecision; image-rendering:optimizeQuality; fill-rule:evenodd; clip-rule:evenodd"
viewBox="0 0 18500 18500"
 xmlns:xlink="http://www.w3.org/1999/xlink">
 <defs>
  <style type="text/css">
   <![CDATA[
    .str0 {stroke:white;stroke-width:150;stroke-miterlimit:2.61313}
    .fil0 {fill:white}
   ]]>
  </style>
 </defs>
 <g id="Слой_x0020_1">
  <metadata id="CorelCorpID_0Corel-Layer"/>
  <g id="_1630780064">
   <path class="fil0 str0" d="M16505.17 9368.36c37.7,1569.11 -643.52,3143.69 -1348.34,4126.7 -2779.26,3876.38 -8245.26,3800.81 -11065.14,882.42 -3038.58,-3144.74 -2858.26,-8272.69 1004.68,-11087.41 778.33,-567.13 2696.78,-1416.81 4027.05,-1280.08 93.01,862.99 16.85,4262.5 16.87,5565.14 0,281.66 -115.11,1541.14 106.68,1726.45 340.94,186.21 6331.86,67.48 7258.2,66.78zm-7140.48 -7599.66c-6183.91,-382.48 -10396.64,7754.14 -5421.76,12758.17 4612.81,4639.84 12786.79,1594.78 12807.08,-5390.21l-7378.16 -3.02 -7.16 -7364.94z"/>
   <path class="fil0 str0" d="M10166.63 11106.86c-231.34,-513.38 32.69,-376.27 -280.84,-500.13 -191.11,261.21 428.76,1085.5 530.67,1184.5 1043.29,1013.55 2931.85,694.86 3474.96,-812.44 -356.39,-48.92 -58.86,-105.51 -412.98,403.05 -139.06,199.71 -243.4,291.63 -436.65,432.96 -1121.41,820.17 -2467.17,197.49 -2875.16,-707.94z"/>
   <path class="fil0 str0" d="M7873 10608.59c-152.19,761.19 -867.11,1431.94 -1798.26,1458.73 -894.42,25.71 -1617.71,-556.16 -1908.32,-1286.43 -120.35,97.94 -283.6,-79.73 130.97,583.8 796.13,1274.21 3297.52,1310.16 3795.43,-832.61 -238.45,7.85 -65.78,-66.27 -219.82,76.51z"/>
   <path class="fil0 str0" d="M7873 10608.59c154.04,-142.78 -18.63,-68.66 219.82,-76.51 -71.33,-102.43 138.58,-84.46 -149.28,-79.22l-70.54 155.73z"/>
  </g>
 </g>
</svg>
