<?xml version="1.0" encoding="UTF-8"?>
<!DOCTYPE svg PUBLIC "-//W3C//DTD SVG 1.1//EN" "http://www.w3.org/Graphics/SVG/1.1/DTD/svg11.dtd">
<!-- Creator: CorelDRAW 2018 -->
<svg xmlns="http://www.w3.org/2000/svg" xml:space="preserve" width="185mm" height="185mm" version="1.1" style="shape-rendering:geometricPrecision; text-rendering:geometricPrecision; image-rendering:optimizeQuality; fill-rule:evenodd; clip-rule:evenodd"
viewBox="0 0 18500 18500"
 xmlns:xlink="http://www.w3.org/1999/xlink">
 <defs>
  <style type="text/css">
   <![CDATA[
    .fil1 {fill:none}
    .fil2 {fill:#FEFEFE}
    .fil0 {fill:#BD2F22}
   ]]>
  </style>
 </defs>
 <g id="Слой_x0020_1">
  <metadata id="CorelCorpID_0Corel-Layer"/>
  <g id="_1635705136">
   <g>
    <g>
     <path class="fil0" d="M6315.15 5157.31c-135.55,-9.97 -268.87,-28.75 -405.12,-33.52 -853.41,-27.55 -1704.67,487.2 -1851.49,1370.16 -59,526.06 186.78,1071.9 752.58,1162.96 253.06,24.29 431.27,-69.97 658.39,-156.77 320.65,-109.6 628.95,-66.54 907.52,127.96 56.29,40.43 224.58,82.37 139.97,-49.68 -53.59,-82.23 -133.81,-154.85 -214.15,-210.51 -350.13,-238.26 -772.49,-273.28 -1153.61,-80.11 -244.76,138.38 -487.84,82.96 -676.46,-120.22 -495.88,-593.73 18.78,-1463.07 678.65,-1633.26 60.43,-15.08 215.31,-46.46 108.57,53.34 -182.76,174.39 -406.78,324.85 -425.66,603.24 -14.68,294.89 239.84,53.17 345.02,-11.02 563.66,-338.97 1379.37,10.9 1866.78,338.62 445.24,311.23 739.85,694.37 1036.63,1139.96 53.81,86.06 295.03,519.97 432.7,459.63 84.23,-27.22 120.17,-192.29 132.2,-265.34 83.69,-537.91 -70.13,-1096.18 -323.48,-1568.89 -113.24,-208.57 -125.02,78.01 -138.56,161.4 -30.58,212.85 -131.85,-48.87 -157.02,-110.49 -281.44,-691.88 -846.99,-1170.82 -1565.06,-1379.71 -807.82,-213.01 -1747.06,-13.55 -2265.35,680.71 -43.67,59.11 -149.35,223.76 -13.87,75.74 519.1,-560.47 1273.84,-842.21 2027.73,-647.39 63.43,17.07 336.15,110.26 103.09,93.19z"/>
     <path class="fil0" d="M8229.01 6757.49c6.87,85.27 17.88,320.55 -128.75,284.86 -52.74,-12.15 -161.28,-426.09 -186.42,-504.09 -345.01,-1060.95 -1778.23,-1742.89 -2809.34,-1295.75 -28.9,12.61 -133.27,55.59 -148.74,80.19 -4.58,7.37 57.6,-17.13 59.27,-17.77 516.88,-194.1 1169.65,-212.66 1659.25,71.01 97.15,57.16 287.01,199.42 53.19,116.2 -428.95,-150.38 -792.42,-243.25 -1261.41,-149.95 -698.09,152.96 -1366.41,774.69 -1192.2,1549.31 102.05,357.04 435.78,663.03 818.91,486.39 39.22,-21.62 76.05,-46.08 112.84,-69.66 446.98,-242.26 853.6,-103.29 1258.17,121.75 48.46,27.37 189.17,138.41 81.21,11.8 -216.63,-251.57 -671.35,-511.37 -1008.88,-426.74 -127.81,33.56 111.54,26.52 17.04,48.4 -11.9,2.79 -58.26,11.34 -55.82,28.94 4.55,31.88 -142.83,67.65 -171.26,79.16 -274.11,119.26 -414.55,296.42 -726.63,110.5 -369.93,-253.43 -370.96,-737.62 -199.87,-1110.81 465.41,-899.78 1690.42,-1015.79 2471.68,-481.98 62.05,43.36 483.21,382.31 225.39,418.85 -34.31,5.41 -114.57,0.25 -70.11,51.68 54.24,62.7 657.13,523.31 614.27,186.63 -22.85,-205 -173.6,-414.98 -292.73,-575.86 -4.4,-6.11 128.52,127.05 142.52,143.37 184.8,219.64 309.96,450.29 299.8,741.38 -4.33,221.68 -15.83,296.97 97.57,485.98 51.8,87.43 285.08,518.65 394.09,454.46 109.57,-55.91 100.6,-382.5 83.67,-480.08 -12.73,-74 -137.01,-357.39 -136.71,-358.17z"/>
     <path class="fil0" d="M7493.39 5773.46c0,0 0.55,0.54 0.58,0.57 331.73,314.27 732.35,968.03 657.5,1451.62 -49.46,346.42 -232.95,11.84 -290.03,-110.49 -18.68,-39.3 -99.16,-270.59 -159.05,-304.69 -163.45,-96.01 -350.41,-175.83 -522.42,-255.89 -7.08,-3.15 -511.12,-242.63 -519.09,-224.78 -3.92,8.62 313.72,249.56 340.48,271.75 382.55,324.18 607.12,660.65 857.19,1100.13 90.53,171.77 290.96,563.56 424.33,178.77 10.2,-27.61 19.39,-59.75 27.38,-96.19 203.5,-890.64 -547.84,-2070.99 -1365.4,-2432.34 -21.57,-9.65 7.6,8.43 11.23,10.69 192.43,118.83 375.86,249.44 536.29,409.87 16.39,16.39 46.69,42.63 1.01,0.98z"/>
     <path class="fil0" d="M6716.38 7164.53c-102.03,-217.09 -237.28,-419.99 -431.52,-565.01 -186.62,-134.44 -99.21,-189.93 74.77,-126.73 162.52,60.53 298.73,170.15 429.1,281.47 36.76,31.87 83.22,68.52 38.39,-6.02 -291.29,-480.68 -1039.6,-770.32 -1535.98,-455.61 -190.5,129.93 -300.15,337.3 -3.74,400.64 103.4,22.27 205.63,38.2 307.94,67.21 425.68,134.7 803.84,527.02 841.09,987.35 0.03,0.4 -23.4,-89.18 -33.92,-124.67 -162.21,-492.87 -496.11,-784.83 -1006.87,-862.09 -196.81,-22.22 -488.03,-27.69 -330.13,-314.32 135.27,-212.45 400.27,-307.23 641.91,-321.04 675.27,-21.64 1304.79,526.9 1416.81,1186.7 39.38,267.9 -52.49,49.64 -99.8,-48.83 -9.1,-18.35 -208.49,-377.23 -223.98,-342.93 -4.53,10.85 20.9,33.93 1.2,46.16 -33.19,21.12 107.21,391.82 119.88,438.04 37.23,140.74 66.91,292.53 68.43,438.42 0.12,27.14 -40.15,240.2 -41.09,240.74 -4.16,2.45 -6.83,-90.41 -7.06,-95.85 -18.96,-360.97 -112.71,-668.19 -319.44,-962.07 -1.01,-1.43 64.69,89.98 94.01,138.44z"/>
     <path class="fil0" d="M7767.37 6321.7c167.56,273.85 330.94,644.22 325.65,972.56 -6.41,433.12 -340.49,-182.77 -432.39,-242.14 -38.56,-24.89 -156.09,-74.62 -117.93,22.36 35.79,89.55 -127.15,-78.23 -139.02,-62.27 -7.45,9.98 122.24,184.1 135.87,202.95 116.07,162.09 219.57,339.08 348.42,490.73 248.23,308.88 270.82,-179.48 261.44,-344.2 -37.2,-603.12 -395.83,-1303.19 -902.27,-1640.82 205.47,171.07 380.68,372.75 520.23,600.83z"/>
    </g>
    <g>
     <path class="fil0" d="M8541.97 4770.21c-14.29,114.81 252.98,78.74 313.32,74.98 500.4,-25.46 1090.15,8.56 1449.14,408.46 25.5,28.6 192.07,227.51 187,240.74 -105.27,283.42 -387.89,174.42 -605.22,99.7 -379.55,-117.13 -704.45,-114.16 -1086.42,-40.23 -295.49,57.19 -554.11,488.23 -505.61,771.93 42.52,217.39 297.3,603.88 -122.83,620.97 -364.74,6.25 -599.73,-268.54 -821.54,-514.82 -126.08,-145.37 -284.94,-225.89 -396.86,-385.38 -334.67,-508.17 -256.09,-1255.21 149.67,-1701.69 296.37,-316.01 643.36,-522.59 1064.34,-616.18 222.07,-48.94 -14.4,294.55 -52.28,350.43 -36.24,55.75 -255.93,316.1 -46.77,225.72 99.37,-42.17 195.56,-92.81 295.01,-135.81 377.32,-155.67 967.06,-286.43 1340.52,-49.68 211.58,132.63 -168.26,174.58 -241.96,184.09 -254.16,36.63 -869.22,142.55 -919.51,466.77z"/>
     <path class="fil0" d="M8208.55 3996.63c-99.75,144.11 -193.37,283.11 -265.39,443.42 -71.7,159.6 288.55,-21.26 297.36,-25.56 278.87,-133.85 597.07,-195.04 905.34,-197.33 53.9,0.04 305.08,-20.7 257.1,83.99 -10.08,23.73 -80.08,34.18 -101.13,38.35 -304.11,62.35 -683.54,124.9 -829.29,446.56 -71.82,163.4 66.7,148.81 184.48,164.78 160.4,21.26 319.13,44.04 481.08,39.99 243.16,-4.92 542.11,84.89 755.96,193.09 72.2,37.1 302.67,223.72 223.54,316.52 -55.52,69.02 -27.68,171.61 -147,118.41 -104.35,-45.92 -218.99,-53.68 -328.37,-80.02 -116.58,-27.08 -80.02,-98.21 10.02,-111.07 36.06,-5.17 12.07,-44.04 47.75,-72.04 110.66,-85.77 -117.9,-137.64 -178.84,-159.04 -316.45,-109.09 -610.23,-106.06 -931.58,-3.64 -252.32,82.02 -460.91,-33.46 -653.43,212 -20.16,26.1 -152.85,269.58 -188.58,196.56 -27.96,-59.46 -32.62,-183.33 -14.99,-248.96 105.12,-381.71 422.45,-589.91 697.2,-837.75 16.89,-15.07 189.01,-127.91 86.25,-96.71 -305.31,93.96 -489.81,363.82 -785.47,464.74 -79.02,26.5 -131.53,20.21 -153.11,-69.53 -68.69,-313.29 174.56,-621.67 408.89,-798.78 36.74,-27.7 186.92,-94.75 218.25,-41.2 1.18,1.99 6.99,24.79 3.96,23.22z"/>
     <path class="fil0" d="M7856.85 5579.56c-102.26,228.1 -129.82,508.91 -15.29,737.98 47.02,89.48 179.56,192.21 243.16,55.78 98.14,-220.29 81.5,-438.25 334.79,-545.46 173.76,-73.02 337.74,-84.6 522.89,-97.08 272.23,-15.15 497.24,189.46 674.33,371.34 32.3,33.99 85.05,74.97 66.69,-6.48 -87.12,-392.93 -727.82,-493.73 -1049.17,-483 -253.47,10 -430.59,190.61 -576.45,379.32 -96.55,125.42 -108.37,112.27 -133.71,-25.95 -44.72,-258.04 160.13,-475.04 342.1,-627.12 79.27,-64.84 78.26,-106.33 121.93,-188.74 10.24,-18.62 -39.05,5.22 -41.53,6.28 -202.07,87.67 -372.95,230.72 -487.47,419.34 -1.49,2.48 -2.27,3.79 -2.27,3.79z"/>
     <path class="fil0" d="M7598.53 4373.71c-45.39,51.9 -348.79,395.85 -232.58,450.82 42.32,18.51 201.11,262.76 188.53,308.93 -19.79,74.57 -119.39,216.24 -185.58,254.3 -83.46,47.02 -87.35,274.68 -134.51,297.41 -72.63,34.02 -85.52,-607.98 -85.38,-613.35 4.31,-121.94 31.62,-209.95 87.04,-319.3 118.65,-229.07 259.42,-450.4 505.75,-555.09 -50.82,56.33 -98.55,115.13 -143.27,176.28z"/>
    </g>
    <g>
     <path class="fil0" d="M9759.98 5176.56c-124.34,-304.87 116.13,-623.85 362.98,-780.37 657.68,-400.34 1490.39,8.45 1799.03,654.4 46.19,100.56 99.7,196.05 140.42,299.34 49.01,128.72 78.93,257.38 110.58,390.76 52.02,231.66 90.56,-30.92 97.89,-117.64 41.86,-570.36 -206.77,-1195.21 -673.83,-1540.12 -79.43,-58.65 -354.4,-294.69 -71.98,-244.78 493.89,94.14 904.87,610.62 1096.45,1044.76 67.66,158.93 111.37,317.09 157.47,482.43 43.4,159.28 31.41,-77.96 28.63,-112.79 -41.85,-480.41 -255.3,-920.12 -566.91,-1283.03 -60.39,-69.35 -312.05,-325.3 -48.45,-141.09 405.04,288.74 678.29,693.3 877.71,1142.3 21.81,50.4 116.46,295.52 95.44,85.26 -61.35,-595.35 -469.1,-1200.98 -925.5,-1569.93 -529.45,-412.77 -1184.61,-600.77 -1848.4,-481.96 -716.33,134.07 -1436.85,755.68 -1384.6,1533.51 23.62,302.23 26.52,552.2 164.28,834.99 233.8,456.46 795.98,797.53 1273.44,462.08 144.95,-107.21 278.83,-316.91 191.06,-499.97 -96.9,-192.19 -214.62,-9.74 -315.11,58.1 -231.85,150.81 -458.69,19.26 -560.6,-216.25z"/>
     <path class="fil0" d="M11600.03 3698.9c-513.69,-253.42 -1068.43,-246.15 -1561.58,29.16 -578.64,328.37 -972.33,1094.73 -543.86,1694.59 149.96,203.3 459.9,414 710.46,265.35 157.77,-94.42 -39.93,-87.43 -111.28,-99.67 -95.45,-17.1 -189.36,-52.25 -252.78,-128.45 -177.63,-213.43 -230.56,-541.95 -48.64,-769.83 214.5,-267.56 469.92,-428.85 817.92,-397.36 502.27,45.96 857.8,361.79 1043.14,824.2 188.75,482.74 92.46,1042.93 -184.79,1469.69 -82.24,125.11 -33.28,67.35 33.03,2.22 37.57,-37.08 76.17,-73.44 111.7,-112.69 3.56,-3.96 7.18,-8.06 10.84,-12.26 357.76,-413.72 227.14,-1194.38 -16.38,-1625.99 -240.59,-416.76 -654.46,-622.93 -1119.57,-689.16 -147.24,-21.17 -303.54,41.06 -442.28,82.94 -77.28,23.29 -116.07,1.58 -52.48,-74.85 135.95,-160.05 351.52,-236.68 547.76,-290.85 19.8,-5.34 75.6,-19.88 19.51,-23.99 -612.07,-44.29 -1145.67,541.1 -1087.66,1143.5 0.58,5.62 29.23,294.91 16.66,284.7 -77.75,-62.86 -102.97,-319.65 -100.28,-411.25 19.99,-512.04 396.61,-958.82 863.67,-1138.71 752.04,-279.18 1503.67,34.15 1992.86,632.7 53.55,66.3 116.1,129.32 164.14,199.1 87.86,129.02 -22.47,-72 -37.67,-98.97 -182.77,-321.31 -445.41,-579.73 -771.17,-753.46 -0.84,-0.43 -1.27,-0.66 -1.27,-0.66z"/>
     <path class="fil0" d="M11587.55 3231.7c0.25,-0.42 2.22,4.16 2.28,4.38 5.65,33.23 -230.99,-13.91 -240.84,-15.43 -696.98,-103.51 -1514.94,106.44 -1900.25,742.56 -28.09,47.25 -124.23,216.35 -13.28,98.8 125.48,-133.49 235.29,-259.66 385.33,-370.62 824.2,-593.81 1713.91,-292.33 2440.53,245.6 148.36,111.83 275.18,247.69 386.33,396.07 152.39,206.65 276.37,437.57 390.55,666.97 43.12,87.03 20.75,-33.44 15.46,-60.18 -134.4,-667.53 -699.23,-1443.25 -1360.04,-1683.29 -142.26,-51.61 -206.71,-85.03 -106.07,-24.86z"/>
     <path class="fil0" d="M12436.57 5324.21c17.59,286.12 -22.9,579.32 -120.95,848.76 -77.46,209.46 -44.07,64.12 -27.67,-34.91 95.85,-596.99 9.04,-1217.83 -424.62,-1670.59 -19.96,-20.54 -100.99,-105.52 -134.55,-101.43 -55.87,7.68 91.71,237.88 -17.72,152.24 -30.17,-23.29 -3.71,25.84 0.35,33.75 29.63,57.67 254.44,512.17 209.08,542.41 -4.41,2.64 -45.84,-94.9 -48.51,-100.84 -138.7,-303.43 -312.79,-483.11 -557.69,-699.49 -11.55,-10.28 -33.78,-25.26 -13.33,-36.85 57.22,-32.07 -134.44,-190.09 -159.38,-219.82 -42.63,-51.28 102.52,-18.69 112.83,-16.39 446.85,103.91 774.34,484.13 969.73,879.07 56.38,115.19 -5.3,-78.82 -15.46,-113.68 -111.82,-382.48 -471.81,-717.31 -816.16,-894.64 -1.9,-0.96 -130.04,-60.11 -81.32,-51.42 124.87,22.55 289.33,98.36 394.76,175.67 414.95,306.87 672.06,791.46 729.78,1300.68 32.44,279.67 664.75,1263.52 0.83,7.48z"/>
     <path class="fil0" d="M12356.12 3979.35c8.37,18.56 140.27,206.11 45.54,112.16 -172.22,-169.39 -333.09,-322.33 -542.23,-449.93 -474.59,-280.31 -1149.9,-394.58 -1656.72,-123.67 -45.7,24.69 39.97,-3.07 47.26,-5.14 603,-171.36 1141.21,-79.15 1651.53,286.54 45.85,33.26 90.83,67.65 135.53,102.43 151.15,118.68 254.28,177.69 381.1,320.96 165.54,190.23 281.85,397.38 380.6,627.44 65.53,154.99 24.78,11.54 49.31,-3.86 13.76,-7.03 -3.52,-50.96 -6.62,-61.37 -86.56,-289.72 -245.63,-609.99 -485.3,-805.56z"/>
    </g>
    <g>
     <path class="fil0" d="M12540.67 6699.57c221.22,116.11 -25.69,164.9 -144.71,169.71 -435.54,8.65 -805.8,-223.22 -1141.76,-473.51 -29.47,-22.39 -329.53,-210.85 -328.75,-208.55 307.91,918.43 1354.84,1409.18 2270.8,1118.08 204.79,-69.87 421.05,-184.84 563.9,-352.69 467.76,-549.62 613.02,-1064.91 329.46,-1760.81 -133.33,-327.39 -551.82,-223.59 -730.47,10.67 -103.3,142.32 -171.81,437.7 -402.75,236.99 -320.87,-295.3 -362.92,-631.4 -347.27,-1046.75 14.28,-217.24 1.17,-252.99 -213.66,-231.1 -122.66,7.05 -223.21,48.3 -331.44,101.29 -48.62,22.95 -63.12,59.96 -87.47,108.04 -199.47,398.29 -163.09,813.52 7.11,1214.07 113.79,258.01 -103.93,95.97 -196.31,9.72 -127.39,-124.34 -214.15,-265.13 -316.59,-408.25 -134.65,-197.18 -242.47,-184.43 -227.21,66.31 18.33,274.49 152.78,530.89 320.51,743.1 265.64,325.11 613.9,509.59 976.61,703.68z"/>
     <path class="fil0" d="M12118.91 4603.11c-80.72,299.49 -69.38,617.32 42.45,907.07 11.46,29.71 93.58,314.74 4.17,257.7 -220.06,-142.49 -366.28,-253.69 -504.19,-484.58 -3.89,-6.67 -101.81,-203.87 -105.15,-147.26 -1.12,19.01 -2.8,37.93 -4.9,56.78 -40.79,361.55 378.35,836.39 636.25,1057.37 129.13,109.08 275.21,185.57 406.44,288.65 58.32,45.8 54.77,59.83 7.51,109.84 -196.74,195.18 -593.28,1.77 -796.35,-101.95 -171.13,-88.83 -311.13,-219.16 -448.39,-352.2 -9.97,-9.77 -130.06,-89.79 -142.2,-72.02 -25.18,34.84 120.4,293.08 146.95,340.93 150.78,271.8 517.14,491.51 799.78,587.34 216.37,72 -51.08,-71.05 -102.47,-99.42 -41.39,-22.89 -91.17,-45.16 -125.13,-78.86 -18.7,-18.63 -249.64,-227.79 -200.87,-215.9 22.63,5.3 46.9,18.45 67.67,28.42 359.15,168.92 814.83,242.04 1196.29,119.66 206.98,-68.31 147.16,-228.07 285.26,-350.61 35.8,-32.5 270.01,-215.98 224.67,-271.14 -9.77,-11.53 -33.69,-6.94 -46.33,-4.28 -194.46,40.08 -398.86,107.15 -597.02,109.98 -206.76,-0.7 -441.82,-42.92 -613.99,-165.1 -37.16,-26.78 -258.94,-237.97 -255.01,-274.91 1.13,-11.49 195.79,124.72 213.33,136.06 75.87,47.94 162.73,99.42 252.38,114.27 282.12,43.34 -41.54,-428.93 -71.41,-489.46 -163.12,-340.3 -196.99,-788.19 -121.5,-1157.64 20.78,-101.49 -60.22,-16.82 -83.9,19.31 -9.12,13.87 -144.5,281.31 -64.34,131.95z"/>
     <path class="fil0" d="M13474.29 3881.58c-0.78,-2.32 -130.21,61.59 -137.26,65.28 -307,163.8 -614.4,445.92 -724.49,783.9 -78.71,247.81 -133.42,515.06 -125.64,776.11 6.29,207.57 337.15,485.6 492.88,269.39 25.93,-39.71 61.82,-120.5 109.93,-137.33 50.08,-17.4 -119.89,-260.33 -130.49,-278.84 -258.9,-480.05 109.99,-1008.04 542.55,-1225.55 24.63,-11.95 289.6,-108.3 255.7,-147.32 -37.16,-46.11 10.12,-93.95 40.19,-127.86 123.14,-133.33 -427.41,56.4 -323.37,22.22z"/>
     <path class="fil0" d="M13321.36 5538.35c54.96,-56.25 78.11,-127.38 125.91,-187.88 148.64,-178.62 342.2,-125.67 443,58.82 215.64,406.39 -136.91,964.56 -511.85,1142.79 -437.9,202.45 -1151.51,17.27 -1447.11,-348.3 -99.68,-124.06 43.68,-32.23 87.54,-2.35 340.77,228.22 655.7,439.33 1094.16,340.97 375.83,-91.24 830.28,-515.59 696.3,-931.53 -35.23,-101.39 -58.11,-115.46 -146.14,-79.37 -19.64,8.37 -32.77,22.07 -43.8,40.12 -54.58,89.26 -167.34,429.16 -324.76,316.15 -57.71,-40.67 -143.72,-34.7 -86.77,-101.85 57.24,-70.38 94.59,-158.37 113.3,-246.58 0.14,-0.66 0.22,-0.99 0.22,-0.99z"/>
     <path class="fil0" d="M13571.6 4132.86c-189.23,69.88 -393.13,224.81 -550.55,347.08 -263.61,210.46 -461.88,574.28 -391.4,920.79 17.79,84.7 132.15,170.9 145.01,33.38 8.98,-98.94 142.41,31.36 110.85,-137.39 -18.27,-104.93 -41.36,-222.64 -21.62,-329.58 84.63,-427.16 566.33,-735.84 974.5,-808.82 45.02,-7.81 114.79,-40.89 43,-76.78 -105.25,5.25 -208.46,22.05 -309.79,51.32z"/>
    </g>
    <g>
     <path class="fil0" d="M12884.01 6913.58c-224.26,-146.11 -404.41,-265.9 -672.88,-327.98 -801.82,-164.3 -1538.39,328.09 -1844.7,1057.82 -263.98,655.09 -186.68,1573.69 343.16,2084.72 169.23,162.84 28.32,-113.77 3.41,-170.1 -290.63,-685.72 -317.47,-1438.13 138.57,-2056.17 106.88,-142.81 273.96,-275.19 446.88,-319.81 292.04,-69.03 71.26,221.62 13.72,323.85 -111.14,203.38 -202.74,444.92 -190.34,680.52 12.79,219.35 102.32,44.87 162.74,-41.01 35.91,-48.41 332.37,-404.66 383.97,-217.18 18.52,69.12 -1.35,172.87 -6.12,243.92 -32.12,701.38 744.22,1242.4 1400.32,1052.58 135.03,-40.54 184.62,-98.96 264.15,-206.31 27.77,-35.88 285.11,-432.9 238.3,-459.32 -20.12,-12.35 -60.51,-12.93 -83.59,-13.57 -70.44,-3.71 -714.67,1.19 -498.57,-136.54 78.28,-50.74 155.82,-93.58 229.44,-152.44 621.49,-522.63 395.85,-1487.33 -286.31,-1838.62 -70.87,-35.74 -315.7,-127.79 -157.57,32.03 125.69,129.81 259.28,273.93 310.55,452.11 53.89,198.28 -121.05,60.89 -195.13,11.5z"/>
     <path class="fil0" d="M13148.32 8653.62c-178.15,-1.36 -356.22,-45 -480.94,-179.31 -61.25,-65.96 194.99,-168.74 223.7,-176.98 517.75,-153.68 656.77,-898.87 386.25,-1311.13 -11.95,-17.98 -124.81,-135.99 -144.49,-130.27 -21,5.55 227.34,575.21 -27.67,438.53 -75.8,-42.28 -132.98,-118.65 -193.23,-179.57 -399.72,-397.82 -851.47,-520.29 -1398.38,-326.98 -154.33,56.25 -287.56,119.45 -419.42,219.72 -729.46,563.09 -858.77,1602.53 -368.62,2357.84 50.39,76.99 104.04,153.07 164.14,222.68 101.73,117.77 13.86,-23.62 -9.47,-69.14 -119.74,-236.76 -157.55,-497.26 -260.12,-738.81 -31.14,-73.5 -20.98,14.09 -37.35,-38.91 -51.05,-167.66 -88.2,-327.37 -74.23,-504.18 56.98,-656.83 507.43,-1298.46 1184.03,-1419.78 384.28,-63.7 979.7,52.97 1106.74,478.47 50.54,178.43 -148.49,135.99 -124.47,269.32 10.51,62.98 23.86,114.01 24.15,178.74 -0.76,165.81 123.59,261.8 286.82,192.46 25.62,-11.45 165.54,-115.25 181.47,-100.49 29.91,26.94 111.25,-60.59 76.08,20.66 -129.02,292.18 -498.54,319.5 -775.37,328.7 -135.79,4.78 -187.2,77.83 -163.71,213.87 73.69,373.11 510.31,478.09 830.9,382.86 81.06,-24.22 116.5,-111.04 13.6,-128.19 -0.27,-0.08 -0.41,-0.11 -0.41,-0.11z"/>
     <path class="fil0" d="M13543.38 7407.23c-84.52,-53.69 -146.47,-751.08 2.26,11.19 94.56,494.74 -176.96,1023.89 -705.46,1094.41 -158.47,19.77 -472.84,-85.75 -412.92,-291.21 11.18,-31.67 80.87,-93.51 66.73,-119.27 -68.03,-127.81 -77.84,-326.81 -284.63,-238.3 -116.09,56.61 -166.05,153.74 -212.61,266.38 -54.15,134.5 17.41,285.94 108.06,390.64 329.11,367.38 933.29,287.94 1274.49,-16.53 320.46,-296.16 460.97,-833.77 299.61,-1244.31 -2.52,-6.32 -36.25,-90.32 -52.07,-72.43 -40.36,38.92 -239.24,-257.91 -188.29,-120.27 40.8,111.2 81.07,217.96 103.84,334.68 6.15,30.94 8.15,29.29 0.99,5.02z"/>
     <path class="fil0" d="M11758.33 8018.63c-117.22,81.97 -154.79,207.39 -191.64,338.26 -23.19,87.85 -78.08,-82.26 -83.68,-105.88 -51.17,-220.42 4.11,-426.05 62,-637.28 7.03,-26.23 21.26,-72.19 -24.16,-52.11 -212.84,93.52 -300.66,383.08 -381.14,577.58 -129.43,314.99 33.95,774.34 201.49,1047.88 66.59,106.52 67.77,120 -12.23,18.57 -204.27,-262.03 -321.17,-608.32 -299.83,-941.22 26.41,-364.21 351.97,-896.65 723.55,-965.26 202.89,-34.67 46.77,164.94 4.07,236.51 -7.52,12.74 -136.4,238.23 -50.8,176.19 33.52,-24.12 70.45,-28.53 107.09,-44.95 114.11,-50.64 405.41,-185.75 517.68,-84.54 32.91,30.26 -86.81,83.62 -109.46,102.31 -67.57,55.94 -129.51,51.52 -208.36,91.18 -108.71,57.04 -190.77,137.54 -254.05,241.88 -0.35,0.59 -0.53,0.88 -0.53,0.88z"/>
     <path class="fil0" d="M13499.72 7651.96c11.81,352.42 -114.89,647.35 -464.9,787.31 -283.34,103.84 -685.26,30.31 -724.78,-320.62 -2.43,-26.88 -9.86,-55.62 -38.5,-65.84 -125.88,-43.57 -73.35,335.38 -37.04,397.25 65.31,108.93 229.88,167.05 350.85,175.11 749.13,46.24 1179.05,-692.77 912.85,-1346.03 -41.15,-100.6 -72.83,-40.1 -51.32,26.4 35.73,112.56 53.8,228.38 52.84,346.42z"/>
    </g>
    <g>
     <path class="fil0" d="M11934.24 10961.92c16.84,-79.07 46.9,-309.99 146.36,-128.19 52.65,102.69 60.44,224.67 50.74,337.62 -90.55,815.71 -1083.43,1201.18 -1806.98,1040.04 -157.99,-35.18 -32.01,3.26 165.37,90.16 1075.83,473.46 2403.01,-689.47 1923.66,-1818.78 -248.13,-545.55 -898.4,-800.18 -1411.47,-426.64 -92.53,69.73 -259.4,250.86 -271.51,11.86 -5.24,-219.58 142.63,-383.33 280.83,-534.14 58.09,-61.66 27.9,-68.56 -42.24,-48.49 -290.79,84.46 -460.71,314.38 -617.54,553.76 -106.55,161.25 -64.36,-121.31 -52.28,-169.52 106.42,-394.21 427.81,-694.34 793.24,-853.93 619.99,-249.82 1177.48,-102.1 1733.05,211.17 75.29,43.73 111.56,51.57 35.82,-30.28 -766.16,-821.53 -2080.95,-805.94 -2765.3,128.38 -325.64,465.87 -368.22,965 -166.55,1488.21 30.71,76.85 132.63,287.84 -39.95,159.75 -26.62,-20.86 -213.24,-227.24 -232.87,-187.79 -47.41,80.18 13.99,241.78 47.3,316.36 406.96,895.18 1714.8,994.67 2155.43,80.01 32.6,-71.44 56.92,-143.05 74.89,-219.56z"/>
     <path class="fil0" d="M11445.89 8873.76c-842.72,73.37 -1508.12,764.86 -1401.12,1612.94 18.72,136.18 60.5,250.78 104.56,378.77 13.38,39.02 -86.81,82.24 -120.89,65.5 -21.96,-11.36 -150.66,-127.47 -154.12,-122.83 -13.77,15.42 60.32,168.25 72.79,193.47 364.1,732.94 1558.09,787.19 1838.47,-35.21 22.02,-66.88 65.49,-332.43 194.68,-203.24 147.56,156.36 63.95,454.32 -16.45,624.24 -234.99,484.53 -754.66,658.89 -1260.61,662.09 -162.68,0.34 14.16,48.74 61.88,80.92 24.34,16.72 41.48,26.31 71.2,32.3 340.59,67.71 976.24,-144.84 1165.57,-440.79 0.98,-1.56 9.88,-14.89 3.39,-15.03 -56.87,1.6 -179.65,163.34 -227.37,142.62 -13.52,-5.37 -249.85,119.4 -121.74,20.21 332.29,-261.67 550.06,-620.49 470.34,-1058.87 -42.02,-203.34 -163.89,-410.52 -360.87,-497.46 -277.04,-119.64 -168.69,194.86 -245.12,313.18 -66.06,106.87 -128.72,216.2 -146.73,341.48 -9.2,55.44 -61.28,116.67 -57.32,167.1 9.19,150.51 -149.62,282.35 -283.93,317.23 -144.55,36.13 -332.51,-0.72 -469.51,-54.46 -229.98,-91.99 50.44,-41.65 115.37,-42.28 119.42,-2.05 10.68,-64.59 -31.98,-92.73 -599.4,-401.89 -697.21,-1172.58 -259.79,-1749.51 426.1,-541.35 1151.52,-697.3 1790.48,-501.36 117.33,36.24 -64.51,-39.62 -82.45,-46.38 -202.12,-75.15 -431.88,-108.02 -647.38,-91.98 -0.91,0.05 -1.35,0.08 -1.35,0.08z"/>
     <path class="fil0" d="M11815.16 8777.13c0,0 -0.48,-0.01 -1.49,-0.04 -875.83,-33.68 -1724.78,527.68 -1769.01,1447.7 -12.65,396.87 171.06,848.52 549.02,1024.82 69.28,31.58 325.35,74.46 142.74,-47.08 -171.95,-115.09 -307.97,-233.84 -397.17,-425.61 -92.97,-206.39 -92.55,-535.58 -53.02,-749.16 197.9,-995.9 1320.2,-1295.97 2160.25,-915.17 126.1,58.47 236.92,130.34 354.5,202.4 75.76,47.06 13.47,-19.96 -10.01,-43.63 -79.25,-79.36 -162.01,-155.77 -246.18,-230.08 -191.92,-169.93 -473.69,-258.56 -728.82,-264.1 -0.57,-0.04 -0.81,-0.05 -0.81,-0.05z"/>
     <path class="fil0" d="M12006.5 10058.76c17.98,105.48 113.02,201.41 123.91,311.89 0.03,0.37 -118.06,-137.23 -152.98,-170.2 -223.03,-208.58 -608.18,-315.75 -850.9,-77.47 -42.19,42.99 -147.35,228.12 -10.72,147.41 366.94,-210.56 762.34,64.74 758.06,474.15 -13.93,666.35 -789.43,964.27 -1314,613.62 -111.61,-75.67 80.15,23.71 101.61,32.59 421.96,168.98 970.17,29.69 1132.98,-427.78 90.14,-270.43 -18.68,-610.82 -322.21,-676.8 -188.18,-34.5 -316.01,61.43 -382.82,228.93 -61.18,156.91 -163.53,27.9 -183.16,-80.74 -24.22,-169.28 72.08,-315.25 200.54,-415.13 81.58,-61.85 6.4,-13.9 -1.3,-34.55 -21.45,-55.58 -203.42,96.18 -220.83,113.36 -63.93,64.77 -107.77,138.47 -141.03,222.55 -46.44,119.5 -20.23,-37.49 -10.45,-72.97 57.09,-194.4 232.83,-382.54 431.46,-440.73 302.93,-88.48 629.3,26.28 841.18,251.14 0.44,0.49 0.66,0.73 0.66,0.73z"/>
     <path class="fil0" d="M11982.17 8995.3c-156.75,-22.52 -350.55,-14.82 -505.68,-1.5 -678.67,64.78 -1289.92,517.16 -1329.13,1239.46 -6.34,189.55 30.08,381.25 124.94,546.84 85.57,147.2 -1.58,-97.79 -9.14,-124.7 -50.65,-183.25 -71.66,-380.53 -5.99,-562.68 189.2,-520.53 479.27,-894.79 1050.63,-1022.07 443.34,-92.06 926.59,21.35 1312.1,250.61 14.19,8.58 43.98,27.18 17.98,-1.08 -171.44,-185.54 -413.22,-276.73 -655.71,-324.88z"/>
    </g>
    <g>
     <path class="fil0" d="M9867.38 11281.75c-135.55,-9.97 -268.87,-28.75 -405.12,-33.52 -853.41,-27.55 -1704.67,487.2 -1851.49,1370.16 -59,526.06 186.78,1071.9 752.58,1162.96 253.06,24.29 431.27,-69.97 658.39,-156.77 320.65,-109.6 628.95,-66.54 907.52,127.96 56.29,40.43 224.58,82.37 139.97,-49.68 -53.59,-82.23 -133.81,-154.85 -214.15,-210.51 -350.13,-238.26 -772.49,-273.28 -1153.61,-80.11 -244.76,138.38 -487.84,82.96 -676.46,-120.22 -495.88,-593.73 18.78,-1463.07 678.65,-1633.26 60.43,-15.08 215.31,-46.46 108.57,53.34 -182.76,174.39 -406.78,324.85 -425.66,603.24 -14.68,294.89 239.84,53.17 345.02,-11.02 563.66,-338.97 1379.37,10.9 1866.78,338.62 445.24,311.23 739.85,694.37 1036.63,1139.96 53.81,86.06 295.03,519.97 432.7,459.63 84.23,-27.22 120.17,-192.29 132.2,-265.34 83.69,-537.91 -70.13,-1096.18 -323.48,-1568.89 -113.24,-208.57 -125.02,78.01 -138.56,161.4 -30.58,212.85 -131.85,-48.87 -157.02,-110.49 -281.44,-691.88 -846.99,-1170.82 -1565.06,-1379.71 -807.82,-213.01 -1747.06,-13.55 -2265.35,680.71 -43.67,59.11 -149.35,223.76 -13.87,75.74 519.1,-560.47 1273.84,-842.21 2027.73,-647.39 63.43,17.07 336.15,110.26 103.09,93.19z"/>
     <path class="fil0" d="M11781.24 12881.93c6.87,85.27 17.88,320.55 -128.75,284.86 -52.74,-12.15 -161.28,-426.09 -186.42,-504.09 -345.01,-1060.95 -1778.23,-1742.89 -2809.34,-1295.75 -28.9,12.61 -133.27,55.59 -148.74,80.19 -4.58,7.37 57.6,-17.13 59.27,-17.77 516.88,-194.1 1169.65,-212.66 1659.25,71.01 97.15,57.16 287.01,199.42 53.19,116.2 -428.95,-150.38 -792.42,-243.25 -1261.41,-149.95 -698.09,152.96 -1366.41,774.69 -1192.2,1549.31 102.05,357.04 435.78,663.03 818.91,486.39 39.22,-21.62 76.05,-46.08 112.84,-69.66 446.98,-242.26 853.6,-103.29 1258.17,121.75 48.46,27.37 189.17,138.41 81.21,11.8 -216.63,-251.57 -671.35,-511.37 -1008.88,-426.74 -127.81,33.56 111.54,26.52 17.04,48.4 -11.9,2.79 -58.26,11.34 -55.82,28.94 4.55,31.88 -142.83,67.65 -171.26,79.16 -274.11,119.26 -414.55,296.42 -726.63,110.5 -369.93,-253.43 -370.96,-737.62 -199.87,-1110.81 465.41,-899.78 1690.42,-1015.79 2471.68,-481.98 62.05,43.36 483.21,382.31 225.39,418.85 -34.31,5.41 -114.57,0.25 -70.11,51.68 54.24,62.7 657.13,523.31 614.27,186.63 -22.85,-205 -173.6,-414.98 -292.73,-575.86 -4.4,-6.11 128.52,127.05 142.52,143.37 184.8,219.64 309.96,450.29 299.8,741.38 -4.33,221.68 -15.83,296.97 97.57,485.98 51.8,87.43 285.08,518.65 394.09,454.46 109.57,-55.91 100.6,-382.5 83.67,-480.08 -12.73,-74 -137.01,-357.39 -136.71,-358.17z"/>
     <path class="fil0" d="M11045.62 11897.9c0,0 0.55,0.54 0.58,0.57 331.73,314.27 732.35,968.03 657.5,1451.62 -49.46,346.42 -232.95,11.84 -290.03,-110.49 -18.68,-39.3 -99.16,-270.59 -159.05,-304.69 -163.45,-96.01 -350.41,-175.83 -522.42,-255.89 -7.08,-3.15 -511.12,-242.63 -519.09,-224.78 -3.92,8.62 313.72,249.56 340.48,271.75 382.55,324.18 607.12,660.65 857.19,1100.13 90.53,171.77 290.96,563.56 424.33,178.77 10.2,-27.61 19.39,-59.75 27.38,-96.19 203.5,-890.64 -547.84,-2070.99 -1365.4,-2432.34 -21.57,-9.65 7.6,8.43 11.23,10.69 192.43,118.83 375.86,249.44 536.29,409.87 16.39,16.39 46.69,42.63 1.01,0.98z"/>
     <path class="fil0" d="M10268.61 13288.97c-102.03,-217.09 -237.28,-419.99 -431.52,-565.01 -186.62,-134.44 -99.21,-189.93 74.77,-126.73 162.52,60.53 298.73,170.15 429.1,281.47 36.76,31.87 83.22,68.52 38.39,-6.02 -291.29,-480.68 -1039.6,-770.32 -1535.98,-455.61 -190.5,129.93 -300.15,337.3 -3.74,400.64 103.4,22.27 205.63,38.2 307.94,67.21 425.68,134.7 803.84,527.02 841.09,987.35 0.03,0.4 -23.4,-89.18 -33.92,-124.67 -162.21,-492.87 -496.11,-784.83 -1006.87,-862.09 -196.81,-22.22 -488.03,-27.69 -330.13,-314.32 135.27,-212.45 400.27,-307.23 641.91,-321.04 675.27,-21.64 1304.79,526.9 1416.81,1186.7 39.38,267.9 -52.49,49.64 -99.8,-48.83 -9.1,-18.35 -208.49,-377.23 -223.98,-342.93 -4.53,10.85 20.9,33.93 1.2,46.16 -33.19,21.12 107.21,391.82 119.88,438.04 37.23,140.74 66.91,292.53 68.43,438.42 0.12,27.14 -40.15,240.2 -41.09,240.74 -4.16,2.45 -6.83,-90.41 -7.06,-95.85 -18.96,-360.97 -112.71,-668.19 -319.44,-962.07 -1.01,-1.43 64.69,89.98 94.01,138.44z"/>
     <path class="fil0" d="M11319.6 12446.14c167.56,273.85 330.94,644.22 325.65,972.56 -6.41,433.12 -340.49,-182.77 -432.39,-242.14 -38.56,-24.89 -156.09,-74.62 -117.93,22.36 35.79,89.55 -127.15,-78.23 -139.02,-62.27 -7.45,9.98 122.24,184.1 135.87,202.95 116.07,162.09 219.57,339.08 348.42,490.73 248.23,308.88 270.82,-179.48 261.44,-344.2 -37.2,-603.12 -395.83,-1303.19 -902.27,-1640.82 205.47,171.07 380.68,372.75 520.23,600.83z"/>
    </g>
    <g>
     <path class="fil0" d="M7654.29 13326.04c-14.29,114.81 252.98,78.74 313.32,74.98 500.4,-25.46 1090.15,8.56 1449.14,408.46 25.5,28.6 192.07,227.51 187,240.74 -105.27,283.42 -387.89,174.42 -605.22,99.7 -379.55,-117.13 -704.45,-114.16 -1086.42,-40.23 -295.49,57.19 -554.11,488.23 -505.61,771.93 42.52,217.39 297.3,603.88 -122.83,620.97 -364.74,6.25 -599.73,-268.54 -821.54,-514.82 -126.08,-145.37 -284.94,-225.89 -396.86,-385.38 -334.67,-508.17 -256.09,-1255.21 149.67,-1701.69 296.37,-316.01 643.36,-522.59 1064.34,-616.18 222.07,-48.94 -14.4,294.55 -52.28,350.43 -36.24,55.75 -255.93,316.1 -46.77,225.72 99.37,-42.17 195.56,-92.81 295.01,-135.81 377.32,-155.67 967.06,-286.43 1340.52,-49.68 211.58,132.63 -168.26,174.58 -241.96,184.09 -254.16,36.63 -869.22,142.55 -919.51,466.77z"/>
     <path class="fil0" d="M7320.87 12552.46c-99.75,144.11 -193.37,283.11 -265.39,443.42 -71.7,159.6 288.55,-21.26 297.36,-25.56 278.87,-133.85 597.07,-195.04 905.34,-197.33 53.9,0.04 305.08,-20.7 257.1,83.99 -10.08,23.73 -80.08,34.18 -101.13,38.35 -304.11,62.35 -683.54,124.9 -829.29,446.56 -71.82,163.4 66.7,148.81 184.48,164.78 160.4,21.26 319.13,44.04 481.08,39.99 243.16,-4.92 542.11,84.89 755.96,193.09 72.2,37.1 302.67,223.72 223.54,316.52 -55.52,69.02 -27.68,171.61 -147,118.41 -104.35,-45.92 -218.99,-53.68 -328.37,-80.02 -116.58,-27.08 -80.02,-98.21 10.02,-111.07 36.06,-5.17 12.07,-44.04 47.75,-72.04 110.66,-85.77 -117.9,-137.64 -178.84,-159.04 -316.45,-109.09 -610.23,-106.06 -931.58,-3.64 -252.32,82.02 -460.91,-33.46 -653.43,212 -20.16,26.1 -152.85,269.58 -188.58,196.56 -27.96,-59.46 -32.62,-183.33 -14.99,-248.96 105.12,-381.71 422.45,-589.91 697.2,-837.75 16.89,-15.07 189.01,-127.91 86.25,-96.71 -305.31,93.96 -489.81,363.82 -785.47,464.74 -79.02,26.5 -131.53,20.21 -153.11,-69.53 -68.69,-313.29 174.56,-621.67 408.89,-798.78 36.74,-27.7 186.92,-94.75 218.25,-41.2 1.18,1.99 6.99,24.79 3.96,23.22z"/>
     <path class="fil0" d="M6969.17 14135.39c-102.26,228.1 -129.82,508.91 -15.29,737.98 47.02,89.48 179.56,192.21 243.16,55.78 98.14,-220.29 81.5,-438.25 334.79,-545.46 173.76,-73.02 337.74,-84.6 522.89,-97.08 272.23,-15.15 497.24,189.46 674.33,371.34 32.3,33.99 85.05,74.97 66.69,-6.48 -87.12,-392.93 -727.82,-493.73 -1049.17,-483 -253.47,10 -430.59,190.61 -576.45,379.32 -96.55,125.42 -108.37,112.27 -133.71,-25.95 -44.72,-258.04 160.13,-475.04 342.1,-627.12 79.27,-64.84 78.26,-106.33 121.93,-188.74 10.24,-18.62 -39.05,5.22 -41.53,6.28 -202.07,87.67 -372.95,230.72 -487.47,419.34 -1.49,2.48 -2.27,3.79 -2.27,3.79z"/>
     <path class="fil0" d="M6710.85 12929.54c-45.39,51.9 -348.79,395.85 -232.58,450.82 42.32,18.51 201.11,262.76 188.53,308.93 -19.79,74.57 -119.39,216.24 -185.58,254.3 -83.46,47.02 -87.35,274.68 -134.51,297.41 -72.63,34.02 -85.52,-607.98 -85.38,-613.35 4.31,-121.94 31.62,-209.95 87.04,-319.3 118.65,-229.07 259.42,-450.4 505.75,-555.09 -50.82,56.33 -98.55,115.13 -143.27,176.28z"/>
    </g>
    <g>
     <path class="fil0" d="M3971.97 14980.93c-124.34,-304.87 116.13,-623.85 362.98,-780.37 657.68,-400.34 1490.39,8.45 1799.03,654.4 46.19,100.56 99.7,196.05 140.42,299.34 49.01,128.72 78.93,257.38 110.58,390.76 52.02,231.66 90.56,-30.92 97.89,-117.64 41.86,-570.36 -206.77,-1195.21 -673.83,-1540.12 -79.43,-58.65 -354.4,-294.69 -71.98,-244.78 493.89,94.14 904.87,610.62 1096.45,1044.76 67.66,158.93 111.37,317.09 157.47,482.43 43.4,159.28 31.41,-77.96 28.63,-112.79 -41.85,-480.41 -255.3,-920.12 -566.91,-1283.03 -60.39,-69.35 -312.05,-325.3 -48.45,-141.09 405.04,288.74 678.29,693.3 877.71,1142.3 21.81,50.4 116.46,295.52 95.44,85.26 -61.35,-595.35 -469.1,-1200.98 -925.5,-1569.93 -529.45,-412.77 -1184.61,-600.77 -1848.4,-481.96 -716.33,134.07 -1436.85,755.68 -1384.6,1533.51 23.62,302.23 26.52,552.2 164.28,834.99 233.8,456.46 795.98,797.53 1273.44,462.08 144.95,-107.21 278.83,-316.91 191.06,-499.97 -96.9,-192.19 -214.62,-9.74 -315.11,58.1 -231.85,150.81 -458.69,19.26 -560.6,-216.25z"/>
     <path class="fil0" d="M5812.02 13503.27c-513.69,-253.42 -1068.43,-246.15 -1561.58,29.16 -578.64,328.37 -972.33,1094.73 -543.86,1694.59 149.96,203.3 459.9,414 710.46,265.35 157.77,-94.42 -39.93,-87.43 -111.28,-99.67 -95.45,-17.1 -189.36,-52.25 -252.78,-128.45 -177.63,-213.43 -230.56,-541.95 -48.64,-769.83 214.5,-267.56 469.92,-428.85 817.92,-397.36 502.27,45.96 857.8,361.79 1043.14,824.2 188.75,482.74 92.46,1042.93 -184.79,1469.69 -82.24,125.11 -33.28,67.35 33.03,2.22 37.57,-37.08 76.17,-73.44 111.7,-112.69 3.56,-3.96 7.18,-8.06 10.84,-12.26 357.76,-413.72 227.14,-1194.38 -16.38,-1625.99 -240.59,-416.76 -654.46,-622.93 -1119.57,-689.16 -147.24,-21.17 -303.54,41.06 -442.28,82.94 -77.28,23.29 -116.07,1.58 -52.48,-74.85 135.95,-160.05 351.52,-236.68 547.76,-290.85 19.8,-5.34 75.6,-19.88 19.51,-23.99 -612.07,-44.29 -1145.67,541.1 -1087.66,1143.5 0.58,5.62 29.23,294.91 16.66,284.7 -77.75,-62.86 -102.97,-319.65 -100.28,-411.25 19.99,-512.04 396.61,-958.82 863.67,-1138.71 752.04,-279.18 1503.67,34.15 1992.86,632.7 53.55,66.3 116.1,129.32 164.14,199.1 87.86,129.02 -22.47,-72 -37.67,-98.97 -182.77,-321.31 -445.41,-579.73 -771.17,-753.46 -0.84,-0.43 -1.27,-0.66 -1.27,-0.66z"/>
     <path class="fil0" d="M5799.54 13036.07c0.25,-0.42 2.22,4.16 2.28,4.38 5.65,33.23 -230.99,-13.91 -240.84,-15.43 -696.98,-103.51 -1514.94,106.44 -1900.25,742.56 -28.09,47.25 -124.23,216.35 -13.28,98.8 125.48,-133.49 235.29,-259.66 385.33,-370.62 824.2,-593.81 1713.91,-292.33 2440.53,245.6 148.36,111.83 275.18,247.69 386.33,396.07 152.39,206.65 276.37,437.57 390.55,666.97 43.12,87.03 20.75,-33.44 15.46,-60.18 -134.4,-667.53 -699.23,-1443.25 -1360.04,-1683.29 -142.26,-51.61 -206.71,-85.03 -106.07,-24.86z"/>
     <path class="fil0" d="M6648.56 15128.58c17.59,286.12 -22.9,579.32 -120.95,848.76 -77.46,209.46 -44.07,64.12 -27.67,-34.91 95.85,-596.99 9.04,-1217.83 -424.62,-1670.59 -19.96,-20.54 -100.99,-105.52 -134.55,-101.43 -55.87,7.68 91.71,237.88 -17.72,152.24 -30.17,-23.29 -3.71,25.84 0.35,33.75 29.63,57.67 254.44,512.17 209.08,542.41 -4.41,2.64 -45.84,-94.9 -48.51,-100.84 -138.7,-303.43 -312.79,-483.11 -557.69,-699.49 -11.55,-10.28 -33.78,-25.26 -13.33,-36.85 57.22,-32.07 -134.44,-190.09 -159.38,-219.82 -42.63,-51.28 102.52,-18.69 112.83,-16.39 446.85,103.91 774.34,484.13 969.73,879.07 56.38,115.19 -5.3,-78.82 -15.46,-113.68 -111.82,-382.48 -471.81,-717.31 -816.16,-894.64 -1.9,-0.96 -130.04,-60.11 -81.32,-51.42 124.87,22.55 289.33,98.36 394.76,175.67 414.95,306.87 672.06,791.46 729.78,1300.68 32.44,279.67 664.75,1263.52 0.83,7.48z"/>
     <path class="fil0" d="M6568.11 13783.72c8.37,18.56 140.27,206.11 45.54,112.16 -172.22,-169.39 -333.09,-322.33 -542.23,-449.93 -474.59,-280.31 -1149.9,-394.58 -1656.72,-123.67 -45.7,24.69 39.97,-3.07 47.26,-5.14 603,-171.36 1141.21,-79.15 1651.53,286.54 45.85,33.26 90.83,67.65 135.53,102.43 151.15,118.68 254.28,177.69 381.1,320.96 165.54,190.23 281.85,397.38 380.6,627.44 65.53,154.99 24.78,11.54 49.31,-3.86 13.76,-7.03 -3.52,-50.96 -6.62,-61.37 -86.56,-289.72 -245.63,-609.99 -485.3,-805.56z"/>
    </g>
   </g>
   <path class="fil1" d="M6360.29 6498.87c2896.51,-1530.92 2898.79,-1713.41 6425.36,-1713.41 -1748.84,6769.27 -1225.31,8424.56 -8026.2,9959.91 -236.16,53.32 -224.88,81.83 -455.27,63.65"/>
   <g>
    <path class="fil2" d="M7750.97 12583.6c242.87,538.77 1322.02,3612.16 1862.97,3635.28 770.36,32.91 588.95,-3219.59 594.36,-3672.64 20.76,-1735.9 -111.83,-2862.13 -338.94,-4570.65 -109.15,822.4 -83.5,423.26 -52.56,1516.15 28.59,1008.85 37.51,4536.02 -239.09,5890.91 -353.74,-782.89 -1025.77,-2615.59 -1216.08,-3072.15l-610.66 273.1z"/>
   </g>
   <path class="fil1" d="M8056.3 12447.05c1658.01,3707.59 1773.74,5966.35 1983.52,-1130.94 20.3,-687.93 -241.39,-3087.41 -170.46,-3340.52"/>
   <g>
    <path class="fil2" d="M8680.93 12371.21c911.93,984.31 966.6,1210.06 1694.01,2198.49 1573.89,2138.64 1104.36,-2146.89 1071.64,-2697 -92,-1547.3 -10.1,-1510.16 -687.35,-2837.03l176.5 760.12c169.15,838.14 272.69,3547.48 39.31,4673.34 -26.98,-43.33 -66.46,-106.45 -131.51,-205.12 -736.02,-1116.85 -768.44,-1294.95 -1707.24,-2382.8l-455.36 490z"/>
   </g>
   <path class="fil1" d="M8908.61 12126.21c2044.27,1899.77 2580.09,5819.32 2312.37,-1490.67 -10.02,-273.46 -350.41,-1502.46 -461.75,-1599.87"/>
   <g>
    <path class="fil2" d="M7534.96 12167.66c-13.29,31.98 -1435.73,3407.38 -161.46,3214.68 943.4,-142.68 2186.04,-6350.9 1203.84,-6446.78 538.41,755.9 -601.26,4586.95 -1149.67,5651.3 13.44,-683.86 484.79,-1640.98 696.89,-2103.23l-589.6 -315.97z"/>
   </g>
   <path class="fil1" d="M7829.76 12325.65c-1383.25,2581.16 -418.06,5049.86 772.02,-849.85 71.47,-354.23 531.28,-2301.03 -24.44,-2540.24"/>
   <g>
    <path class="fil2" d="M8694.4 11907.32c-794.29,237.85 -1614.39,538.93 -2348.32,962.23 318.08,-518.59 766.09,-1201.79 774.46,-1215.57 -608.19,588.02 -908.99,815.62 -1366.4,1426.15 -263.14,351.2 -84.1,635.03 306.5,492 1194.3,-437.32 1253.3,-662.28 2749.29,-1005.92l-115.53 -658.89zm-2644.81 1481.5c-1.7,5.69 -3.99,11.21 -6.9,16.48 1.96,-5.02 4.34,-10.6 6.9,-16.48z"/>
   </g>
   <path class="fil1" d="M8752.16 12236.77c-2381.49,417.58 -4279.06,2704.37 -1631.62,-582.79"/>
   <g>
    <path class="fil2" d="M9215.42 12251.34c56.47,-840.06 97.94,-1681.06 235.72,-2484.48 94.59,551.58 523.6,5577.7 -414.97,5199.83 -453.76,-182.67 -344.89,-2632.36 -347.87,-2715.35l527.12 0z"/>
   </g>
   <path class="fil1" d="M9022.77 12251.34c0,5116.55 428.37,1072.4 428.37,-1463.76 0,-340.24 0,-680.48 0,-1020.72"/>
   <g>
    <path class="fil2" d="M14925.72 13012.24c-12.86,76.33 -505.54,2812.54 -1297.63,1860.97 -377.85,-453.96 -1093.24,-4143.28 -1039.7,-4626.37 62.19,-561.02 330.23,-1042.2 568.02,-1550.89 -185.56,1089.52 -381.88,1339.11 -141.84,2478.43 22.53,106.9 720.6,2462.39 962.55,3129.27 177.81,-357.85 230.09,-914.8 279.96,-1271.15l668.64 -20.26zm-879.67 1457.53l1.04 1.73 -0.05 -0.96 -0.99 -0.77z"/>
   </g>
   <path class="fil1" d="M14591.4 13022.37c13.13,433.2 -648.05,3375.07 -1143.11,391.65 -66.54,-401.02 -729.93,-1928.24 -711.94,-3165.05 3.64,-250.11 383.54,-1479.56 420.06,-1553.02"/>
   <g>
    <path class="fil2" d="M14822.08 13342.17c43.88,126.3 103.66,315.66 174.57,496.1 70.39,-1112.51 -469.49,-3526.4 -683.65,-4171.05 -74.87,-225.31 -668.12,-1544.8 -545.9,-1902.3 -16.67,-97.52 -12.76,-48.56 -7.56,-171.75 34.42,42.72 99.9,112.24 107.83,171 77.64,575.14 534.4,1246.7 760.1,1779.72 390.04,921.17 1286.74,4066.25 818.36,5018.24 -476.01,967.58 -1172.54,-789.56 -1256.46,-1002.83l632.71 -217.13zm82.7 932.32c-2.57,4.36 -4.88,8.92 -6.91,13.68 2.43,-4.31 4.59,-9.17 6.91,-13.68z"/>
   </g>
   <path class="fil1" d="M14505.73 13450.73c928.97,2707.08 974.02,-359.98 287.54,-2886.99 -362.07,-1332.82 -1102.63,-2505.04 -975.26,-2792.9l-58.47 -177.67"/>
   <g>
    <path class="fil2" d="M14934.09 13030.59c687.12,93.73 829.14,269.61 1282.87,613.49 17.54,-731.99 -155.39,-2697.61 -459.18,-3096.84 -438.63,-576.48 -535.94,-2059.4 -9.82,-2065.47 -598.3,1003.17 463.7,1787.46 630.91,2610.18 1048.19,5157.68 -304.32,2708.49 -1444.78,2607.58l0 -668.94z"/>
   </g>
   <path class="fil1" d="M14934.09 13365.06c1244.27,0 2038.47,2540.81 1270.36,-2031.63 -40.9,-243.44 -55.92,-672.8 -328.84,-917.63 -342.27,-307.01 -590.4,-1729.56 -127.65,-1934.03"/>
   <g>
    <path class="fil2" d="M15626.61 12701.03c724.21,211.68 1156.22,410.7 1844.6,437.81 -128.06,-328.28 -1153.81,-1701.75 -566.68,-1915.56 3.09,591.56 140.89,599.49 574.02,1159.29 1412.74,1825.92 -795.61,1218.67 -2037.6,961.14l185.66 -642.68zm1857.26 483.34c-1.31,5.33 -2.18,11.35 -2.7,18.44 2.68,-4.19 3.42,-10.48 2.7,-18.44z"/>
   </g>
   <path class="fil1" d="M15533.78 13022.37c4389.23,1267.98 684.47,-970.8 1370.75,-1799.09"/>
   <g>
    <path class="fil2" d="M14850.33 12927.93c-20.91,746.6 -903.24,1445.91 -1160.87,-620.95 -52.48,-420.81 -574.45,-2400.9 248.69,-2615.01 6.39,57.58 8.94,30.69 -4.34,80.89l1.27 -1.96c-75.22,253.35 -144.02,422.87 -157.92,680.93 -12.34,229.34 458.69,2045.13 630.93,2501.99l442.24 -25.89zm-405.47 110.67c4.6,8.15 8.69,14.07 12.11,16.99 -2.65,-6.34 -6.79,-12.01 -12.11,-16.99z"/>
   </g>
   <path class="fil1" d="M14516.43 12947.47c28.69,487.76 -423.81,722.55 -564.21,-667.02 -99.47,-984.6 -666.85,-1526.17 -53.24,-2531.57l39.17 -56.91"/>
   <g>
    <path class="fil2" d="M3292.35 8816.81c-733.42,879.27 -1803.02,2402.14 -972.62,3519.72 726.91,978.32 828.61,1457.71 -285.03,2100.21 866.31,-753.96 746.89,-1048.4 -58.46,-1781.7 -1436.86,-1308.39 -71.76,-3239.54 936.4,-4388.92l379.71 550.69z"/>
   </g>
   <path class="fil1" d="M3102.5 8541.47c-451.99,311.65 -2020.58,2736.69 -1176.6,3709.84 563.94,650.26 1462.29,1304.78 108.8,2185.43"/>
   <g>
    <path class="fil2" d="M3024.37 9025.95c-248.44,107.71 -1080.96,1017.87 -144.79,1360.44 1036.16,379.16 1592.27,2003.7 1361.36,2988.36 -483.39,2061.35 -682.93,2430.51 1266.71,3450.15 268.34,140.34 471.93,243.24 539.05,543.42 -147.96,-416.62 -682.96,-473.21 -1067.06,-625.72 -2481.98,-985.47 -1108.44,-2915.37 -1363.38,-4219.25 -167.42,-856.26 -492.63,-1269.01 -1183.35,-1585.48 -1188.3,-544.42 -554.69,-2208.94 456.22,-2567.05l135.24 655.13z"/>
   </g>
   <path class="fil1" d="M2956.75 8698.39c-501.2,103.34 -1516.35,1671.04 -158.77,2012.37 447.52,112.52 1434.39,1526.48 1133.08,2574.94 -1102.44,3836.1 1943.78,3131.41 2115.64,4082.62"/>
   <g>
    <path class="fil2" d="M2852.13 8693.88c459.34,-2007.59 2440.55,-1818.13 2549.51,-437.22 -514.9,-986.94 -1663.12,-448.59 -1888.31,538.7l-661.2 -101.48z"/>
   </g>
   <path class="fil1" d="M3182.73 8744.62c230.29,-1499.8 2012.12,-1632.51 2218.91,-487.96"/>
   <g>
    <path class="fil2" d="M2887.59 10049.34c233.55,1801.53 -511.71,1776.41 584.22,3240.91 794.37,1061.57 -672.14,3466.08 -1035.05,4817.36 91.93,-891.47 937.29,-3832.17 532.61,-4375.73 -1353.11,-1817.48 -497.34,-1706.03 -735.88,-3542.45l654.1 -140.09z"/>
   </g>
   <path class="fil1" d="M2560.54 10119.38c307.98,1437.9 -606.86,1950.96 660.05,3391.69 663.78,754.85 -695.44,3545.44 -783.83,4596.54"/>
   <g>
    <path class="fil2" d="M5266 7615.02c393.03,1159.77 371.22,567.12 36.53,1778.76 -514.21,-1009.59 -306.35,-509.03 -641.83,-1493.97l605.3 -284.79z"/>
   </g>
   <path class="fil1" d="M4963.35 7757.42c256.59,545.34 338.69,994.63 339.18,1636.36"/>
   <g>
    <path class="fil2" d="M2833.4 8932.41c-992.33,-410.37 -1418.57,873.7 -285.51,1700.85 1868.71,1364.12 1972.24,3039.19 2187.24,5200.69 34.23,343.97 -1661.27,2081.97 -2113.21,1711.75 455.9,296.26 1679.16,-1326.75 1811.97,-1673.59 -480.31,-1849.09 -621.8,-3490.86 -2230.26,-4665.32 -1869.6,-1365.12 -862.4,-3606.84 941.41,-2866.29l-311.64 591.91zm1605.16 6926.82c1.48,-4.47 2.85,-8.77 3.87,-12.7 -2.23,2.14 -3.38,6.9 -3.87,12.7z"/>
   </g>
   <path class="fil1" d="M2989.22 8636.46c-1338.35,-704.66 -2142.76,1365.52 -613.46,2283.56 1729.78,1038.42 1777.12,2988.09 2212.2,4946.34 31.52,141.86 -1506.15,2062.9 -1966.04,1679.34"/>
   <g>
    <path class="fil2" d="M2915.56 8663.01c-277,-868.49 -520.41,-1993.59 933.2,-1649.29 191.37,45.33 465.69,348.37 471.12,555.25 -75.04,-133.55 -338.46,-232.06 -480.27,-251.55l16.54 10.63c-795.15,274.73 -525.75,419.06 -287.43,1190.46l-653.16 144.5z"/>
   </g>
   <path class="fil1" d="M3242.14 8590.76c-97.21,-439.52 -766.28,-1388.51 610.32,-1419.88 78.3,-1.78 447.92,253.52 467.42,398.09"/>
   <g>
    <path class="fil2" d="M2507.34 10377.99c-455.1,1378.77 -646.22,2329.92 225.77,3598.95 780,1135.19 1164.86,2304.24 1465.05,3667.66l106 678.95c-327.08,-1025.96 -787.31,-1986.07 -1321.18,-2923.06 -585.89,-1028.27 -40.89,-43.52 -790.25,-1029.26 -1041.14,-1369.59 -806.51,-2727.88 -311.39,-4229.08l626 235.84z"/>
   </g>
   <path class="fil1" d="M2194.34 10260.07c-661.98,1757.08 -552.48,3112.97 678.19,4400.77 239.92,251.05 1512.24,3365.44 1431.63,3662.71"/>
   <g>
    <path class="fil2" d="M3232.97 9754.23c-480.15,444.89 -1501.73,1316.66 -1929.33,1855.89 860.15,687.02 1074.11,1253.22 132.5,2129.99 375.05,395.32 755.27,-142.28 466.22,1184.58 -313.63,1439.65 497.94,130.52 11.47,2004.78l-76.78 344.42c18.46,-227.04 199.27,-1155.99 45.66,-1309.47 -682.16,-681.57 -156.35,-1089 -281.82,-1626.88 -407.95,-124.2 -930.61,-318.21 -687.14,-854.6 459.14,-1011.5 886.51,-499.99 -243.99,-1518.08 -629.37,-566.79 1782.86,-2399.07 2084.5,-2677.85l478.71 467.22zm-1822.08 3957.83c-2.45,-5.82 -5.87,-11.86 -10.8,-18.7l-4.26 0.59c5,6.27 10.03,12.24 15.06,18.11zm180.56 589.36c-1.78,-6.29 -3.56,-12.56 -5.55,-18.88 0.67,6.69 2.66,12.98 5.55,18.88z"/>
   </g>
   <path class="fil1" d="M2993.62 9520.62c-289.85,296.98 -2332.41,2043.25 -2095.28,2199.31 2208.52,1453.35 -995,1846.36 824.89,2415.92 308.36,96.52 -349.08,1360.81 188.47,1724.46 292.72,198.01 -74.65,1042.13 -74.65,1413.58"/>
   <g>
    <path class="fil2" d="M8578.2 2286.94c-139.66,475.73 -740.01,1977.37 -547.68,2480.58 516.29,1350.65 2860.76,1305.61 1671.05,4253.09 -224.32,555.76 -489.91,1121.4 -723.12,1682.19l44.99 -173.5c601.17,-2318.11 1235.57,-2755.37 -477.47,-4215.53 -1821.76,-1552.89 -1290.55,-1896.57 -623.72,-4158.04l655.95 131.21z"/>
   </g>
   <path class="fil1" d="M8250.23 2221.33c-369.08,1845.44 -1399.27,2370.48 499.34,3827.08 1712.9,1314.1 1054.74,2194.72 342.7,4315.39l-113.82 339"/>
   <g>
    <path class="fil2" d="M9985.27 2867.97c-877.62,-174.37 -1834.59,-3632.07 -3229.32,-630.88 -700.72,1507.85 1392.45,3833.74 1723.5,5302.77 110.82,491.69 463.67,4275.31 -189.04,4731.54 -564.48,394.55 -624.71,77.72 -677.23,800.77 -4.91,-743.39 94.44,-438.97 622.53,-875.94 570.72,-472.24 -78.27,-4352.08 -401.66,-4988.76 -1075.82,-2118.12 -3053.59,-3969.65 -1003.77,-6302.6 1519.07,-1728.9 2748.13,870.8 3301.56,1324.81 -37.83,-22.05 -46.36,-19.45 -93.16,-28.51l-53.41 666.8z"/>
   </g>
   <path class="fil1" d="M10011.98 2534.57c-445.39,-36.45 -1862.02,-3843.33 -3555.37,-446.7 -847.26,1699.54 1528.84,4361.05 1795.45,5504.98 162.23,696.16 586.63,4222.22 11,4640.97 -503.06,365.98 -649.88,138.84 -649.88,838.35"/>
   <g>
    <path class="fil2" d="M9642.45 2849.54c-1460.48,-500.96 -1441.73,-479.63 -2205.43,1356.62 -1067.07,2565.66 -330.8,4427.01 -680.08,6808.44 -109.13,744.05 -198.77,647.48 -214.65,1158.02 -40.98,-504.27 58.57,-442.29 82.87,-1168.38 92.44,-2759.15 -1051.54,-4058.79 207.1,-7083.99 846.22,-2033.95 1113.06,-2359.43 3035.2,-1700.65l-225.01 629.94z"/>
   </g>
   <path class="fil1" d="M9754.96 2534.57c-1661.22,-593.37 -1653.61,-516.17 -2620.32,1528.64 -1252.1,2648.48 -9.64,5618.65 -581.33,7798.53 -25.22,96.16 -11.02,210.49 -11.02,310.88"/>
   <g>
    <path class="fil2" d="M9555.39 2289.51c1198.73,-1788.35 4229.47,852.23 4090.19,3633.63 -86.22,1721.69 -466.32,1459.89 555.68,3031.31 935.17,1437.94 971.27,2741.72 1858.5,4343.89l427.13 677.19 -488.87 -640.4c-1005.13,-1484.76 -1183,-2803.8 -2192.29,-4087.93 -2142.63,-2726.11 184.03,-3090.38 -1450.85,-5577.33 -298.32,-453.78 -1675.11,-1863.72 -2215.58,-1053.96l-583.91 -326.4z"/>
   </g>
   <path class="fil1" d="M9847.34 2452.71c766.01,-1369.98 3994.9,936.53 3395.04,4022.9 -415.38,2137.09 1083.01,2313.17 1616.74,4281.13 199.87,736.94 1078.43,2603.74 1627.77,3218.79"/>
   <g>
    <path class="fil2" d="M9333.3 2058.98c-1525.36,59.71 -1228.23,144.34 -1181.14,1933.2 27.21,1032.29 260.49,5965.75 -538.56,6434.87 -431.37,253.28 -2331.29,442.32 -2092.68,806.98 -289.82,-351.78 1594.59,-750.24 1941.25,-1014.15 424.48,-323.17 52.82,-4519.57 37.41,-5290.03 -49,-2450.63 -613.09,-3441.1 1833.72,-3539.8l0 668.93z"/>
   </g>
   <path class="fil1" d="M9333.3 1724.51c-1964.58,0 -1499.25,456.74 -1499.25,3205.34 0,1114.54 308.9,4951.4 -296.17,5393.62 -403.41,294.87 -2309.85,557.05 -2016.96,910.56"/>
   <g>
    <path class="fil2" d="M9641.53 2463.04c452.43,-1443.68 1896.24,-2971.7 2215.81,-683.53 259.4,1857.21 -271.06,968.37 513.4,2963.95 726.91,1849.16 1977,4979.3 3421.82,6290.74 90.55,82.18 102.02,172.83 180.29,285.51 -83.86,-98.68 -111.39,-193.62 -200.41,-259.65 -1576.6,-1169.34 -3899.91,-5212.14 -4403.59,-7132.77 -223.6,-852.62 -68.68,-2129.67 -297.53,-2608.2 -331.84,226.22 -642.18,1047.72 -761.15,1123.29l-668.64 20.66z"/>
   </g>
   <path class="fil1" d="M9975.85 2452.71c-2.72,-89.91 1697.83,-3718.61 1584.93,649.88 -37.26,1441.95 3222.26,7373.1 4026.54,7821.83 376.51,210.04 215.67,198.6 385.53,395.29"/>
   <g>
    <path class="fil2" d="M9038.45 992.33c3185.52,-2377.97 3025.59,960.59 4585.1,3396.08 44.3,69.2 86.27,135.12 164.68,163.27 -227.14,-35.13 -1188.96,-1392.01 -1189.63,-1392.95 -1491.33,-2051.89 -1192.29,-3100.76 -3141.79,-1644.44l-418.36 -521.96z"/>
   </g>
   <path class="fil1" d="M9247.63 1253.31c2451.87,-1965.25 2281.86,182.25 4101.21,2754.94 77.75,109.96 292.55,529.65 439.39,543.43"/>
   <g>
    <path class="fil2" d="M9304.94 2164.18c-1159.24,-702.73 -2388.5,619.48 -2377.17,1769.33 2.8,285.24 -46.21,468.18 92.41,575.33 -190.67,-77.32 -72,-42.81 -131.58,-199.84 -823.56,-2171.01 1090.68,-3725.99 2815.77,-2681.46l-399.43 536.64z"/>
   </g>
   <path class="fil1" d="M9504.65 1895.86c-1201.48,-894.44 -3167.45,490.63 -2581.17,2402.46 49.95,162.88 -84.21,110.7 96.7,210.52"/>
   <g>
    <path class="fil2" d="M9556.31 2357.03c1569.27,-1526.81 2308.94,-906.8 3000.44,1014.35 829.41,2304.23 111.74,3987.29 528.73,5979.53 167.38,799.65 284.25,958.16 402.9,1883.12 -231.53,-931.75 -351.44,-1023.39 -619.98,-1827.05 -570.16,-1706.18 -307.98,-4048.2 -932.87,-5787.45 -590.1,-1642.48 -831.28,-1840.61 -1882.82,-814.12l-496.4 -448.38z"/>
   </g>
   <path class="fil1" d="M9804.51 2581.22c1280.11,-1417.27 1791.45,-713.31 2441.63,914.23 763.63,1911.52 171.7,4952.4 970.53,6542.85 110.87,220.73 210.61,904.23 271.71,1195.73"/>
   <g>
    <path class="fil2" d="M7814.53 3181.6c-523.98,1911.91 -1186.35,3580.93 -142.81,5350.46 597.56,1013.31 -577.34,3114.66 -1160.9,3799.18 -59.16,69.42 -114.48,154.87 -176,230.7 73.48,-120.35 153.26,-247.5 224.91,-365.43 282.56,-464.99 1169.74,-2780.74 640.84,-3362.46 -1427.66,-1570.22 -521.99,-4038.53 -32.33,-5825.13l646.29 172.68z"/>
   </g>
   <path class="fil1" d="M7491.38 3095.26c-412.66,1544.42 -1294.36,4205.44 -96.7,5533.13 476.46,528.16 -153.16,2858.68 -813.87,3587.22 -142.48,157.1 -154.27,230.68 -245.99,346.33"/>
   <g>
    <path class="fil2" d="M4708.19 8566.27c-1364.38,-703.47 -475.34,988.64 -1328.03,711.97 -49.18,-15.95 -88.92,-37.36 -122.02,-63.22 -205.39,281.25 -320.32,483.04 -778.54,905.29l230.14 -428.14c183.36,-420 237.5,-1261.29 581.33,-1218.26 268.76,-905.24 810.37,-969.8 1757.54,-483.46l-340.42 575.82zm-1254.3 396.34c19.82,-16.13 38.13,-36.15 54.33,-60.26l-2.77 -1.19c-17.94,21.06 -35.08,41.5 -51.56,61.45zm149.62 -277.17c9.64,10.53 19.42,21.41 29.36,32.78l8.03 -7.8c-12.34,-9.44 -24.8,-17.74 -37.39,-24.98z"/>
   </g>
   <path class="fil1" d="M4878.4 8278.36c-1742.1,-1029.96 -1069.97,1427.04 -1577.6,463.87 -27.89,-52.95 -404.82,994.58 -821.2,1378.08"/>
   <g>
    <path class="fil2" d="M2393.93 9726.58c-1299.99,83.62 -1016.11,228.38 -1242.24,1807.31 -504.37,-1751.05 -770.98,-2342.06 1242.24,-2476.25l0 668.94z"/>
   </g>
   <path class="fil1" d="M2393.93 9392.11c-1812.67,0 -1242.24,815.58 -1242.24,2141.78"/>
  </g>
 </g>
</svg>
