<?xml version="1.0" encoding="UTF-8"?>
<!DOCTYPE svg PUBLIC "-//W3C//DTD SVG 1.1//EN" "http://www.w3.org/Graphics/SVG/1.1/DTD/svg11.dtd">
<!-- Creator: CorelDRAW 2018 -->
<svg xmlns="http://www.w3.org/2000/svg" xml:space="preserve" width="215.9mm" height="185mm" version="1.1" style="shape-rendering:geometricPrecision; text-rendering:geometricPrecision; image-rendering:optimizeQuality; fill-rule:evenodd; clip-rule:evenodd"
viewBox="0 0 21590 18500"
 xmlns:xlink="http://www.w3.org/1999/xlink">
 <defs>
  <style type="text/css">
   <![CDATA[
    .str0 {stroke:#FEFEFE;stroke-width:200;stroke-miterlimit:2.61313}
    .fil0 {fill:none}
    .fil1 {fill:#FEFEFE}
   ]]>
  </style>
 </defs>
 <g id="Слой_x0020_1">
  <metadata id="CorelCorpID_0Corel-Layer"/>
  <g id="_1374800048">
   <path class="fil0 str0" d="M10794.99 11687.77c0,-454.09 -345.12,-822.22 -770.83,-822.22 -425.72,0 -770.83,368.13 -770.83,822.22 0,908.2 690.22,1644.45 1541.66,1644.45 851.44,0 1541.66,-736.25 1541.66,-1644.45 0,-1362.29 -1035.33,-2466.66 -2312.49,-2466.66 -1277.16,0 -2312.51,1104.37 -2312.51,2466.66 0,1816.4 1380.46,3288.89 3083.34,3288.89 1702.88,0 3083.34,-1472.49 3083.34,-3288.89 0,-2270.49 -1725.58,-4111.11 -3854.17,-4111.11 -2128.61,0 -3854.17,1840.62 -3854.17,4111.11 0,2724.6 2070.68,4933.34 4625,4933.34 2554.32,0 4625,-2208.74 4625,-4933.34 0,-3178.7 -2415.8,-5755.55 -5395.83,-5755.55 -2980.04,0 -5395.84,2576.85 -5395.84,5755.55 0,3632.81 2760.92,6577.78 6166.67,6577.78 3405.75,0 6166.67,-2944.97 6166.67,-6577.78"/>
   <g>
    <path class="fil1" d="M8938.95 5412.68c-1108.8,1400.34 393.27,1863.78 163.81,3463.57 -71.19,496.31 -236.85,722.18 -493.56,1131.09 170.42,-423.77 293.88,-670.35 276.74,-1143.21 -59.17,-1633.11 -1845.91,-1814.04 -695.84,-4003.66l748.85 552.21z"/>
   </g>
   <path class="fil0" d="M8564.53 5136.57c-1381.06,1872.89 1411.71,2586.76 44.67,4870.77"/>
   <g>
    <path class="fil1" d="M10130.66 5476.39c-1491.89,1658.37 -1596.42,2073.62 -601.87,4138.95 532.41,1105.64 712.83,1561.26 108.2,2626.3 455.61,-1089.8 245.55,-1466.5 -393.58,-2466.42 -1384.52,-2166.09 -1263.59,-2851.36 168.01,-4889.09l719.24 590.26z"/>
   </g>
   <path class="fil0" d="M9771.04 5181.26c-1747.37,2129.17 -1383.13,2749.17 -167.25,4900.13 737.03,1303.83 29.44,2100.41 33.2,2160.25"/>
   <g>
    <path class="fil1" d="M10046.53 6242.55c126.41,1749.24 -178.63,3967.28 -834.45,5600.81 -28.77,71.67 -19.04,51.59 -21.96,130.17 -10.13,-80.07 -16.53,-58.8 1.02,-137.95 350.07,-1579.52 323.38,-3818.81 -53.06,-5391.93l908.45 -201.1z"/>
   </g>
   <path class="fil0" d="M9592.3 6343.1c277.22,1252.22 35.43,4348.34 -390.69,5496.37 -26.6,71.65 -11.49,55.32 -11.49,134.06"/>
   <g>
    <path class="fil1" d="M9842.05 6343.1c15.68,-734.61 -49.57,-3133.21 1340.16,-2721.46 1700.56,503.83 1568.57,3249.19 1204.97,4547.41 -131.63,470.01 -1046.96,4194.35 199.08,3849.17 -1070.81,388.54 -742.59,-2324.68 -697.05,-2782.48 65.32,-656.59 267.98,-1432.61 279.29,-2032.58 17.16,-910.5 -79.55,-2488.84 -1104.32,-2878.92 -537.23,-204.51 -304.53,1791.43 -291.69,2018.86l-930.44 0z"/>
   </g>
   <path class="fil0" d="M10307.27 6343.1c0,-743.73 -230.71,-3428.78 1429.96,-1980.24 646.42,563.86 809.99,2822.64 487.72,3749.81 -102.29,294.24 -875.08,4423.46 361.31,3905.55"/>
   <g>
    <path class="fil1" d="M10890.75 6134.42c-163.32,-296.65 -1249.86,-2499.27 -1801.39,-1804.64 -1010.61,1272.79 -733.15,5180.67 -1005.26,6913.8 -69.97,445.65 -94.13,510.38 -198,950.27l8.14 181.85c-49.36,-400.05 64.39,-677.85 100.59,-1142.49 141.55,-1817.19 -523.87,-6125.38 681.86,-7433.07 1095.94,-1188.65 2546.12,1146.92 3013.31,1857.92l-799.25 476.36z"/>
   </g>
   <path class="fil0" d="M11290.37 5896.24c-554.71,-930.69 -2014.69,-3426.08 -2778.19,-1105.66 -787.14,2392.29 -56.4,4843.36 -633.27,7402.55l15.33 182.57"/>
   <g>
    <path class="fil1" d="M10356.34 6138.6c2090.89,-1271.83 2325.22,-949.53 2940.98,1502.37 242.33,964.92 399.42,1491.01 523.05,2479.29 122.69,980.65 709.88,1888.04 910.83,2970.42 -351.53,-1217.25 -987.1,-1853.59 -1263.54,-3170.19 -118.29,-563.31 -1066.92,-3378.61 -1385.88,-3715.07 -144.43,-152.35 -1108.29,632.3 -1197.96,699.65l-527.48 -766.47z"/>
   </g>
   <path class="fil0" d="M10620.08 6521.83c1988.53,-1368.43 1724.43,-886.58 2741.17,2253.45 476.2,1470.73 61.6,1225.96 849.03,2870.13 99.24,207.22 520.92,1235.38 520.92,1445.27"/>
   <g>
    <path class="fil1" d="M10065.03 5212.46c1010.62,-874.2 2447.44,-1867.57 2820.82,114.78 150.4,798.55 52.27,2114.89 -37.27,2937.67 -109.85,1009.36 393.28,1278.62 1356.52,1660.63 326.41,129.45 499.42,115.38 838.89,126.49l-229.02 15.46c-703.6,40.26 -2001.38,-393.71 -2233.57,-1141.6 -92.12,-296.72 -83.9,-1686.39 -123.26,-2162.49 -176.74,-2138.41 -344.97,-2364.6 -1729.88,-898.37l-663.23 -652.57z"/>
   </g>
   <path class="fil0" d="M10396.64 5538.74c2320.78,-2358.7 2281.33,-11.12 2323.68,1966.19 23.27,1086.82 -529.67,1778.71 1470.81,2461.55 361.14,123.27 504.85,85.55 852.86,85.55"/>
   <g>
    <path class="fil1" d="M11022.25 6987.05c-2.36,-0.13 -931.53,-17.97 -995.12,-32.51l-0.23 -0.14c-127.77,225.53 -602.15,1471.15 -655.68,1718.34 -357.39,1650.36 -100,4020.5 -270.46,5803.2 -9.58,-1850.79 -646.57,-4918.09 -175.35,-6551.22 522.95,-1812.42 299.42,-1784.85 2096.84,-1868.11l0 930.44zm-987.42 -46.13c1.59,-2.16 3.26,-4.68 5.37,-8.19 -1.68,2.41 -3.47,5.13 -5.37,8.19z"/>
   </g>
   <path class="fil0" d="M11022.25 6521.83c-1672.69,0 -1138.28,-124.78 -1795.11,1523.16 -508.21,1275.08 -18.62,4958.32 -126.38,6430.95"/>
   <g>
    <path class="fil1" d="M9447.66 10694.75c-1265.56,-2.23 -3223.09,-12.46 -2462.92,-1910.19 288.85,-721.08 750.47,-1100.54 978.97,-1709.13 9.79,-26.11 361.22,-1274.83 546.43,-1200.58 -185.81,-45.99 -360.01,1227.13 -365.18,1249.34 -164.27,706.05 -878.84,1619.65 -774.77,2344.39 101.34,705.74 1597.79,355.23 2009.26,298.23l68.21 927.94z"/>
   </g>
   <path class="fil0" d="M9413.56 10230.78c-1472.62,108.28 -3478.81,300.58 -1476.74,-2785.65 134.24,-206.93 369.33,-1660.35 573.32,-1570.28"/>
   <g>
    <path class="fil1" d="M12957.18 9304.94c551.89,-676.99 762.44,-866.95 1462.85,-1183.9 -547.31,-746.75 -2056.06,-2186.66 -2615.63,-2659.97 -588.93,-498.15 -1365.77,-1081.95 -1854.61,-1665.08 444.92,428.6 977.19,755.79 1487.93,1099.73 1089.73,733.85 1603.32,1113.92 2569.63,1963.71 332.91,292.76 1574.84,1139.12 1120.6,1662.97 -401.17,462.67 -674.88,186.22 -1393.28,1293.63l-777.49 -511.09zm1570.11 -1026.25c2.53,5.01 5.51,9.88 9.02,14.57 -2.86,-4.75 -6.04,-9.73 -9.02,-14.57z"/>
   </g>
   <path class="fil0" d="M13345.92 9560.49c1349.3,-2052.6 2741.54,-237.21 -259.18,-3230.16 -633.92,-632.3 -2876.25,-2137.62 -3136.95,-2534.34"/>
   <g>
    <path class="fil1" d="M9956.9 5442.63c-332.25,-383.45 -462.03,-405.66 -743.08,115.62 -445.59,826.51 -404.03,3118.51 -414.99,4148.97 -9.44,887.92 -42.59,1811.55 212.56,2668.48l-154.19 -371.55c-283.96,-908.4 -531.63,-4299.61 -546.14,-5307.39 -22.45,-1557.57 823.65,-3263.62 2346.59,-1866.24l-700.75 612.11z"/>
   </g>
   <path class="fil0" d="M10307.27 5136.57c-1014.17,-1161.07 -1698.07,445.26 -1698.07,1560.19 0,1087.13 -3.6,5063.26 402.19,5678.94"/>
   <g>
    <path class="fil1" d="M10336.08 5982.42c296.35,-1067.76 3290.22,-2336.46 2860.7,2482.59 -121.23,1360.16 -422.69,2588.46 579.74,3811.06 427.55,521.46 808.43,692.1 1446.22,769.93 -1367.72,-46.57 -2118.24,-1069.95 -2440.2,-2335.5 -319.39,-1255.5 236.54,-3759.33 -589.78,-4735.86 -278.67,-329.31 -803.04,-39.89 -951.12,188.41 3.1,-10.23 3.79,-24.86 19.94,-84.89l-925.5 -95.74zm905.56 180.63c-7.74,11.94 -14.51,23.72 -20.11,35.24 13.8,-22 17.69,-27.28 20.11,-35.24z"/>
   </g>
   <path class="fil0" d="M10798.83 6030.29c36.58,-353.71 2673.34,-2343.65 2067.04,3414.01 -167.59,1591.48 735.12,3601.7 2356.87,3601.7"/>
   <path class="fil0 str0" d="M13878.33 5989.98c0,-454.09 345.12,-822.22 770.83,-822.22 425.72,0 770.83,368.13 770.83,822.22 0,908.2 -690.22,1644.45 -1541.66,1644.45 -851.44,0 -1541.66,-736.25 -1541.66,-1644.45 0,-1362.29 1035.33,-2466.66 2312.49,-2466.66 1277.16,0 2312.51,1104.37 2312.51,2466.66 0,1816.4 -1380.46,3288.89 -3083.34,3288.89 -1702.88,0 -3083.34,-1472.49 -3083.34,-3288.89 0,-2270.49 1725.58,-4111.11 3854.17,-4111.11 2128.61,0 3854.17,1840.62 3854.17,4111.11 0,2724.61 -2070.68,4933.34 -4625,4933.34 -2554.32,0 -4625,-2208.73 -4625,-4933.34 0,-3178.69 2415.8,-5755.55 5395.83,-5755.55 2980.04,0 5395.84,2576.86 5395.84,5755.55 0,3632.81 -2760.92,6577.78 -6166.67,6577.78 -3405.75,0 -6166.67,-2944.97 -6166.67,-6577.78"/>
   <path class="fil0 str0" d="M7711.66 5989.98c0,-454.09 -345.11,-822.22 -770.83,-822.22 -425.71,0 -770.83,368.13 -770.83,822.22 0,908.2 690.22,1644.45 1541.66,1644.45 851.45,0 1541.67,-736.25 1541.67,-1644.45 0,-1362.29 -1035.34,-2466.66 -2312.5,-2466.66 -1277.16,0 -2312.51,1104.37 -2312.51,2466.66 0,1816.4 1380.47,3288.89 3083.34,3288.89 1702.88,0 3083.34,-1472.49 3083.34,-3288.89 0,-2270.49 -1725.58,-4111.11 -3854.17,-4111.11 -2128.6,0 -3854.17,1840.62 -3854.17,4111.11 0,2724.61 2070.68,4933.34 4625,4933.34 2554.32,0 4625.01,-2208.73 4625.01,-4933.34 0,-3178.69 -2415.8,-5755.55 -5395.84,-5755.55 -2980.03,0 -5395.83,2576.86 -5395.83,5755.55 0,3632.81 2760.91,6577.78 6166.66,6577.78 3405.75,0 6166.67,-2944.97 6166.67,-6577.78"/>
  </g>
 </g>
</svg>
