<?xml version="1.0" encoding="UTF-8"?>
<!DOCTYPE svg PUBLIC "-//W3C//DTD SVG 1.1//EN" "http://www.w3.org/Graphics/SVG/1.1/DTD/svg11.dtd">
<!-- Creator: CorelDRAW 2018 -->
<svg xmlns="http://www.w3.org/2000/svg" xml:space="preserve" width="185mm" height="185mm" version="1.1" style="shape-rendering:geometricPrecision; text-rendering:geometricPrecision; image-rendering:optimizeQuality; fill-rule:evenodd; clip-rule:evenodd"
viewBox="0 0 18500 18500"
 xmlns:xlink="http://www.w3.org/1999/xlink">
 <defs>
  <style type="text/css">
   <![CDATA[
    .fil1 {fill:none}
    .fil0 {fill:white;fill-rule:nonzero}
   ]]>
  </style>
 </defs>
 <g id="Слой_x0020_1">
  <metadata id="CorelCorpID_0Corel-Layer"/>
  <g id="_903868136">
   <g>
    <path class="fil0" d="M557.06 10928.76c-239.88,-1193.12 -527.81,-6153.47 -556.86,-7573.95 -1.62,-146.22 3.14,-327.99 188.09,-327.99 183.52,0 190.11,177.64 191.76,323.79 7.62,1656.23 406.82,6434.37 177.01,7578.15z"/>
   </g>
   <path class="fil1" d="M188.29 3026.82c0,2631.83 368.77,5270.33 368.77,7901.94"/>
   <g>
    <path class="fil0" d="M9512.58 6450.99c-3.49,-0.15 -37.4,-37.77 -42.37,-42.43 -7.84,-9.71 -60.64,-46.45 -72.55,-54.6 -66.73,-45.51 -136.57,-81.29 -204.49,-123.26 -82.97,-47.57 -235.78,-117.25 -302.29,-161.3 -1109.41,-1109.72 -1213.97,-816.67 -2008.08,-1428.57 -420.27,-351.17 -835.62,-536.99 -1349.61,-713.69 -596.63,-190.58 -1143.45,-296.51 -1762.25,-382.06 -1083,-131.04 -2046.41,-166.53 -3127.98,-169.18 -158.29,-4.2 -343.64,2.27 -349.3,-191.04 5.75,-194.35 193.53,-186.54 351.88,-188.81 1079.3,12.07 2099.02,80.61 3171.19,233.79 636.76,103.07 1195.37,226.26 1805.34,441.58 544.11,203.27 974.2,413.73 1408.87,805.83 716.84,615.67 927.08,443.88 1935.19,1521.28 -72.51,-51.52 181.93,111.28 267.24,167.56 68.1,47.25 133.15,94.32 193.87,150.94 27.01,21.5 43.74,46.76 65.18,71.77 4.14,5.94 36.12,55.47 20.16,62.19z"/>
   </g>
   <path class="fil1" d="M293.66 3184.86c1876.48,0 5236.23,82.22 6663.21,1374.18 455.26,412.21 711.67,142.7 1971.71,1475.02 2.34,2.48 562.16,296.78 584,416.93"/>
   <g>
    <path class="fil0" d="M18152.02 10138.54c-5.73,67.13 -1194.13,100.61 -1195.9,121.05 -1207.66,14.06 -2250.15,-618.44 -3362.33,-882.46 -348.18,-78.12 -687.84,-301.24 -982.07,-496.43 -421.2,-283.06 -820.06,-586.35 -1221.97,-895.56 -491.79,-381.37 -1213.66,-982.54 -1757.93,-1276 -133.02,-71.93 -159.93,-112.59 -119.24,-258.15 48.03,-171.88 159.31,-152 299.93,-75.97 544.2,300.4 1299.37,950.22 1787.82,1342.83 389.28,313.24 776.19,621.85 1182.89,912.67 244.25,169.42 577.84,399.89 866.14,478.38 1101.44,322.11 2134.23,954.17 3302.4,1013.99 102.42,0.25 1197.55,-40.32 1200.26,15.65z"/>
   </g>
   <path class="fil1" d="M9512.58 6450.99c714.81,199.79 3202.08,2604.21 4108.99,2792.02 539.61,111.75 2346.47,979.68 3332.37,948.23 193.94,-6.19 1170.42,-55.06 1198.08,-52.7"/>
   <g>
    <path class="fil0" d="M9512.58 7399.22c11.45,12.01 -157.92,193.07 -169.3,204.61 -2.21,2.36 -5.1,4.82 -7.75,6.66 -1668.95,1286.02 -1802.97,2118.86 -4025.84,2785.52 -1574.13,366.07 -2702.17,360.19 -4274.99,355.52 -153.31,-3.67 -417.41,9.33 -424.97,-191.54 7.59,-202.06 274.67,-186.6 427.55,-188.31 1561.78,17.82 2620.6,71.92 4204.28,-252.8 2241.72,-616.16 2316.26,-1435.35 4058.35,-2560.66l0.16 0.19c0.84,0.19 200.25,-172.04 212.51,-159.19z"/>
   </g>
   <path class="fil1" d="M609.73 10559.99c1655.7,0 3076.65,88.13 4665.9,-302.55 2105.64,-517.6 2310.81,-1480.52 4044.29,-2674.61l192.66 -183.61"/>
   <g>
    <path class="fil0" d="M10882.25 5450.09c19.63,44.4 -170.91,350.24 -199.41,390.46 -709.8,843.98 -485.53,800.27 -932.55,1540.22 -66.79,106.15 -149.79,76.19 -237.71,18.45 -84.62,-55.56 -148.27,-118.25 -83.81,-220.72 484.32,-743.44 418.15,-755.57 1135.11,-1450.63 49.96,-43.99 266.3,-296.79 318.37,-277.78z"/>
   </g>
   <path class="fil1" d="M9512.58 7399.22c554.78,-844.57 214.75,-668.89 1110.78,-1615.01 82.28,-86.86 162.89,-231.83 258.89,-334.12"/>
   <g>
    <path class="fil0" d="M15518.03 2658.07c-384.45,338.23 -1155.11,-26 -2791.71,1240.57 -663.94,546.42 -929.31,804.47 -1481.98,1430.37 -93.7,104.94 -227.38,240.82 -362.09,121.08 -134.92,-119.93 -14.96,-269.13 78.81,-374.13 566.91,-626.89 902,-890.83 1581,-1409.83 1017.29,-747.92 1754.32,-1007.47 2975.97,-1008.06z"/>
   </g>
   <path class="fil1" d="M10882.25 5450.09c845.04,-950.75 859.82,-960.7 1751.96,-1667.71 1858.41,-1472.68 1596.56,-638.18 2883.82,-1124.31"/>
   <g>
    <path class="fil0" d="M17309.16 2552.7c0,88.85 -1551.3,298.25 -1735.94,296.51 -68.94,-0.65 -56.68,-147.74 -55.19,-191.14 1.31,-37.61 -0.21,-189.27 58.8,-188.71 298.97,15.93 1609.29,-48.44 1732.33,83.34z"/>
   </g>
   <path class="fil1" d="M15518.03 2658.07c443.79,15.31 1300.34,-105.37 1791.13,-105.37"/>
   <g>
    <path class="fil0" d="M18152.02 2552.7c0,94.39 -708.28,189.93 -808.08,189.93 -40.17,0 -34.78,-164.91 -34.78,-189.93 0,-25.01 -5.39,-189.92 34.78,-189.92 99.8,0 808.08,95.54 808.08,189.92z"/>
   </g>
   <path class="fil1" d="M17309.16 2552.7c280.95,0 561.9,0 842.86,0"/>
   <g>
    <path class="fil0" d="M18310.05 8926.93c-96.53,-247.44 -326.77,-5276.64 -433.76,-6235.32 -13.81,-138.72 43.3,-176.64 170.36,-191.58 129.82,-15.24 193.53,12.6 207.62,153.94 73.27,871.73 240.83,5797.7 55.78,6272.96z"/>
   </g>
   <path class="fil1" d="M18046.65 2500.03c152.19,1295.79 263.4,5069.21 263.4,6426.9"/>
   <g>
    <path class="fil0" d="M18415.42 10296.58c-4.73,24.01 -42.4,13.5 -56.43,7.28 -21.47,-9.83 -35.31,-23.33 -50.02,-41.57 -37.46,-42.27 -56.72,-91.77 -74.11,-144.78 -50.43,-138.56 -68.38,-286.27 -82.75,-432.27 -18.2,-244.4 -22.43,-489.39 -32.36,-734.2 0.75,-30.08 169.83,-24.11 190.3,-24.11 24.61,0 190.46,-6.59 189.46,33.54 -18.72,234.38 -58.48,482.89 -79.82,724.15 -13.29,134.79 -22.25,270.71 -29.53,405.98 -1.96,36.21 2.49,90.19 4.98,128.14 0.68,10.52 4.95,26.35 6.81,37.58 1.81,11.11 14.38,31.52 13.47,40.26z"/>
   </g>
   <path class="fil1" d="M18310.05 8926.93c0,216.34 -99.55,1348.46 105.37,1369.65"/>
   <g>
    <path class="fil0" d="M5193.09 16073.81c-1.77,5.1 -11.73,-1.43 -13.09,-1.87 -4.58,-1.4 -10.33,-9.77 -13.1,-11.6 -10.08,-6.66 -20.94,-33.79 -27.35,-41.22 -24.76,-43.37 -42.93,-93.67 -59.35,-140.68 -50,-136.6 -88.48,-280.95 -125.35,-421.6 -40.1,-160.34 -113.02,-531.08 -165.44,-664.01 -795.63,-2421.6 -1211.54,-4873.9 -2093.01,-7498.36 -42.43,-130.88 -288.05,-756.06 -84.84,-843.48 216.47,-56.4 400.45,593.58 445.19,723.31 958.99,2912.38 1151.96,4881.88 1869.17,7575.91 44.08,227.16 81.82,456.91 125.87,685.01 29.93,140.99 54.76,285.55 83.47,427.45 9.61,47.44 22.77,96.81 34.53,144.07 3.39,13.59 9.18,29.67 13.66,43.3 1.4,4.2 3.83,9.05 5.54,13.35 0.9,2.3 5.01,7.81 4.1,10.42z"/>
   </g>
   <path class="fil1" d="M2611.56 6450.99c1965.78,5735.26 1458.78,5797.36 2246.11,8320.53 28.93,92.71 247.66,1271.89 335.42,1302.29"/>
   <g>
    <path class="fil0" d="M6878.6 15933.29c-17.02,-27.35 -1459.93,-4245.79 -1693.5,-4791.18 -537.08,-1214.84 -1369.62,-3119.35 -2133.95,-4210.04 -83.5,-120.42 -75.41,-179 34.53,-270.37 118.9,-98.81 189.61,-73.02 277.65,53.94 737.4,1089.22 1574.82,3106.48 2080.17,4317.25 218.17,543.05 1741.06,4404.01 1435.1,4900.4z"/>
   </g>
   <path class="fil1" d="M3085.68 6661.7c885.73,1065.92 3792.92,7645.69 3792.92,9271.59"/>
   <g>
    <path class="fil0" d="M8933.09 16144.02c-696.79,-2513.4 -169.36,-2135.16 -1856.32,-4828.06 -824.91,-1265.87 -1874.25,-2675.14 -2485.5,-4048.49 -58.36,-142.02 -165.81,-368.9 22.12,-447.73 185.32,-63.03 261.36,153.43 325.94,295.6 604.71,1391.8 1576.59,2756.18 2375.52,4052.44 629.88,1069.46 1976.76,3688.57 1618.24,4976.24z"/>
   </g>
   <path class="fil1" d="M4613.39 6819.74c1126.83,2969.68 4319.7,5714.54 4319.7,9324.28"/>
   <g>
    <path class="fil0" d="M2190.12 5976.88c-42.72,-67.57 172.66,-295.8 225.64,-339.26 114.33,-81.85 213.41,-118.28 351.97,-140.52 291.22,-35.15 530.99,31.67 800.31,136.17 464.44,202.83 771.83,417.52 1189.83,671.75 62.37,39.79 -14.19,155.46 -39.14,198.64 -29.71,51.42 -90.22,169.39 -165.1,121.61 -397.87,-265.93 -647.27,-491.85 -1101.51,-735.07 -218.36,-108.23 -421.82,-190.79 -668.55,-197.85 -110.81,2.08 -192.45,18.35 -292.87,65.61 -71.21,36.46 -294.3,219.35 -300.58,218.92z"/>
   </g>
   <path class="fil1" d="M4718.73 6503.66c-454.55,-262.66 -1925.67,-1540.19 -2528.61,-526.78"/>
   <g>
    <path class="fil0" d="M3296.39 4343.82c19.16,-190.89 34.53,350.61 -789.79,2258.15 -39.7,86.42 -147.62,34.34 -211.11,7.06 -68.13,-29.28 -176.96,-72.24 -134.09,-165.6 232.46,-472.99 1236.25,-2121.54 1134.99,-2099.61z"/>
   </g>
   <path class="fil1" d="M2295.49 6609.03c273.39,-636.2 1494.92,-2810.31 1000.9,-2265.21"/>
   <g>
    <path class="fil0" d="M7142 11455.55c-1.86,-5.67 79.96,-151.91 89.66,-174.53 27.91,-73.17 43.59,-138.53 56.37,-215.84 26.01,-198.82 18.42,-375.87 -1.68,-575.04 -69.03,-523.14 -205.63,-975.6 -398.79,-1465.77 -205.95,-494.43 -426.27,-922.28 -762.32,-1341.71 -135.08,-162.08 -262.35,-294.95 -437,-414.19 -82.07,-53.48 -151.51,-91.44 -243.93,-122.08 -123.23,-41.34 -153.87,-93.05 -146.1,-221.28 13.72,-173.16 113.21,-181.87 266.93,-138.85 125.06,43 226.66,102.38 335.24,177.98 201.68,149.14 344.32,306.22 497.48,504.29 339.06,463.76 552.07,920.64 745.3,1459.87 174.71,518.66 293.21,1000.93 313.58,1549.77 5.26,214.19 -2.8,403.77 -61.28,610.87 -24.64,84.03 -51.02,152.13 -97.94,226.26 -14.43,21.59 -118.99,159.91 -155.52,140.25z"/>
   </g>
   <path class="fil1" d="M5298.21 6925.11c1340.53,81.19 2623.94,3878.75 1843.79,4530.44"/>
   <g>
    <path class="fil0" d="M13568.91 16038.65c-9.93,0 -16.65,-129.1 -17.86,-141.39 -2.9,-17.76 -6.69,-29.99 -14.97,-46.07 -2.42,-7.25 -34.93,-48.85 -39.35,-50.62 -520.87,-549.34 -730.34,-1258.61 -882.87,-1982.88 -170.04,-915.6 -196.02,-1742.34 -173.47,-2670.57 69.94,-1543.73 249.54,-3039.34 563.06,-4551.09 31.52,-147.4 72.71,-290.23 249.38,-250.41 175.3,39.51 153.56,182.59 122.07,329.8 -334.46,1525.78 -544.54,2916.18 -652.99,4483.9 -46.57,907.5 -45.21,1723.08 82.66,2624.99 127.33,739.51 290.47,1364.38 740.13,1974.6 17.89,23.12 30.99,43.03 41.16,70.56 10.2,18.39 8.56,45.05 10.92,64.96 1.21,10.42 -19.26,144.22 -27.87,144.22z"/>
   </g>
   <path class="fil1" d="M13252.83 6345.62c-485.94,2156.54 -1394.47,7519.04 267.89,9434.14 77.58,89.41 48.19,133.83 48.19,258.89"/>
   <g>
    <path class="fil0" d="M14359.1 16144.02c-12.82,-0.37 -19.76,-142.88 -19.88,-153.4 -0.03,-1.18 -0.06,1.28 -0.13,-0.65 -244.96,-3365.35 -644.41,-5188.76 -196.61,-8672.13 20.69,-138.82 52.23,-570.93 269.29,-550.77 208.9,42.03 124.25,462.1 107.17,601.41 -490.42,3563.3 -67.01,5303.96 -130.88,8620.71 -0.03,0.5 -0.06,3.39 -0.16,3.45 -1.05,0.91 -14.77,151.79 -28.8,151.38z"/>
   </g>
   <path class="fil1" d="M14411.77 6767.07c-695.56,4749.54 -134.8,5272.66 -48.16,9223.43l-4.51 153.52"/>
   <g>
    <path class="fil0" d="M15465.36 14352.9c-69.84,0 -343.88,-6262.95 -347.18,-6911.12 -0.75,-147 9.36,-305.97 189.15,-305.97 179.13,0 189.95,157.14 190.7,304.04 -3.58,1370.17 170.67,5978.08 -32.67,6913.05z"/>
   </g>
   <path class="fil1" d="M15307.33 7135.81c0,2469.63 158.03,4784.24 158.03,7217.09"/>
   <g>
    <path class="fil0" d="M12093.86 8294.78c-161.12,-155.92 28.84,-1084.71 98.93,-1298.68 153.4,-402.75 350.86,-726.29 626.93,-1054.63 75.81,-87.17 155.67,-24.73 222.37,35.41 63.81,57.52 136.88,130.38 64.24,213.88 -277.56,309.85 -461.92,536.24 -658.07,912.7 -77.18,165.19 -335.42,1173.03 -354.4,1191.32z"/>
   </g>
   <path class="fil1" d="M13042.09 5976.88c-659.87,731.89 -948.23,1356.57 -948.23,2317.9"/>
   <g>
    <path class="fil0" d="M15043.92 5028.65c18.51,25.48 -118.72,161.24 -135.61,175.64 -7.99,6.35 -14.96,10.36 -24.42,14.19 -541.59,259.3 -1117.44,661.52 -1578.49,869.58 -53.69,21.03 -94.82,-131.56 -105.27,-163.85 -6.91,-21.38 -63.71,-177.92 -33.23,-189.84 576.41,-183.67 986.84,-466.08 1675.92,-636.6 0.19,-0.06 -7.52,4.26 -7.96,5.66 -0.31,1.06 188.62,-102.94 209.06,-74.78z"/>
   </g>
   <path class="fil1" d="M13200.13 5924.21c239.7,-77.5 926.11,-516.27 1667.71,-767.61l176.08 -127.95"/>
   <g>
    <path class="fil0" d="M15412.7 7135.81c-4.2,-10.29 14.21,-44.17 18.48,-59.95 3.91,-7.21 3.98,-34.68 3.45,-43.33 -1.62,-26.97 -25.11,-92.93 -37.02,-116.07 -70.87,-132.81 -153.72,-263.53 -229.59,-394.07 -224.83,-334.25 -443.54,-869.55 -467.96,-1275.82 -6.5,-108.04 106.83,-111.47 185.82,-112.55 68.78,-0.97 187.72,-3.92 193.35,89.75 18.32,456.41 135.33,774.91 295.05,1196.83 58.61,141.76 130.63,304.56 154.58,456.29 10.86,59.79 15.84,113.3 -4.23,171.75 -9.27,26.42 -19.76,44.77 -39.79,64.37 -7.44,10.67 -61.57,40.32 -72.14,22.8z"/>
   </g>
   <path class="fil1" d="M14885.88 5134.02c15.09,1084.52 836.67,1814.82 526.82,2001.79"/>
   <g>
    <path class="fil0" d="M3770.5 3606.3c37.89,0 67.38,838.6 70.18,891.05 29.18,519.1 150.67,890.93 400.85,1345.91 267.36,451.68 546.76,766.76 935.04,1117.16 724.02,608.82 1390.21,1004.13 2269.25,1334.55 138.13,52.73 222.56,108.76 170.3,263.19 -53.85,159.06 -165.72,145.12 -305.75,91.68 -889.28,-347.31 -1626.14,-830.48 -2334.45,-1471.34 -397.78,-387.29 -678.23,-732.61 -937.47,-1225.92 -240.85,-495.89 -349.49,-902.72 -338.13,-1455.23 -8.19,-37.33 38.85,-891.05 70.18,-891.05z"/>
   </g>
   <path class="fil1" d="M7616.12 8558.16c-1645.5,-556.96 -3845.62,-2059.29 -3845.62,-4060.81 0,-297.04 0,-594.04 0,-891.05"/>
   <g>
    <path class="fil0" d="M8564.35 7662.63c-1006.94,-111.44 -1082.5,-412.52 -1808.58,-945.81 -526.13,-368.09 -902.74,-844.01 -1243.05,-1382.27 -166.72,-274.82 -300.46,-530.14 -415.6,-830.23 -60.54,-168.55 -114.58,-341.21 -137.16,-519.5 -18.73,-153.19 24.35,-228.75 180.22,-220.48 130.41,6.94 180.34,39.79 196.83,174.37 18.6,157.42 55.72,292.03 104.99,443.16 95.98,281.52 212.2,523.89 356.4,784.03 296.82,513.72 632.43,978.66 1097.68,1353.38 1484.19,1165.4 96.44,164.91 1668.27,1143.35z"/>
   </g>
   <path class="fil1" d="M5140.18 3764.34c-39.79,749.25 852.22,2261.88 1685.75,2853.71 1344.13,954.39 -139.5,394.1 1738.42,1044.58"/>
   <g>
    <path class="fil0" d="M8933.09 7241.18c-8.52,1.46 -45.23,-36.77 -50.08,-42.56 -5.14,-6.12 -51.83,-39.47 -59.14,-43.64 -58.02,-32.98 -124.01,-75.26 -183.4,-102.73 -196.42,-98.18 -360.12,-190.05 -540,-319.03 -240.92,-176.39 -399.48,-338.85 -558.11,-593.55 -160.31,-278.12 -248.88,-545.48 -270.41,-865.69 -6.84,-125.06 85.09,-139.96 186.13,-139.96 89.72,0 187.03,7.62 193.13,119.18 12.2,281.54 51.36,473.58 168.21,734.53 118.81,232.27 243.25,383.56 430.44,562.81 154.55,139 311.69,251.74 468.95,383.06 59.95,47.72 117.75,95.29 165.47,155.67 20.04,24.24 35.97,46.76 47.82,76 6.38,11.14 22.37,72.24 0.99,75.91z"/>
   </g>
   <path class="fil1" d="M7458.08 5134.02c0,1529.2 1420.54,1789.37 1475.01,2107.16"/>
   <g>
    <path class="fil0" d="M9512.58 6767.07c-78.83,70.03 -448.92,-85.96 -543.37,-158.97 -86.33,-80.45 -128.33,-158.07 -164.97,-269.29 -38.21,-115.11 -59.08,-236.44 -62,-357.8 0.37,-67.82 148.36,-57.89 190.85,-56.8 37.71,0.96 189.34,-0.47 189,58.89 -3.11,98.87 -10.05,180.44 -4.92,281.82 8.28,62.04 18.36,111.13 48.6,166.47 21.34,86.98 369.95,283.97 346.81,335.68z"/>
   </g>
   <path class="fil1" d="M8933.09 5924.21c-16.61,642.39 181.84,664.72 579.49,842.86"/>
   <g>
    <path class="fil0" d="M5403.58 10033.2c-7.25,1.87 -35.15,-64.96 -38.45,-72.2 -4.98,-10.99 -37.86,-50.34 -46.48,-52.18 -2230.42,-1878.91 -2919.01,-3514.39 -3591.01,-6285.97 -32.2,-149.7 -98.84,-386.72 93.73,-437.99 194.53,-36.81 238.27,202.4 276.01,351.04 682.99,2977.34 1133.61,4096.12 3258.64,6332.64 23.27,25.13 37.3,45.73 45.54,79.11 3.21,6.16 10.52,83.37 2.02,85.55z"/>
   </g>
   <path class="fil1" d="M1821.37 3184.86c725.33,3191.62 1321.46,4669.9 3515.98,6703.84 51.05,47.35 49.53,79.51 66.23,144.5"/>
   <g>
    <path class="fil0" d="M5825 10401.95c-35.56,6.09 -95.35,-33.45 -128.21,-44.61 -43.3,-14.72 -91.4,-39.83 -133.33,-52.33 -64.96,-26.85 -197.08,-73.45 -253.33,-105.4 -21.22,-14.53 83.28,-152.28 93.45,-166.41 8.25,-11.45 108.83,-155.45 121.08,-147.05 63.22,55.9 144.73,135.42 201.81,195.61 42.9,48.82 77.03,92.8 104.47,152.22 20.56,33.76 57.58,157.08 -5.94,167.97z"/>
   </g>
   <path class="fil1" d="M5403.58 10033.2c105.93,76.31 397.28,227.94 421.42,368.75"/>
   <g>
    <path class="fil0" d="M11092.96 7135.81c-33.53,-19.6 -135.79,-440.33 -295.48,-635.6 -68.85,-76.88 -130.63,-124.04 -221,-173.25 -98.31,-48.5 -164.08,-67.48 -265.99,-97.35 -61.98,-19.47 -18.86,-158.94 -7.72,-200.06 13.63,-50.28 44.71,-186.48 121.58,-162.31 120.27,40.32 232.42,102.89 334.96,176.9 117.56,88.91 193.31,171.19 268.57,298.34 77.06,154.12 210.18,708.06 65.08,793.33z"/>
   </g>
   <path class="fil1" d="M10302.77 6029.55c572.83,155.2 790.19,520.81 790.19,1106.26"/>
   <g>
    <path class="fil0" d="M13463.54 9295.68c-21,0 -32.95,-139.72 -37.4,-145.38 -80.39,-857.73 -278.21,-1410.21 -691.79,-2171.25 -399.7,-679.25 -782.54,-1172.31 -1326.37,-1732.48 -97.75,-102.29 -96.16,-173.37 1.06,-270.59 99.64,-99.65 173.9,-96.13 273.55,8.18 531.51,566.73 942.66,1173.37 1299.46,1863.98 339.13,716.8 605.55,1499.59 509.86,2303.9 -3.98,22.62 -8.59,138.54 -28.37,143.64z"/>
   </g>
   <path class="fil1" d="M11409.04 4975.98c1091.92,1091.92 2089.18,2683.32 2049.99,4175.19 -0.78,29.37 4.51,106.77 4.51,144.51"/>
   <g>
    <path class="fil0" d="M16097.52 10191.24c-1168.93,-2135.88 -1400.85,-3668.57 -3165.22,-6206.45 -83.9,-122.61 -133.15,-228.13 4.45,-325.82 139.37,-98.93 224.74,-11.88 309.02,111.31 822.17,1230.83 2848.17,5072.87 2851.75,6420.96z"/>
   </g>
   <path class="fil1" d="M12936.75 3658.97c1222.37,1722.09 2642.79,4516.94 3160.77,6532.27"/>
   <g>
    <path class="fil0" d="M17256.46 2447.33c-26.67,158.63 -2597.03,474.96 -2959.37,554.26 -15.39,-2.21 -33.03,-149.86 -43.36,-185.48 -5.91,-20.16 -47.38,-185.35 -9.49,-190.67 356.27,-24.11 2966.95,-340.09 3012.22,-178.11z"/>
   </g>
   <path class="fil1" d="M14253.73 2816.11c22.83,-6.69 2884.2,-368.78 3002.73,-368.78"/>
   <g>
    <path class="fil0" d="M18310.05 9348.35c-100.73,0 -189.92,-1078.67 -189.92,-1210.52 0,-60.13 152.19,-53.79 189.92,-53.79 37.74,0 189.93,-6.34 189.93,53.79 0,131.85 -89.19,1210.52 -189.93,1210.52z"/>
   </g>
   <path class="fil1" d="M18310.05 8084.04c0,434.48 0,868.96 0,1264.31"/>
   <g>
    <path class="fil0" d="M18099.35 10085.87c-369.46,183.74 -1714.07,113.18 -2163.88,50.68 -118.91,-18.98 -117.07,-112.12 -101.36,-208.72 15.59,-95.82 43.34,-185.19 161.21,-166.37 242.97,43.74 2098.4,321.61 2104.03,324.41z"/>
   </g>
   <path class="fil1" d="M15834.11 9927.83c1100.51,179.13 1200.5,158.04 2265.24,158.04"/>
   <g>
    <path class="fil0" d="M18310.05 9927.83c12.73,1.43 13.29,18.45 12.17,28 -1.56,11.01 -5.66,19.76 -11.89,28.9 -13.56,22.15 -31.76,35.84 -53.6,49.31 -55.31,38.86 -121.64,57.96 -186.38,74.42 -182.49,52.2 -375.37,69.99 -563.99,84.71 -303.76,16.64 -607.89,20.19 -911.86,30.33 -29.71,-0.75 -22.87,-169.73 -22.87,-190.3 0,-24.42 -7,-190.42 32.51,-189.43 300.8,23.12 595.51,58.61 901.82,78.56 177.7,16.95 365.16,23.61 544.14,31.57 52.2,2.34 119.65,-2.39 173.44,-4.98 10.98,-0.52 35.93,-5.35 48.06,-7.74 4.92,-1 10.7,-3.17 15.68,-4.51 6.72,-1.84 16.12,-9.15 22.77,-8.84z"/>
   </g>
   <path class="fil1" d="M16571.63 10033.2c183.8,0 1728.81,100.58 1738.42,-105.37"/>
   <g>
    <path class="fil0" d="M18310.05 10243.91c-12.22,3.92 -78.14,-164.26 -83.65,-179.51 -5.51,-15.3 -10.11,-32.72 -14.37,-48.53 -2.59,-13.34 -4.55,-23.08 -1.19,-36.64 0.35,-5.82 7.78,-12.42 10.18,-16.15 1.99,-3.14 8.77,-5.35 11.73,-7.16 3.42,-2.05 9.7,-1.55 13.16,-2.14 6.09,-1.03 12.5,3.42 17.2,4.66 2.24,0.6 6.5,4.61 8.52,5.88 7.91,4.89 14.16,16.99 20.07,22.68 14.19,13.72 31.95,50.53 44.49,67.48 25.57,41.91 58.02,101.11 87.98,138.13 4.38,5.72 6.43,5.69 -0.1,0.96 -4.79,-2.95 -8.4,-4.35 -13.97,-5.66 -10.82,-2.11 -19.6,-0.75 -29.61,3.8 -8.93,4.66 -14.97,10.2 -19.94,18.94 -2.15,2.06 -3.27,9.37 -4.39,11.76 -1.99,9.99 -13.94,-48.16 -15.77,-54.75 -781.08,-2562.62 -1692.04,-4820.45 -3284.49,-6998.86 -89.04,-127.76 -214.01,-283.81 -64.65,-405.39 159.84,-113.99 278.59,59.08 372.23,182.52 1523.67,2141.08 2502.36,4643.47 3078.2,7195.81 7.16,31.58 15.99,65.99 10.83,98.44 0.09,4.85 -4.58,12.81 -6.16,17.2 -5.63,9.95 -12.45,16.49 -22.65,21.75 -11.29,5.25 -21.06,6.4 -33.23,4.16 -4.23,0.53 -14.56,-6 -18.44,-7.65 -10.18,-4.35 -18.73,-20.03 -25.55,-27.56 -21.4,-23.65 -59.91,-121.49 -79.45,-155.61 -11.73,-20.47 -22.21,-45.18 -33.69,-66.64 -0.87,-1.65 -7.13,-10.3 -6.41,-11.05 0,0 3.58,2.28 3.73,2.37 4.89,3.08 8.81,2.21 13.29,3.39 3.14,0.84 8.52,-1.4 11.54,-1.9 3.67,-0.59 7.56,-4.57 10.33,-6.28 4.48,-2.74 5.91,-8.9 8.05,-12.54 1.87,-7.78 -0.37,-5.6 0.87,5.6 0.94,14.87 3.86,30.02 6.72,44.61 -0.84,17.83 40.1,190.18 28.59,193.88z"/>
   </g>
   <path class="fil1" d="M14991.25 2763.41c1660.18,2177.88 2753.69,4865.59 3399.78,7391.31 89.91,351.54 -301.39,-597.94 -80.98,89.19"/>
   <g>
    <path class="fil0" d="M12126.84 9921.24c-297.41,-916.25 236.4,-2946.45 543.21,-3871.44 46.88,-135.52 111.21,-179.51 246.98,-132.19 135.45,47.23 158.78,121.17 111.99,256.41 -578.98,1606.36 -600.95,2819.15 -902.18,3747.22z"/>
   </g>
   <path class="fil1" d="M12917.03 5917.61c-558.64,1602.6 -790.19,2373.59 -790.19,4003.63"/>
   <g>
    <path class="fil0" d="M6068.71 7445.33c-90.65,21.34 -1027,-518.14 -1180.21,-610.38 -41.57,-28.37 56.18,-154.65 73.94,-179.82 15.87,-22.46 104.04,-158.59 140.28,-133.86 163.11,126.55 1056.34,744.74 965.99,924.06z"/>
   </g>
   <path class="fil1" d="M4962.44 6655.13c249.35,176.02 958.84,591.78 1106.27,790.2"/>
   <g>
    <path class="fil0" d="M17921.55 2493.44c0,78.21 -987.21,240.88 -1112.7,242.35 -52.64,0.62 -46.23,-157.45 -46.23,-189.65 0,-29.71 -5.79,-189.62 41.78,-190.18 197.36,9.46 1021.74,20.69 1117.15,137.48z"/>
   </g>
   <path class="fil1" d="M16762.62 2546.14c354.62,0 728.22,-52.7 1158.93,-52.7"/>
   <g>
    <path class="fil0" d="M15392.94 7392.63c-64.3,123.84 -1912.95,361.27 -2201.46,396.68 -60.63,4.66 -61.44,-147.87 -63.74,-185.95 -2.09,-34.47 -19.95,-188.62 34.68,-192.82 304.23,-9.61 2144.1,-174.18 2230.52,-17.91z"/>
   </g>
   <path class="fil1" d="M13127.74 7603.36c345.66,-21.03 1981.29,-210.73 2265.2,-210.73"/>
   <g>
    <path class="fil0" d="M5067.78 7181.92c-29.24,103.13 -417.24,108.57 -516.27,93.58 -161.43,-35.53 -279.36,-96.63 -425.11,-170.05 -408.13,-187.1 -640.03,-246.3 -1089.13,-257.93 -117.31,-4.61 -129.32,-95.98 -129.32,-192.39 0,-104.28 17.88,-192.1 144.16,-187.15 475.14,26.38 813.71,146.15 1201.5,420.6 115.07,78.18 220.84,156.08 349.27,211.74 70.65,28.09 463.5,80.17 464.9,81.6z"/>
   </g>
   <path class="fil1" d="M2907.95 6655.13c1352.94,0 1345.9,736.1 2159.83,526.79"/>
   <g>
    <path class="fil0" d="M3645.44 3389c1.18,2.96 651.94,2331.78 660.49,2371.6 9.18,65.46 -152.09,52.76 -186.38,51.64 -17.36,-0.59 -185.66,2.9 -189.8,1.09 20.04,-186.75 -535.52,-1783.96 -284.31,-2424.33z"/>
   </g>
   <path class="fil1" d="M4119.55 5812.24c5.63,-174.12 -474.11,-1079.01 -474.11,-2423.24"/>
   <g>
    <path class="fil0" d="M4224.92 5654.2c8.93,5.73 217.62,501.99 310.2,610.19 13.94,32.51 400.91,387.26 474.05,475.49 52.45,63.24 -56.9,144.6 -99.43,178.63 -39.38,31.51 -144.66,122.08 -192.94,63.84 -139.53,-176.71 -294.92,-367.78 -408.13,-559.95 -77.65,-148.7 -230.06,-673.93 -83.75,-768.2z"/>
   </g>
   <path class="fil1" d="M4909.74 6918.51c-387.81,-484.75 -684.82,-627.42 -684.82,-1264.31"/>
   <g>
    <path class="fil0" d="M4224.92 6286.36c-46.76,37.39 -184.54,-97.35 -214.66,-126.46 -738.33,-934.36 472.53,120.58 538.67,182.18 18.11,19.19 -99.71,139.96 -113.3,155.02 -22.52,24.91 -122.98,148.08 -163.02,105.61 -622.82,-728.25 -333.84,-958.77 -122.01,-532.97 -12.72,9.3 108.26,179.75 74.32,216.62z"/>
   </g>
   <path class="fil1" d="M4435.63 6497.1c-142.67,-128.86 -732.55,-969.92 -355.21,-382.31 28.84,44.86 107.05,137.07 144.5,171.57"/>
  </g>
 </g>
</svg>
