<?xml version="1.0" encoding="UTF-8"?>
<!DOCTYPE svg PUBLIC "-//W3C//DTD SVG 1.1//EN" "http://www.w3.org/Graphics/SVG/1.1/DTD/svg11.dtd">
<!-- Creator: CorelDRAW 2018 -->
<svg xmlns="http://www.w3.org/2000/svg" xml:space="preserve" width="185mm" height="185mm" version="1.1" style="shape-rendering:geometricPrecision; text-rendering:geometricPrecision; image-rendering:optimizeQuality; fill-rule:evenodd; clip-rule:evenodd"
viewBox="0 0 18500 18500"
 xmlns:xlink="http://www.w3.org/1999/xlink">
 <defs>
  <style type="text/css">
   <![CDATA[
    .str0 {stroke:#FEFEFE;stroke-width:20;stroke-miterlimit:2.61313}
    .fil3 {fill:#FEFEFE}
    .fil0 {fill:#030303}
    .fil2 {fill:#C72B27}
    .fil1 {fill:#F30403}
   ]]>
  </style>
 </defs>
 <g id="Слой_x0020_1">
  <metadata id="CorelCorpID_0Corel-Layer"/>
  <g id="_1379878800">
   <g>
    <path class="fil0 str0" d="M2392.69 5735.97c-111.7,246.04 -277.79,289.81 -416.46,469.45 28.77,325.61 316.94,209.1 637.74,207.88l218.39 -13 315.57 -69.1 127.77 -59.81 597.45 -101.59c-91.2,167.79 -147.06,195.54 -253.93,329.75 -93.21,117.06 -146.25,170.77 -251.62,288.84 0,63.6 16.06,48 -47.03,47.99l-119.57 143.49c-62.89,190.32 -119.94,168.93 -159.43,367.27l37.84 190.42 212.07 12.35c89.94,-71.42 227.67,-127.78 390.38,-145.5 130.82,-99.32 739.24,-316.18 933.39,-355.96 -62.09,566.93 -455.24,1065.34 -732.9,1300.32 -193.06,163.38 -959.63,651.78 -1238.32,758.46 53.93,-91.45 112.37,-157.92 176.85,-235.85l-16.12 7.71c-392.87,136.1 -22.5,206.53 -749.13,582.97l149.91 15.13c86.92,13.44 33.97,-4.22 72.78,17.91 -354.24,647.41 -763.79,1250.83 -1139.07,1835.58l-933.19 1309.75c-79.23,104.21 -290.32,351.77 -169.61,528.85 202.17,207.83 683.4,-158.7 896.84,-264.9l1742.04 -889.77c266.1,-131.03 657.76,-358.03 938.66,-448.48 144.08,2578.05 3191.28,3941.86 5214.72,4727.22 468.79,181.96 1349.24,488.29 1775.48,699.34 287.55,142.37 322.27,166.65 499.15,345.97 263.67,-241.89 -2071.45,-1188.71 -2141.86,-1217.62 -5786.23,-2375.34 -4626.33,-4640.83 -5117.69,-4976.88 -326.75,-223.47 -2955.08,1481.87 -3338.73,1612.31 82.71,-206.72 379.35,-582.2 516.62,-808.45l975.95 -1654c699.26,-1238.73 49.95,-629.97 1322.39,-1308.3 290.09,-154.64 601.08,-334.28 797.62,-517.32 230.24,-214.43 418.58,-394.66 597.91,-718.22 124.79,-225.13 373.03,-767.17 207.77,-1050 -207.45,-194.46 -838.91,152.67 -1116.96,210.97 116.08,-223.09 505.97,-547.03 496.96,-820.06 -14.98,-453.69 -679.88,-242.97 -989.34,-187.37l-184.17 30.75c-122.22,86.97 -349.19,143.04 -523.55,104.23 21.81,-97.51 207.96,-334.25 275.93,-390.56 64.81,-100.01 76.58,-124.64 169.06,-214.89 688.33,-687.17 873.81,-638.39 1532.48,-1489.95 111.51,-144.15 410.06,-288.51 582.3,-421.73 616.56,-476.88 1306.03,-1302.5 1583.97,-1434.99 241.15,-114.97 414.11,-241.56 658.34,-346.41 1293.19,-555.09 2207.27,177.86 2594.8,1079.16 979.09,2277.12 -683.7,5678.21 3577.26,8490.24 493.8,325.88 859.51,672.2 1142.14,868.78 124.94,86.91 161.51,120.27 280.12,222.71l849.97 658.52c398.51,298.2 752.65,552.04 1196.42,815.82 521.24,309.82 883.86,550.12 1450.95,188.57 -553.45,117.44 -501.9,296.82 -1509.48,-363.07 -1178.8,-772.03 -2398.21,-1958.23 -3569.35,-2774.62 -817.15,-569.62 -1535.44,-1330.94 -1979.48,-2233.65 -1283.74,-2609.79 -135.8,-5271.45 -1637.82,-6834.59 -889.2,-925.38 -2062.31,-866.13 -3087.76,-190.9 -110.73,72.9 -198.98,166.57 -276.7,218.61 -153.58,102.83 -74.41,-76.13 -289.37,182.76 -312.16,375.94 -127.09,181.94 -537,507.47 -279.77,222.16 -553.4,527.61 -781.72,804.63 -265,321.51 -1023.17,1105.48 -1348.45,1319.83 -512.01,337.42 -740.69,749.87 -1090.18,1035.53z"/>
    <path class="fil1 str0" d="M3041.57 7347.14c39.49,-198.34 96.54,-176.95 159.43,-367.27 -409.91,351.36 -423.01,657.86 -580.95,789.11 5.27,-556.29 349.04,-728.11 212.31,-1368.68l-218.39 13c65.69,484.96 -193.54,616.13 -295.41,999.13 -270.11,-128.74 -265.8,-264.44 -703.13,-302.71 -9.61,-515.52 -56.98,-744.22 360.8,-904.3 138.67,-179.64 304.76,-223.41 416.46,-469.45 -1095.77,567.82 -1024.99,317.88 -1077.7,1786.43 -24.27,676.79 41.16,1258.81 812.68,1357.74 402.56,51.61 517.31,-82.74 677.09,-1.05l16.12 -7.71c77.29,-190.03 861.43,-204.77 860.98,-1466.97 -162.71,17.72 -300.44,74.08 -390.38,145.5 -13.93,232.85 -3.83,318.86 -120.41,474.88 -94.12,125.96 -22.25,22.2 -97.12,176.29 -52,106.99 -77.32,104.79 -133.98,166.93l-50.46 -25.22c-2.32,-36.1 36.28,0.89 66.65,-68.28 37.38,-85.12 12.82,-21.58 20.56,-102.75 -267.74,-235.86 -215.17,-423.67 64.85,-824.62zm-858.92 897.3c104.49,74.57 118.75,42.73 189.4,156.75 18.51,29.86 15.71,50.01 47.6,96.86 227.56,-54.23 21.44,-33.11 214.46,-134.05l78.39 116.07c-1056.03,201.86 -1195.73,-181.06 -1091.54,-1264.65 237.62,77.27 335.35,191.69 458.35,355.7 235.47,313.98 45.44,276.1 103.34,673.32z"/>
    <path class="fil1 str0" d="M2882.19 5648.14l183.7 -33.1 63.92 319.43 184.17 -30.75c-140.92,-40.42 45.33,-344.47 -262.73,-470.47 -92.48,90.25 -104.25,114.88 -169.06,214.89z"/>
    <path class="fil2 str0" d="M3320.57 6836.38c63.09,0.01 47.03,15.61 47.03,-47.99 -58.93,-57.36 -8.26,78.98 -67.72,-90.84 -12.88,-36.8 -14.81,-95.62 -17.86,-138.72 -6.72,-95 -5.9,-192.23 -6.32,-287.44l-127.77 59.81c50.81,235.81 17.4,372.1 172.64,505.18z"/>
   </g>
   <path class="fil3 str0" d="M8961.48 16121.04c-5786.23,-2375.34 -4626.33,-4640.83 -5117.69,-4976.88 -326.75,-223.47 -2955.08,1481.87 -3338.73,1612.31 82.71,-206.72 379.35,-582.2 516.62,-808.45l975.95 -1654c699.26,-1238.73 49.95,-629.97 1322.39,-1308.3 290.09,-154.64 601.08,-334.28 797.62,-517.32 230.24,-214.43 418.58,-394.66 597.91,-718.22 124.79,-225.13 373.03,-767.17 207.77,-1050 -207.45,-194.46 -838.91,152.67 -1116.96,210.97 116.08,-223.09 505.97,-547.03 496.96,-820.06 -14.98,-453.69 -679.88,-242.97 -989.34,-187.37l-184.17 30.75c-122.22,86.97 -349.19,143.04 -523.55,104.23 21.81,-97.51 207.96,-334.25 275.93,-390.56 64.81,-100.01 76.58,-124.64 169.06,-214.89 688.33,-687.17 873.81,-638.39 1532.48,-1489.95 111.51,-144.15 410.06,-288.51 582.3,-421.73 616.56,-476.88 1306.03,-1302.5 1583.97,-1434.99 241.15,-114.97 414.11,-241.56 658.34,-346.41 1293.19,-555.09 2207.27,177.86 2594.8,1079.16 979.09,2277.12 -683.7,5678.21 3577.26,8490.24 493.8,325.88 859.51,672.2 1142.14,868.78 124.94,86.91 161.51,120.27 280.12,222.71l849.97 658.52c398.51,298.2 752.65,552.04 1196.42,815.82 521.24,309.82 883.86,550.12 1450.95,188.57 -553.45,117.44 -501.9,296.82 -1509.48,-363.07 -1178.8,-772.03 -2398.21,-1958.23 -3569.35,-2774.62 -817.15,-569.62 -1535.44,-1330.94 -1979.48,-2233.65 -1283.74,-2609.79 -135.8,-5271.45 -1637.82,-6834.59 -889.2,-925.38 -2062.31,-866.13 -3087.76,-190.9 -110.73,72.9 -198.98,166.57 -276.7,218.61 -153.58,102.83 -74.41,-76.13 -289.37,182.76 -312.16,375.94 -127.09,181.94 -537,507.47 -279.77,222.16 -553.4,527.61 -781.72,804.63 -265,321.51 -1023.17,1105.48 -1348.45,1319.83 -512.01,337.42 -740.69,749.87 -1090.18,1035.53 -111.7,246.04 -277.79,289.81 -416.46,469.45 28.77,325.61 316.94,209.1 637.74,207.88l218.39 -13 315.57 -69.1 127.77 -59.81 597.45 -101.59c-91.2,167.79 -147.06,195.54 -253.93,329.75 -93.21,117.06 -146.25,170.77 -251.62,288.84 0,63.6 16.06,48 -47.03,47.99l-119.57 143.49c-62.89,190.32 -119.94,168.93 -159.43,367.27l37.84 190.42 212.07 12.35c89.94,-71.42 227.67,-127.78 390.38,-145.5 130.82,-99.32 739.24,-316.18 933.39,-355.96 -62.09,566.93 -455.24,1065.34 -732.9,1300.32 -193.06,163.38 -959.63,651.78 -1238.32,758.46 53.93,-91.45 112.37,-157.92 176.85,-235.85l-16.12 7.71c-392.87,136.1 -22.5,206.53 -749.13,582.97l149.91 15.13c86.92,13.44 33.97,-4.22 72.78,17.91 -354.24,647.41 -763.79,1250.83 -1139.07,1835.58l-933.19 1309.75c-79.23,104.21 -290.32,351.77 -169.61,528.85 202.17,207.83 683.4,-158.7 896.84,-264.9l1742.04 -889.77c266.1,-131.03 657.76,-358.03 938.66,-448.48 144.08,2578.05 3191.28,3941.86 5214.72,4727.22 468.79,181.96 1349.24,488.29 1775.48,699.34 287.55,142.37 322.27,166.65 499.15,345.97 263.67,-241.89 -2071.45,-1188.71 -2141.86,-1217.62z"/>
  </g>
 </g>
</svg>
