<?xml version="1.0" encoding="UTF-8"?>
<!DOCTYPE svg PUBLIC "-//W3C//DTD SVG 1.1//EN" "http://www.w3.org/Graphics/SVG/1.1/DTD/svg11.dtd">
<!-- Creator: CorelDRAW 2018 -->
<svg xmlns="http://www.w3.org/2000/svg" xml:space="preserve" width="185mm" height="185mm" version="1.1" style="shape-rendering:geometricPrecision; text-rendering:geometricPrecision; image-rendering:optimizeQuality; fill-rule:evenodd; clip-rule:evenodd"
viewBox="0 0 18500 18500"
 xmlns:xlink="http://www.w3.org/1999/xlink">
 <defs>
  <style type="text/css">
   <![CDATA[
    .fil2 {fill:#FEFEFE}
    .fil0 {fill:#020202}
    .fil1 {fill:#F9F137}
   ]]>
  </style>
 </defs>
 <g id="Слой_x0020_1">
  <metadata id="CorelCorpID_0Corel-Layer"/>
  <g id="_1379837504">
   <g>
    <path class="fil0" d="M10469.17 13891.44c1050.8,-320.91 331.9,-1194.2 649.71,-2018.74 522.98,-101.97 987.99,403.4 1417.39,110.52 374.44,-255.4 54.33,-994.18 342.73,-1337.54 299.65,-356.8 1102.98,138.63 1100.84,-599.46 -1.43,-502.76 -319.43,-784.14 -265.22,-1441.03 382.9,-265.94 819.84,-375.07 1360.11,-393.09 373.85,-12.45 1490.38,177.81 1178.96,-464.02 -244.35,-503.61 -2102.01,-544.97 -1152.98,-2030.61 212.55,-332.77 552.51,-667.04 920.96,-887.44 357.67,-213.93 655.18,124.33 1007.23,525.31 1318.14,1501.42 757.43,3991.96 0.33,5647.61 -863.57,1888.56 -2918.51,4016.08 -5319.51,3467.75 -416.91,-95.22 -1028.21,-329.2 -1240.55,-579.26zm-5127.84 -3058.74c26.54,647.26 -157.28,1218.59 420.78,1438.44 662.2,251.83 1678.93,-282.26 1712.68,199.83 39.32,561.64 -377.02,799.44 741.36,809.31l124.91 864.82 -189.01 101.68c-90.69,45.97 -106.99,49 -207.22,103.92 -3964.46,2172.05 -6928.75,-2604.82 -7229.36,-5486.1 -131.19,-1257.51 186.39,-3103.84 1273.53,-3575.83 -132.15,1222.02 -738.66,3572.43 1138.61,3113.59 1848.28,-451.74 338.89,1542.29 1101.11,2297.42 304.59,301.74 682.31,130.62 1112.61,132.92zm9362.25 -3213.27c-2334.66,414.69 -1414.62,1518.47 -1258.91,2367.99 -1200.79,127.03 -1035.38,553.99 -1130.93,1657.37 -541.12,146.83 -1477.81,-548.33 -1551.17,385.31 -54.16,689.52 435.46,1542.17 -385.24,1749.81 9.25,-1470.38 297.3,-2641.15 -357.41,-3549.8 147.13,-786.64 -486.39,-2688.53 -724.19,-2827.75 -197.92,345.03 -3.69,1210.67 22.81,1609.59l-768.59 -150.68c-505.58,280.67 -741.73,1161.74 -1142.48,1319.96 -795.41,-1416.53 -713.95,-2943.81 -1157,-3413.96 -240.67,313.6 123.29,1937.96 196.25,2405.79 183.43,1176.17 415.71,1117.91 578.35,1467.97 73.17,157.45 48.08,413.92 97.43,653.21 772.25,231.08 1022.92,326.82 1075.66,1932.49 -1082.89,-174.29 -237.34,-492.38 -504.55,-1009.84 -312.05,-554.58 -1576.18,84.18 -1897.82,-421.8 -158.19,-384.11 135.35,-799.14 -57.57,-1172.73 -219.6,-425.3 -738.02,-183.92 -1150.28,-279.71 -171.82,-739.51 315.2,-1634.93 -114.18,-2250.81 -529.39,-759.38 -1374.62,-168.18 -1916.59,-322.53 -370.63,-986.38 530.95,-2763.58 236.87,-3533.92 -299.44,-327.3 -2339.23,537.8 -2725.55,2920.39 -661.83,4081.89 3596.1,9753.88 7480.99,7605.41 342.52,-189.44 534.57,-398.94 663.66,-465.69 150.57,-77.87 112.4,-20.48 256.24,-87.92 191.04,-695.02 415.81,-2537.33 -259.03,-3204.14l-293.9 -276.13 780.43 -956.83c248.98,1033.87 614,4080.89 1033.89,4743.8 331.01,-504.78 -140.61,-2855.8 -143.68,-3610.34 193.31,188.13 217.5,464.66 255.06,763.98 53.3,424.61 186.95,1846.05 330.07,2160.97 41.84,92.08 33.94,83.32 104.46,142.62 9.72,8.2 25.88,17.34 36.43,24.69 315.27,219.98 1020.03,627.04 1487.82,751.11 607.33,161.09 1181.31,170.2 1789.81,19.64 3693.58,-914.03 6591.33,-7226.24 3787.12,-10133.03 -855.24,-886.52 -1515.89,-927.01 -2507.67,170.91 -1431.58,1584.78 -397.93,2419.09 -166.61,2814.6z"/>
    <path class="fil1" d="M7365.14 6612.17c-513.77,228.9 -323.21,1085.15 -227.37,1236.41 200.83,316.92 905.55,371.65 1280.67,211.76 460.5,-196.28 663.54,-1269 -339.94,-1460.5 -182.15,-34.77 -531.65,-68.64 -713.36,12.33z"/>
    <path class="fil0" d="M6561.21 4196.63c-160.03,113.4 -322.93,297.61 -359.39,564.49 266.18,279.7 1143.69,774.08 1717.12,683.95 618.09,-97.15 995.84,-874.87 885.07,-1228.92 -121.53,-388.49 3.88,-83.18 -160.92,-217.25 -533.93,1854.36 -1563.13,302.58 -2081.88,197.73z"/>
    <path class="fil0" d="M6859.19 3891.04c621.61,576.93 1632.34,614.92 1257.7,-622.96 -189.26,60.86 -64.04,-68.11 -206.47,171.64 -51,85.85 -74.11,188.55 -102.09,277.15 -276.46,-114 -306.39,-290.73 -563.5,-435.77 -165.81,98.68 -338.52,351.56 -385.64,609.94z"/>
   </g>
   <path class="fil2" d="M4473.77 8091.84c-529.41,-759.38 -1374.64,-168.19 -1916.59,-322.53 -370.64,-986.38 530.94,-2763.58 236.86,-3533.93 -299.45,-327.29 -2339.23,537.81 -2725.56,2920.39 -661.82,4081.91 3596.11,9753.89 7481.01,7605.42 342.51,-189.44 534.55,-398.93 663.65,-465.69 150.57,-77.87 112.4,-20.48 256.25,-87.93 191.03,-695.01 415.8,-2537.33 -259.05,-3204.13l-293.89 -276.13 780.42 -956.83c248.99,1033.87 614.01,4080.89 1033.9,4743.8 331.01,-504.79 -140.61,-2855.8 -143.68,-3610.34 193.31,188.13 217.5,464.66 255.07,763.99 53.29,424.61 186.94,1846.05 330.06,2160.96 41.83,92.08 33.95,83.32 104.45,142.63 9.73,8.19 25.9,17.33 36.44,24.68 315.27,219.98 1020.04,627.04 1487.81,751.11 607.34,161.09 1181.31,170.2 1789.82,19.64 3693.58,-914.03 6591.32,-7226.23 3787.12,-10133.03 -855.24,-886.52 -1515.9,-927.01 -2507.67,170.91 -1431.58,1584.78 -397.92,2419.09 -166.6,2814.6 -2334.67,414.69 -1414.63,1518.47 -1258.93,2367.99 -1200.78,127.03 -1035.37,553.99 -1130.92,1657.36 -541.12,146.84 -1477.81,-548.32 -1551.16,385.32 -54.18,689.52 435.46,1542.17 -385.26,1749.82 9.26,-1470.4 297.31,-2641.16 -357.4,-3549.81 147.14,-786.64 -486.39,-2688.53 -724.2,-2827.75 -197.91,345.03 -3.68,1210.68 22.82,1609.59l-768.58 -150.68c-505.58,280.66 -741.74,1161.74 -1142.49,1319.97 -795.4,-1416.54 -713.95,-2943.82 -1157,-3413.97 -240.67,313.6 123.3,1937.96 196.25,2405.79 183.42,1176.16 415.71,1117.91 578.35,1467.97 73.17,157.44 48.08,413.93 97.43,653.21 772.25,231.08 1022.92,326.82 1075.66,1932.48 -1082.89,-174.29 -237.33,-492.38 -504.55,-1009.83 -312.04,-554.58 -1576.18,84.18 -1897.82,-421.8 -158.19,-384.12 135.35,-799.14 -57.57,-1172.74 -219.6,-425.29 -738.02,-183.91 -1150.28,-279.71 -171.82,-739.49 315.21,-1634.93 -114.17,-2250.8zm5995.4 5799.6c1050.8,-320.9 331.9,-1194.21 649.7,-2018.73 522.99,-101.98 988,403.4 1417.41,110.51 374.43,-255.4 54.32,-994.18 342.73,-1337.54 299.64,-356.8 1102.97,138.63 1100.83,-599.47 -1.44,-502.75 -319.43,-784.13 -265.22,-1441.01 382.9,-265.95 819.84,-375.08 1360.11,-393.1 373.86,-12.44 1490.39,177.81 1178.97,-464.02 -244.36,-503.61 -2102.01,-544.97 -1152.99,-2030.61 212.55,-332.76 552.51,-667.04 920.96,-887.44 357.67,-213.94 655.17,124.33 1007.23,525.31 1318.13,1501.43 757.42,3991.96 0.33,5647.61 -863.57,1888.56 -2918.51,4016.08 -5319.51,3467.76 -416.91,-95.24 -1028.21,-329.2 -1240.55,-579.27zm-6240.45 -3191.66c304.58,301.73 682.31,130.62 1112.61,132.92 26.54,647.27 -157.28,1218.59 420.79,1438.45 662.2,251.82 1678.91,-282.28 1712.67,199.81 39.32,561.65 -377.02,799.45 741.36,809.32l124.91 864.82 -189.01 101.68c-90.69,45.97 -107,49 -207.22,103.92 -3964.45,2172.05 -6928.74,-2604.81 -7229.36,-5486.09 -131.18,-1257.52 186.38,-3103.85 1273.52,-3575.83 -132.14,1222.01 -738.65,3572.42 1138.61,3113.59 1848.28,-451.75 338.91,1542.28 1101.12,2297.41z"/>
   <path class="fil2" d="M6201.83 4761.12c266.18,279.71 1143.67,774.08 1717.11,683.95 618.1,-97.15 995.84,-874.87 885.07,-1228.92 -121.53,-388.49 3.87,-83.18 -160.92,-217.25 -533.93,1854.36 -1563.13,302.59 -2081.88,197.73 -160.04,113.41 -322.93,297.6 -359.38,564.49z"/>
   <path class="fil2" d="M6859.19 3891.04c621.61,576.93 1632.34,614.92 1257.69,-622.95 -189.25,60.86 -64.02,-68.13 -206.46,171.63 -51,85.85 -74.11,188.55 -102.08,277.15 -276.47,-114 -306.4,-290.73 -563.51,-435.77 -165.81,98.68 -338.52,351.56 -385.64,609.94z"/>
  </g>
 </g>
</svg>
