<?xml version="1.0" encoding="UTF-8"?>
<!DOCTYPE svg PUBLIC "-//W3C//DTD SVG 1.1//EN" "http://www.w3.org/Graphics/SVG/1.1/DTD/svg11.dtd">
<!-- Creator: CorelDRAW 2018 -->
<svg xmlns="http://www.w3.org/2000/svg" xml:space="preserve" width="185mm" height="185mm" version="1.1" style="shape-rendering:geometricPrecision; text-rendering:geometricPrecision; image-rendering:optimizeQuality; fill-rule:evenodd; clip-rule:evenodd"
viewBox="0 0 18500 18500"
 xmlns:xlink="http://www.w3.org/1999/xlink">
 <defs>
  <style type="text/css">
   <![CDATA[
    .str0 {stroke:#E53824;stroke-width:100;stroke-miterlimit:2.61313}
    .fil2 {fill:none}
    .fil1 {fill:#FEFEFE}
    .fil0 {fill:white}
   ]]>
  </style>
 </defs>
 <g id="Слой_x0020_1">
  <metadata id="CorelCorpID_0Corel-Layer"/>
  <path class="fil0" d="M7470.1 15058.59l-88.96 -864.88c541.83,50.12 1173.12,269.4 1507.26,561.51 -699.23,314.63 -1017.4,450.68 -1418.3,303.37zm-162.45 -1391.07c626.25,-315.81 1375.59,-734.04 2170.68,-724.96 38.84,369.46 -99.72,615.99 -180.11,930.8l421.59 -473.22 428.66 899.68 -2043.21 -411.83c253.93,-236.61 139.74,-130.84 432.35,-276.63l511.22 -326.58c-878.15,14.63 -1012.86,279.15 -1741.18,382.74zm7782.86 -2290.07c319.68,564.03 482.46,788.02 374.67,1470.6l-603.72 -8.4c-29.42,-533.09 28.09,-1003.95 229.05,-1462.2zm-2213.06 1628.17c155.05,-489.19 387.45,-1064.14 761.29,-1367.18 52.8,470.36 93.66,847.05 -142.94,1238.87l-618.35 128.31zm-3563.76 -464.13c2.53,-910.95 71.47,-1284.62 868.41,-1615.73 -6.73,296.3 -103.59,661.05 -232.07,956.86 -288.74,664.42 -304.04,222.98 -636.34,658.87zm1421 1118.63c-323.72,-37.33 -380.39,-372.65 -620.87,-757.58l1256.2 -2443.95c325.9,459.94 204.49,245.19 -244.18,1459.34 -283.86,767.84 -5.38,1392.41 -391.15,1742.19zm-1051.2 -2933.97c-3.2,-724.12 -53.65,-802.15 590.43,-820.65 17.32,663.24 3.53,614.98 -590.43,820.65zm1603.45 -5624.96l-126.96 846.71 -567.89 -567.73 694.85 -278.98zm-1607.99 62.89c1325.81,888.59 966.11,3771.95 235.09,3262.57 -1339.26,-933.14 499.12,2341.7 -2013.27,3648.35l1160.84 -100.73c9.76,920.03 -2248.53,638.18 -3266.27,2048.92 -879.5,1219.03 1669.88,4086.92 2333.63,4061.53 484.65,-530.9 -1167.57,-3589.99 1882.11,-3297.55l841.66 1528.28 603.55 -1980.14 205.83 1035.39 598.84 -852.43 297.99 1972.75 397.54 -2588.57 344.07 1101.65 417.04 398.55 342.73 -1455.13 910.61 1619.77 534.26 -1533 505.17 -42.21 861.34 4098.86c1084.67,-1912.04 -144.62,-4386.76 368.62,-6884.18 415.03,-2018.99 1443.36,-5506.06 1231.14,-7386.15 -280.17,-2481.95 -2251.9,-3990.06 -4711.66,-3201.03 -3280.73,1052.55 -1075.08,3210.61 -4080.86,4544.5z"/>
  <g id="_1368815024">
   <path class="fil1" d="M9069.9 5387.21c-2990.24,1356.14 -5662.66,2683.09 -8488.24,503.42 -1273.35,-982.31 -328.65,-2547.31 1599.88,-2533.56 385.21,2.72 -25.37,-1293.22 1555.98,-841.16 -150.36,102.29 -662.81,346.4 -819.59,466.3l15.14 167.75c28.04,1229.33 -2745.22,990.67 -1830.43,1807.96 2098.03,1874.39 5601.86,547.68 7967.26,429.29zm-6172.32 -2388.41c-11.32,10.06 -19.26,19.02 -23.07,26.47 10.6,-6.72 17.92,-15.93 23.07,-26.47z"/>
  </g>
  <path class="fil2" d="M9069.9 5387.21c-1348.93,141.53 -5356,1938.77 -6785.59,744.14 -32.22,-26.89 -3351.77,-941.37 -867.25,-2354.13 440.86,-250.71 1301.94,309.93 1243.74,-837.94 -10.9,-214.62 911.03,-423.37 1076.72,-423.37"/>
  <path class="fil2 str0" d="M3700.34 2539.65c66.05,7.12 190.97,8.15 222.73,73.79"/>
 </g>
</svg>
