<?xml version="1.0" encoding="UTF-8"?>
<!DOCTYPE svg PUBLIC "-//W3C//DTD SVG 1.1//EN" "http://www.w3.org/Graphics/SVG/1.1/DTD/svg11.dtd">
<!-- Creator: CorelDRAW 2018 -->
<svg xmlns="http://www.w3.org/2000/svg" xml:space="preserve" width="250mm" height="250mm" version="1.1" style="shape-rendering:geometricPrecision; text-rendering:geometricPrecision; image-rendering:optimizeQuality; fill-rule:evenodd; clip-rule:evenodd"
viewBox="0 0 25000 25000"
 xmlns:xlink="http://www.w3.org/1999/xlink">
 <defs>
  <style type="text/css">
   <![CDATA[
    .str0 {stroke:#FEFEFE;stroke-width:200;stroke-miterlimit:22.9256}
    .fil0 {fill:none}
   ]]>
  </style>
 </defs>
 <g id="Слой_x0020_1">
  <metadata id="CorelCorpID_0Corel-Layer"/>
  <path class="fil0 str0" d="M5849.52 3229.2c1706.72,0 3090.27,1383.55 3090.27,3090.26 0,1706.72 -1383.55,3090.28 -3090.27,3090.28 -1706.71,0 -3090.26,-1383.56 -3090.26,-3090.28 0,-1706.71 1383.55,-3090.26 3090.26,-3090.26zm0 6180.54l26.87 12361.06m2622.23 -73.91l7577.87 0 0 -12134.37 -7577.87 0 0 12134.37zm3788.93 -4736.16l-3120.58 -3699.11 -3120.58 -3699.1 6241.16 0 6241.15 0 -3120.57 3699.1 -3120.58 3699.11zm-19.37 -13435.83l1727.93 2992.85 1727.93 2992.85 -3455.86 0 -3455.85 0 1727.93 -2992.85 1727.92 -2992.85zm9972.56 12871.52l-3057.37 -1943.84 -3057.41 -1943.83 612.18 -729.58 612.19 -729.56 2445.22 2673.44 2445.19 2673.37z"/>
 </g>
</svg>
