<?xml version="1.0" encoding="UTF-8"?>
<!DOCTYPE svg PUBLIC "-//W3C//DTD SVG 1.1//EN" "http://www.w3.org/Graphics/SVG/1.1/DTD/svg11.dtd">
<!-- Creator: CorelDRAW 2018 -->
<svg xmlns="http://www.w3.org/2000/svg" xml:space="preserve" width="250mm" height="250mm" version="1.1" style="shape-rendering:geometricPrecision; text-rendering:geometricPrecision; image-rendering:optimizeQuality; fill-rule:evenodd; clip-rule:evenodd"
viewBox="0 0 25000 25000"
 xmlns:xlink="http://www.w3.org/1999/xlink">
 <defs>
  <style type="text/css">
   <![CDATA[
    .str0 {stroke:#FEFEFE;stroke-width:200;stroke-miterlimit:22.9256}
    .fil0 {fill:none}
   ]]>
  </style>
 </defs>
 <g id="Слой_x0020_1">
  <metadata id="CorelCorpID_0Corel-Layer"/>
  <path class="fil0 str0" d="M12028.33 14315.91l455.02 788.13 455.03 788.12 -910.05 0 -910.05 0 455.02 -788.12 455.03 -788.13zm1171.74 2010.71l455.02 788.12 455.03 788.13 -910.05 0 -910.05 0 455.02 -788.13 455.03 -788.12zm-2343.68 5.05l455.03 788.13 455.02 788.12 -910.05 0 -910.05 0 455.03 -788.12 455.02 -788.13zm1171.94 -651.68l455.02 788.12 455.03 788.12 -910.05 0 -910.05 0 455.02 -788.12 455.03 -788.12zm3512.61 -3420.53l455.03 788.12 455.02 788.13 -910.05 0 -910.05 0 455.03 -788.13 455.02 -788.12zm1171.74 2010.7l455.02 788.13 455.03 788.12 -910.05 0 -910.05 0 455.03 -788.12 455.02 -788.13zm-2343.68 5.06l455.03 788.12 455.02 788.13 -910.05 0 -910.04 0 455.02 -788.13 455.02 -788.12zm1171.94 -651.69l455.03 788.12 455.02 788.13 -910.05 0 -910.05 0 455.03 -788.13 455.02 -788.12zm-7049.06 -1328.45l455.02 788.13 455.02 788.12 -910.04 0 -910.05 0 455.02 -788.12 455.03 -788.13zm1171.73 2010.71l455.03 788.12 455.02 788.12 -910.05 0 -910.04 0 455.02 -788.12 455.02 -788.12zm-2343.67 5.05l455.02 788.12 455.03 788.13 -910.05 0 -910.05 0 455.02 -788.13 455.03 -788.12zm1171.94 -651.69l455.02 788.13 455.02 788.12 -910.04 0 -910.05 0 455.02 -788.12 455.03 -788.13zm-24.77 6133.19l-455.02 -788.13 -455.03 -788.12 910.05 0 910.05 0 -455.03 788.12 -455.02 788.13zm-1171.74 -2010.71l-455.02 -788.12 -455.03 -788.12 910.05 0 910.05 0 -455.02 788.12 -455.03 788.12zm2343.68 -5.05l-455.03 -788.13 -455.02 -788.12 910.05 0 910.05 0 -455.03 788.12 -455.02 788.13zm-1171.94 651.68l-455.02 -788.12 -455.03 -788.12 910.05 0 910.05 0 -455.03 788.12 -455.02 788.12zm3544.47 3342.54l-455.02 -788.12 -455.03 -788.13 910.05 0 910.05 0 -455.02 788.13 -455.03 788.12zm-1171.74 -2010.7l-455.02 -788.13 -455.02 -788.12 910.04 0 910.05 0 -455.02 788.12 -455.03 788.13zm2343.68 -5.06l-455.03 -788.12 -455.02 -788.13 910.05 0 910.05 0 -455.03 788.13 -455.02 788.12zm-1171.94 651.69l-455.02 -788.13 -455.03 -788.12 910.05 0 910.05 0 -455.02 788.12 -455.03 788.13zm3501.32 -610.32l-455.02 -788.12 -455.03 -788.13 910.05 0 910.05 0 -455.02 788.13 -455.03 788.12zm-1171.74 -2010.71l-455.02 -788.12 -455.02 -788.12 910.04 0 910.05 0 -455.02 788.12 -455.03 788.12zm2343.68 -5.05l-455.02 -788.12 -455.03 -788.13 910.05 0 910.05 0 -455.03 788.13 -455.02 788.12zm-1171.94 651.69l-455.02 -788.13 -455.03 -788.12 910.05 0 910.05 0 -455.02 788.12 -455.03 788.13zm-4385.05 -8099.83l910.04 -0.02 910.05 0 -455.02 788.14 -455.03 788.13 -455.02 -788.13 -455.02 -788.12zm2327.18 -9.42l910.05 0 910.04 0 -455.02 788.12 -455.02 788.15 -455.03 -788.15 -455.02 -788.12zm-1167.47 2032.22l910.05 0 910.05 0 -455.02 788.12 -455.03 788.12 -455.02 -788.12 -455.03 -788.12zm21.61 -1340.76l910.04 -0.02 910.05 0 -455.02 788.14 -455.03 788.12 -455.02 -788.12 -455.02 -788.12zm-4357.98 -3700.82l455.02 788.12 455.02 788.12 -910.04 0 -910.05 0 455.02 -788.12 455.03 -788.12zm1171.73 2010.7l455.03 788.12 455.02 788.13 -910.05 0 -910.04 0 455.02 -788.13 455.02 -788.12zm-2343.67 5.06l455.02 788.12 455.03 788.12 -910.05 0 -910.05 0 455.02 -788.12 455.03 -788.12zm1171.94 -651.69l455.02 788.12 455.02 788.13 -910.04 0 -910.05 0 455.02 -788.13 455.03 -788.12zm9564.21 -522.63l455.03 788.12 455.02 788.12 -910.05 0 -910.04 0 455.02 -788.12 455.02 -788.12zm1171.74 2010.7l455.03 788.12 455.02 788.13 -910.05 0 -910.05 0 455.03 -788.13 455.02 -788.12zm-2343.67 5.06l455.02 788.12 455.03 788.12 -910.05 0 -910.05 0 455.02 -788.12 455.03 -788.12zm1171.93 -651.69l455.03 788.12 455.02 788.13 -910.05 0 -910.04 0 455.02 -788.13 455.02 -788.12zm-5487.07 4796.67l455.02 788.13 455.03 788.12 -910.05 0 -910.05 0 455.02 -788.12 455.03 -788.13zm1171.74 2010.71l455.02 788.12 455.03 788.13 -910.05 0 -910.05 0 455.02 -788.13 455.03 -788.12zm-2343.68 5.05l455.03 788.13 455.02 788.12 -910.05 0 -910.05 0 455.03 -788.12 455.02 -788.13zm1171.94 -651.68l455.02 788.12 455.03 788.12 -910.05 0 -910.05 0 455.02 -788.12 455.03 -788.12zm1521.18 -10421.72l455.03 788.12 455.02 788.13 -910.05 0 -910.05 0 455.03 -788.13 455.02 -788.12zm1171.74 2010.71l455.03 788.12 455.02 788.12 -910.05 0 -910.05 0 455.03 -788.12 455.02 -788.12zm-2343.67 5.05l455.02 788.12 455.02 788.13 -910.04 0 -910.05 0 455.02 -788.13 455.03 -788.12zm1171.93 -651.69l455.03 788.13 455.02 788.12 -910.05 0 -910.05 0 455.03 -788.12 455.02 -788.13zm1156.9 -1886.85l2310.73 4799.62 2310.72 4799.63 -4621.45 0 -4621.45 0 2310.73 -4799.63 2310.72 -4799.62zm-4532.49 365.43l2385.53 4131.9 2385.56 4131.9 -4771.09 0 -4771.11 0 2385.55 -4131.9 2385.56 -4131.9zm2284.32 -1871.72l2303.6 4063.76 2303.58 4063.78 -4607.18 0 -4607.18 0 2303.58 -4063.78 2303.6 -4063.76z"/>
 </g>
</svg>
