<?xml version="1.0" encoding="UTF-8"?>
<!DOCTYPE svg PUBLIC "-//W3C//DTD SVG 1.1//EN" "http://www.w3.org/Graphics/SVG/1.1/DTD/svg11.dtd">
<!-- Creator: CorelDRAW 2018 -->
<svg xmlns="http://www.w3.org/2000/svg" xml:space="preserve" width="185mm" height="185mm" version="1.1" style="shape-rendering:geometricPrecision; text-rendering:geometricPrecision; image-rendering:optimizeQuality; fill-rule:evenodd; clip-rule:evenodd"
viewBox="0 0 18500 18500"
 xmlns:xlink="http://www.w3.org/1999/xlink">
 <defs>
  <style type="text/css">
   <![CDATA[
    .fil1 {fill:none}
    .fil0 {fill:white;fill-rule:nonzero}
   ]]>
  </style>
 </defs>
 <g id="Слой_x0020_1">
  <metadata id="CorelCorpID_0Corel-Layer"/>
  <g id="_909609744">
   <g>
    <path class="fil0" d="M2053.84 9500.69c15.56,-2.3 36.2,127.63 38.94,140.22 4.15,17.81 8.42,30.98 17.57,46.97 2.98,7.57 28.55,35.36 35.1,38.16 271.68,224.31 399.39,479.33 518.02,806.27 123.39,363.36 189.45,723.87 259.07,1100.01 187.08,984.27 321.89,1655.41 835.01,2543.67 219.94,338.7 457.97,528.29 815.52,709.34 377.21,175.32 702.28,252.43 1114.14,293.97 386.53,30.14 714.34,19.12 1093.68,-58.03 167.68,-37.15 313.99,-78.28 470.17,-148.58 165.1,-73.91 262.58,-123.8 392.47,29.07 156.74,193.36 -32.17,305.4 -204.35,391.26 -186.29,82.3 -370.62,130.3 -570.19,170.6 -427.76,76.14 -792.88,80.28 -1225.8,35.48 -464.28,-59.6 -824.63,-157.46 -1244.97,-368.73 -418.92,-228.45 -692.67,-466.06 -940.41,-877.82 -506.21,-943.19 -629.08,-1645.52 -766.09,-2683.2 -50.04,-367.45 -95.81,-727.64 -188.08,-1087.59 -91.73,-317.98 -187.21,-551.5 -411.06,-798.12 -20.41,-21.5 -33.27,-39.92 -43.88,-67.63 -9.17,-14.58 -10.16,-51.23 -12.39,-68.43 -1.4,-10.47 7.42,-145.4 17.53,-146.89z"/>
   </g>
   <path class="fil1" d="M7643.53 15001.76c-721.19,612.81 -3209.09,666.18 -4035.85,-737.49 -1049.53,-1781.9 -589.07,-3684.11 -1488.66,-4509.43 -75.07,-68.9 -48.51,-141.29 -65.18,-254.15"/>
   <g>
    <path class="fil0" d="M13309.77 13842.46c3.44,4.87 -11.5,59.24 -6.44,91.14 5.59,26.23 16.16,42.88 33,63.44 45.99,49.18 104.7,82.11 163.75,113.18 62.25,31.99 125.92,59.47 188.01,91.1 26,14.37 48.95,28.1 68.9,50.6 6.44,5.5 10.68,17.73 14.81,24.79 5.12,13.26 6.86,24.77 5.56,38.96 -1.83,15.59 -6.29,26.66 -15.15,39.55 -7.49,9.89 -13.93,16.12 -24.12,23.14 -989.65,694.93 -1952.41,1288.03 -3083.69,1728.73 -680.37,233.96 -1257.4,372.15 -1978.84,298.23 -1003.98,-184.68 -1073.05,-423.24 -1843.47,-791.19 -154.82,-74.13 -220.76,-137.33 -173.25,-311.6 55.19,-202.43 206.62,-183.01 372.13,-103.73 701.57,343.8 788.21,610.09 1701.48,802.29 650.3,94.64 1190.41,-21.64 1812.35,-214.17 1135.78,-371.67 2099.66,-910.25 3118.53,-1522.39 -4.04,3.03 -7.11,6.39 -10.06,10.49 -7.16,7.3 -6.86,18.49 -9.58,25.77 -2.57,6.85 2.48,18.31 3.32,24.15 0.32,2.14 3.83,6.91 5.35,8.84 7.91,3.61 -18.79,-16.93 -29.47,-24.09 0.49,-1.18 -161.59,-101.79 -175.46,-111.58 -66.24,-45.87 -126.22,-91.53 -168.25,-161.68 -18.85,-34 -28.39,-62.37 -26.02,-101.58 -4.83,-23.81 41.91,-102.83 56.61,-92.39z"/>
   </g>
   <path class="fil1" d="M6658.84 15302.53c1210.95,330.15 1895.55,2398.69 7041.87,-981.09 98.39,-64.64 -573.29,-221.79 -390.94,-478.98"/>
   <g>
    <path class="fil0" d="M2791.18 8810.77c30.47,16.32 697.57,1260.8 838.45,1456.77 183.22,231.76 343.19,381.76 594.62,539.47 304.19,175.7 563.19,253.54 908.45,313.26 32.14,6.2 55.18,15.83 82.2,34.33 26.97,20 43.77,39.02 60.25,68.23 273.05,526.58 340.18,1121.86 608.73,1690.77 138.44,264.65 273.99,450.35 534.95,603.16 143.16,75.92 261.85,110.81 421.43,134.02 103.36,12.37 192.77,15.52 296.09,12.96 170.76,-3.83 310.7,7.64 339.22,200.79 31.39,212.49 -151.72,255.62 -328.87,259.59 -128.16,2.43 -246.36,-6.96 -373.39,-26.28 -219.04,-37.8 -379.22,-92.15 -572.79,-203.47 -336.57,-211.98 -511.02,-451.26 -680.83,-806.2 -254.11,-590.19 -304.23,-1191.52 -535.22,-1708.8 10.43,18.25 21.32,30.25 38.26,42.73 8.27,9.3 38.49,18.76 51.13,21.46 -385.21,-83.1 -670.22,-185.26 -999.47,-403.93 -271.19,-190.86 -440.83,-368.59 -627.31,-641.05 -111.63,-181.23 -704.17,-1385.71 -655.9,-1587.81z"/>
   </g>
   <path class="fil1" d="M7475.57 13864.53c-2054.47,303.44 -1905.29,-1777.16 -2354.55,-2579.44 -1577.81,-278.98 -1856.26,-1421.39 -2329.84,-2474.32"/>
   <g>
    <path class="fil0" d="M14551.26 3200.44c587.63,1151.38 -484.29,4274.21 -1048.73,5367.3 -2284.74,3899.75 -1525.71,3038.96 -4920.91,4715.63 -150.95,72.66 -649.23,361.04 -782.96,146.1 -112.85,-242.69 430.46,-482.75 579.41,-559.16 3354.1,-1627.9 2481.36,-536.74 4859.24,-4458.59 1562.99,-2809.24 902.13,-2920.86 1313.95,-5211.28z"/>
   </g>
   <path class="fil1" d="M7798.66 13429.47c3488.76,-1888.81 2867.67,-344.2 5571.26,-4939.74 847.05,-1439.83 1427.75,-3620.91 1181.34,-5289.29"/>
   <g>
    <path class="fil0" d="M13868.56 2074.69c3.92,5.91 25.43,277.49 56.26,352.05 49.39,103.07 110.93,165.12 197.02,238.72 257.57,203.4 505.7,347.05 770.47,572.11 459.93,401.61 730.12,793.46 1022,1330.11 482.98,926.84 730.3,1825.43 952.63,2843.45 159.13,770.75 303.77,1525.52 341.52,2313.39 12.03,551.49 -23,959.67 -224.35,1477.1 -414.67,923.66 -1369.05,1856.19 -2033.02,2645.6 -60.72,69.55 -122.71,109.55 -203.27,152.67 -90.49,46.84 -178.52,81.42 -274.5,115.08 -255.22,87.1 -509.58,148.61 -772.63,206.48 -711.32,151.8 -1422.77,260.73 -2142.64,361.6 -1049.82,141.29 -2097.54,262.74 -3149.21,385.25 -221.88,22.51 -477.63,89.56 -521.89,-167.04 -32.43,-263.45 254.2,-262.36 469.37,-290.48 1048,-120.32 2098.6,-215.06 3144.77,-354.97 709.77,-91.33 1413.86,-190.4 2116.26,-329.03 247.03,-51.23 489.09,-106.16 729.47,-183.53 77.27,-20.75 148.7,-57.98 222.03,-88.6 27.58,-14.33 63.93,-33.88 86.38,-55.84 622.14,-724.41 1622.83,-1691.65 2019.93,-2526.93 191.67,-465.83 226.88,-838.96 223.52,-1339.5 -18.38,-770.03 -147.95,-1514.11 -290.69,-2269.2 -200.84,-1000.5 -425.97,-1884.4 -863.12,-2808.86 -271.26,-527.39 -518.03,-905.24 -942.03,-1317.57 -242.79,-220.57 -510.78,-395.66 -738.11,-606.81 -90.7,-86.95 -153.25,-161.2 -197.81,-279.93 -20.5,-68.58 -52.12,-331.73 1.64,-375.32z"/>
   </g>
   <path class="fil1" d="M7886.95 14901.26c963.77,-142.34 6444.48,-616.42 6916.21,-1178.24 2038.73,-2428.07 2720.43,-2373.36 1934.31,-6285.86 -1026.97,-5111.06 -3056.46,-4168.16 -2868.91,-5362.47"/>
   <g>
    <path class="fil0" d="M6563.86 12062.47c19.5,260.56 -341.33,637.3 -553.78,779.39 -80.06,49.07 -161.74,-100.02 -192.89,-152.64 -28.9,-48.8 -121.7,-194.69 -47.76,-240 143.16,-80.31 670.47,-437.98 794.43,-386.75z"/>
   </g>
   <path class="fil1" d="M5817.19 12689.22c618.71,-366.37 425.35,-396.53 746.67,-626.75"/>
   <g>
    <path class="fil0" d="M9268.52 7208.55c-6.55,10.61 -428.24,195.73 -497.96,252.58 -66.96,60.82 -110.49,115.86 -150.7,197.25 -38.52,85.59 -51.91,155.28 -52.18,249.18 -1.83,116.17 -20.98,200.51 -85.48,298.37 -64.45,87.37 -130.98,133.83 -228.75,178.89 -208.34,87.57 -421.15,103.29 -644.22,117.71 -232.17,14.31 -458.37,20.96 -688.73,58.03 -98.98,17.52 -182.98,37.55 -276,76.53 -74.85,33.47 -128.86,66.11 -184.91,126.7 -380.17,420.04 -771.34,864.97 -1028.66,1373.66 -69.96,145.29 -122.28,276.05 -137.08,437.9 -6.33,111.72 5.87,189.18 59.74,287.78 66.23,108.71 147.05,174.51 251.98,244.3 162.59,100.84 319.06,164.39 498.91,227.53 429.96,138.29 834.47,221.48 1274.9,306.22 181.43,38.97 426.87,77.63 394.2,307.16 -48.8,229.97 -299.75,176.22 -482.27,144.81 -455.04,-89.98 -893.57,-198.79 -1330.96,-356.19 -213.82,-80.92 -391.73,-160.79 -582.48,-288.66 -162.74,-114.32 -273.99,-219.88 -371.97,-394.89 -88.57,-175.86 -111.02,-319.33 -93.53,-514.78 28.03,-215.01 94.28,-377.18 193.49,-568.38 299.31,-528.43 717.14,-977.14 1136.79,-1411.48 91.86,-90.46 175.99,-140.1 295.28,-187.07 117.28,-42.79 219.97,-63.56 343.24,-79.75 244.14,-27.17 474.76,-23.53 719.08,-25.72 191.74,-3.27 392.94,-5.5 576.45,-67.07 64.08,-25.09 111.47,-50.85 156.7,-103.7 47.18,-60.04 61.4,-117.04 67.42,-192.23 8.97,-120.16 33.08,-207.36 92.18,-312.36 57.79,-95.04 115.12,-156 204.16,-221.95 70.52,-45.53 489.77,-243.02 571.36,-160.37z"/>
   </g>
   <path class="fil1" d="M7773.58 11948.34c-2890.44,-511.38 -3552.26,-1033.15 -1422.46,-3287.06 520.12,-550.44 2111.79,64.01 2133.13,-755.88 10.97,-421.87 393.26,-653.55 784.27,-696.85"/>
   <g>
    <path class="fil0" d="M10164.49 7592.69c-55.28,35.88 -749.56,69.23 -1180.43,319.71 -206.98,133.39 -296.03,257.11 -389.84,481.52 -82.51,207.23 -122.34,378.69 -246.79,571.41 -78.31,110.73 -151.53,177.97 -268.73,246.86 -147.2,81.29 -276.42,113.49 -442.02,136.77 -448.08,63.51 -916.87,156.11 -1292.37,423.93 -88.49,67.09 -163.77,136.12 -210.51,238.64 -13.69,32.44 -20.99,58.91 -23.15,94.11 -1.05,31.35 2.37,54.29 11.93,84.14 29.43,80.02 80.68,132.76 145.95,185.65 113.8,84.94 224.97,131.43 359.62,173.95 340.17,90.75 625.12,102.15 972.16,79.41 173.16,-10.82 362.93,-19.21 393.76,189.54 32.78,221.96 -190.17,259.16 -365.03,270.08 -400.56,22.82 -746.37,-10.13 -1132.31,-130.18 -188.89,-65.43 -333.48,-135.57 -489.51,-262.24 -132.59,-114.54 -215.69,-222.36 -268.71,-391.08 -22.36,-81.72 -28.55,-147.37 -21.7,-231.84 9.4,-85.6 28.29,-148.97 64.86,-226.85 86.96,-167.55 194.72,-270.12 347.61,-377.98 450.87,-284.4 951.02,-371.92 1473.39,-426.96 123.25,-12.21 225.96,-30.51 338.6,-83.55 79.3,-41.57 129.09,-82.36 184.75,-152.3 110.49,-150.71 170.9,-338.74 250.51,-508.83 131.33,-261.03 256.29,-406.4 514.18,-550.09 240.22,-105.36 1078.41,-276.85 1273.78,-153.82z"/>
   </g>
   <path class="fil1" d="M7994.07 10818.33c-2380.45,351.58 -2997.52,-1333.16 -374.39,-1623.21 1322.44,-146.21 137.82,-1585.93 2544.81,-1602.43"/>
   <g>
    <path class="fil0" d="M10751.76 7635.04c-76.93,114.15 -672.2,129.36 -784.05,115.77 -415.72,-70.78 -795.22,-109.32 -1211.9,-20.67 -230.19,54.74 -398.78,126.99 -563.56,300.16 -108.01,121.33 -161.43,226.32 -211.47,379.27 -12.22,20.52 -36.49,129.52 -46.5,161.65 -7.75,24.75 -15.13,47 -23.64,71.47 -15.66,37.24 -30.02,61.09 -59.74,89.57 -362.19,344.84 -633.12,663.24 -855.17,1113.61 -134.81,292.46 -222.13,566.25 -185.9,891.05 16.41,113.17 42.21,199.56 101,297.93 55.92,87.21 110.56,141.44 198.03,196.49 104.33,60.08 192.27,85.79 310.67,102.19 20.7,7.2 123.92,8.65 154.75,8.83 168.17,0.78 298.52,11.38 332.85,198.91 39.64,216.49 -157.31,262.43 -335.1,261.58 -74.44,-0.9 -142.5,-6.67 -216.44,-17.36 -186.22,-30.07 -323.86,-78.13 -485,-178.51 -148.74,-100.03 -241.24,-198.41 -333.21,-352.58 -86.95,-157.95 -124.78,-291.94 -145.05,-470.76 -29.04,-416.03 76.63,-741.36 261.24,-1110.18 266.31,-483.68 570.16,-817.69 983.25,-1181.03 -14.22,13.69 -23.06,30.21 -20.65,25.62 -0.09,-0.06 14.14,-38.23 15.23,-40.37 19.56,-57.29 37.23,-113.7 58.2,-170.78 76.3,-193.77 153.23,-324.65 300.13,-475.09 219.73,-202.53 429.29,-285.48 720.75,-339.93 455.92,-58.37 846.5,5.1 1288.77,114.2 96.64,21.14 751.12,27.83 752.51,28.96z"/>
   </g>
   <path class="fil1" d="M7907.13 11541.27c-1538.61,281.73 -1889.76,-1388.07 -163.27,-2928.92 110.72,-98.82 68.45,-1406.69 2239.62,-933.91 283.38,61.69 490.24,-2.33 768.28,-43.4"/>
   <g>
    <path class="fil0" d="M10578.78 7337.83c-255.3,1023.91 -444.59,559.03 -661.78,2447.81 -32.28,183.3 -71.2,319.93 -159.73,485.08 -106.93,185.38 -217.78,298.32 -391.32,422.5 -444.96,292.67 -936.97,415.4 -1456.44,501.23 -174.85,27.54 -313.92,12.85 -339.06,-184.47 -24.57,-192.67 94.73,-243.23 267.46,-270.42 457.26,-69.7 901.67,-146.66 1312.35,-371.45 127.43,-81.99 210.69,-155.28 295.37,-281.51 75.31,-121.73 110.52,-227.65 143.97,-365.95 121.9,-588.96 351.01,-2076.17 989.18,-2382.82z"/>
   </g>
   <path class="fil1" d="M7570.45 11009.98c3424.31,-436.43 1393.89,-1691.08 3008.33,-3672.15"/>
   <g>
    <path class="fil0" d="M10001.59 5615.45c89.28,-13.19 184.62,913.14 192.62,969.11 15.14,186.44 23.44,366.27 3.73,552.87 -10.81,77.84 -24.67,144.05 -58.23,215.73 -18.51,35.97 -36.64,62.17 -66.17,90.17 -35.04,30.99 -65.95,47.03 -111.66,57.36 -322.39,67.82 -787.49,154.93 -1086.54,288.12 -68.13,30.72 -122.42,59.6 -173.62,114.89 -28.97,20.94 -77.52,126.85 -90.69,160.86 -266.38,829.32 -458.27,1261.4 -953.64,1989.69 -107.51,148.17 -257.34,368.89 -451.62,234.91 -179.23,-143.07 -29.23,-343 72.55,-496.39 512.44,-737.41 645.45,-1081.56 1000.51,-1870.38 48.76,-105.56 92.03,-178.9 174.38,-262.47 93.79,-88 178.13,-132.37 296.85,-179.33 345.23,-116.07 803.13,-176.57 1164.9,-234.58 0.08,-0.01 -10.17,3.64 -9.89,6.31 4.38,-1.07 12.03,-12.99 14.25,-16.56 24.43,-39.79 36.77,-91.28 46.37,-136.51 33.99,-167.12 38.8,-336.88 40.11,-506.91 10.69,-74.02 -61,-968.51 -4.21,-976.89z"/>
   </g>
   <path class="fil1" d="M7205.77 10289.16c1975.7,-2660.43 417.84,-2489.44 2732.65,-2915.81 301.41,-55.49 108.41,-1451.62 63.17,-1757.9"/>
   <g>
    <path class="fil0" d="M11617.62 7378.07c71.08,81.65 -190.13,946.81 -224.63,1042.03 -77.01,186.17 -157.32,336.27 -316.79,465.09 -85.56,61.62 -158.18,91.6 -263.18,104.71 -118.36,10.23 -206.29,-9.22 -315.78,-53.4 -342.66,-134.72 -621.04,-188.87 -988.52,-145.77 -306.2,47.59 -521.86,139.07 -768.12,326.37 -232.67,191.02 -375.97,376.16 -505.58,646.77 -91.79,210.01 -137.73,373.37 -162.76,598.61 -18.86,164.47 -78.51,220.36 -241.89,221.77 -185.39,1.61 -236.32,-93.88 -215.61,-274.25 32.86,-269.21 109.79,-493.61 228.66,-737.82 174.08,-328.57 361.87,-549.33 661.17,-771.92 315.07,-215.73 587.86,-315.87 968.46,-354.05 430.66,-23.39 749.57,55.02 1138.75,236.54 61.45,29.39 112.98,47.36 181.58,47.98 56.75,-2.47 95.35,-15.76 143.89,-44.89 128.33,-84.87 205.16,-213.6 274.72,-347.44 68.82,-68.64 338.93,-983.72 405.63,-960.33z"/>
   </g>
   <path class="fil1" d="M7830.37 10584.25c-11.08,-1287.46 1215.6,-2455.83 2724.15,-1774.63 728.7,329.06 911.55,-999.52 1063.1,-1431.55"/>
   <g>
    <path class="fil0" d="M11242.81 8337.21c-21.5,9.54 -416.21,-103.53 -580.69,-93.31 -41.47,3.19 -76.66,9.38 -111.61,33.15 -19.3,6.66 -42.73,48.62 -52.24,65.28 -62.16,160.69 -59.63,477.51 -119.03,699.47 -140.65,464.32 -257.38,909.88 -377.65,1378.01 -32.88,112.44 -65.27,224.28 -117.39,329.58 -26.44,48.89 -50.31,84.25 -89.71,123.92 -43.7,40.96 -81.55,64.51 -138.07,84.52 -236.41,47.5 -993.68,-63.27 -1393.82,-46.15 -170.13,6.79 -391.93,12.56 -413.57,-201.06 -22.62,-223.61 224.39,-252.28 395.21,-259.09 351.85,-11.37 962.16,31.55 1292.25,134.65 0.11,0.17 -8.22,4.72 -7.47,6.44 6.21,-2.63 18,-21.61 21.38,-27.14 43.29,-70.86 77.85,-175.55 104.72,-254.09 163.26,-448.51 309.39,-903.11 474.16,-1353.83 83.49,-238.56 82.09,-506.41 199.34,-711.79 37.16,-57.61 73.75,-93.58 134.6,-125.83 68.5,-31.77 125.05,-38.44 199.83,-35.46 108.99,15.97 551.64,162.26 579.76,252.73z"/>
   </g>
   <path class="fil1" d="M7849.03 10710.62c2357.45,-238.64 1500.66,972.65 2405.23,-1710.94 173.43,-514.44 -78.47,-1146.44 988.55,-662.47"/>
   <g>
    <path class="fil0" d="M11181.8 8798.15c104.02,111.66 166.88,901.47 151.05,1070.75 -10.22,49.55 -22.09,88.66 -46.13,133.46 -24.02,41.03 -47.63,68.08 -86.48,95.7 -36.57,24.16 -67.36,35.91 -109.97,45.25 -37.31,7.34 -69.74,9.5 -107.64,9.46 -142.21,-1.57 -249.75,-24.73 -391.14,15.1 -75.82,26.64 -123.58,60 -181.39,115.7 -88.15,93.65 -142.36,190.98 -197.22,306.64 -226.47,473.32 -503.89,1047.47 -886.46,1415.9 -132.67,112.85 -249.02,184.36 -423.85,209.19 -154.63,12.66 -264.08,-18.26 -397.03,-95.23 -222.03,-143.72 -349.23,-311.4 -527.29,-497.61 -69.11,-70.69 -135.25,-134.69 -218.31,-188.8 -8.68,-7.15 -30.46,-18.3 -41.65,-24.39 -117.58,-64.03 -135.73,-144.08 -129.18,-272.91 15.92,-226.49 174.74,-213.15 349.39,-131.55 26.41,14.66 50.46,29.56 75.56,46.48 113.81,79 198.64,163.72 291.8,265.83 126.74,142.31 270.85,335.67 421.99,444.95 44.5,28.47 81.44,46.99 135.21,45.84 79.62,-5.32 147.92,-53.45 208.69,-101.2 352.68,-288.42 655.79,-856.94 865.71,-1252.88 79.7,-148.29 155.74,-263.03 281.94,-375.76 96.85,-82.77 179.8,-130.1 303.39,-161.66 194.53,-40.85 283.59,-10.93 468.22,9.16 20.3,1.69 40.8,2.66 61.16,0.8 12.83,-0.1 21.28,-4.82 32.41,-7.91 11.74,-5.74 17.85,-12.4 25.61,-22.81 12.65,-10.1 30.68,-70.26 31.64,-71.24 79.86,-282.48 13.17,-971.79 39.97,-1026.26z"/>
   </g>
   <path class="fil1" d="M7589.11 11136.36c872.12,44.31 1039.46,2306.38 2486.06,-614.34 621.06,-1253.95 1441.13,540.99 1106.63,-1723.87"/>
   <g>
    <path class="fil0" d="M6954.59 6840.16c75.29,-11.12 380.51,705.94 381.16,706.19 60.87,155.78 110.55,303.23 116.72,472.01 -1.64,84.16 -13.97,147.28 -59.34,219.56 -26.33,37.74 -52.08,62.21 -91.13,86.65 -41.24,24.32 -75.71,35.89 -122.68,44.39 -149.46,29.59 -262.04,68.06 -392.52,147.45 -108.95,69.54 -181.33,136.74 -258.66,240.15 -147.98,214.96 -199.84,414.65 -216.23,672.58 -7.55,266.12 27.11,481.66 122.71,729.61 64.26,152.99 125.72,267.1 237.98,388.26 88.45,96.35 32.03,186.73 -33.33,277.74 -92.4,128.63 -184.4,166.01 -305.88,33.74 -146.36,-162.37 -234.71,-344.48 -309.87,-548.48 -103.06,-314.97 -131.8,-581.34 -103.01,-912.24 41.21,-335.59 128.75,-586.19 341.8,-852.54 114.62,-131.72 219.45,-215.45 373.35,-298.11 172.41,-85.39 315.67,-123.14 506.38,-145.01 10.98,-0.79 19.27,-1.97 29.75,-5.08 6.41,-1.25 9.64,-6 13.47,-7.94 18.86,-9.34 24.71,-77.12 26.99,-80.5 12.1,-132.63 -23.31,-273.72 -57.67,-401.06 -1.91,-61.51 -291.74,-753.82 -199.99,-767.37z"/>
   </g>
   <path class="fil1" d="M6639.27 10824.75c-703.11,-505.08 -865.55,-2395.27 521.41,-2589.22 474.87,-66.39 -180.88,-1224.71 -206.09,-1395.37"/>
   <g>
    <path class="fil0" d="M9552.13 6069.17c5.4,15.14 -46.5,398.87 -49.1,431.08 -2.72,16.23 -8.47,28.4 -19.23,40.74 -2.57,5.56 -17.38,14.46 -22.03,18.58 -9.67,8.63 -29.15,13.3 -39.44,19.24 -26.36,15.14 -75.56,20.66 -101.81,32.16 -108.49,32.61 -219.18,60.39 -328.3,91.83 -356.16,114.29 -620.83,223.42 -939.64,427.31 -398.78,279.79 -633.09,550.58 -848.92,989.09 -236.96,568.28 -286.96,1029.23 -269.95,1635.37 4.07,173.63 -34.04,271.03 -216.87,284.04 -190.71,13.6 -239.36,-95.07 -243.5,-273.31 -9.68,-662.65 94.6,-1216.53 392.39,-1814.38 269.92,-486.26 556.73,-785.24 1035.56,-1066.14 352.03,-194.23 651.93,-299.18 1044.98,-371.03 115.27,-22.33 226.12,-39.43 342.55,-53.15 30.12,-5.14 60.37,-9.15 90.46,-14.77 2.15,-0.43 12.01,-4.14 13.03,-2.65 0.01,0.04 -7.36,7.19 -7.66,7.5 -5.2,5.3 -13.71,22.34 -13.18,29.28 15.81,-80.64 80.47,-379.52 180.66,-410.79z"/>
   </g>
   <path class="fil1" d="M6716.84 10038.61c-247.68,-3476.43 2701.15,-3423.85 2720.41,-3548.5 37.25,-241.34 -4.91,-181.44 114.88,-420.94"/>
   <g>
    <path class="fil0" d="M9861.45 10348.86c117.74,264.16 -570.91,1619.02 -740.16,1837.53 -179.97,189.34 -359.94,358.54 -610.46,446.74 -105.33,30.04 -187.9,37.55 -295.94,17.18 -100.34,-23.2 -169.19,-59.04 -248.45,-124.08 -141.95,-127.87 -212.6,-259.8 -281.22,-434.79 -21.5,-30.22 -85.97,-267.94 -98.85,-327.27 -32.18,-148.46 73.51,-182.49 194.43,-204.24 112.05,-20.13 225.77,-30.98 255.64,106.7 20.18,96.11 38.65,180.64 67.77,275.62 31.85,96.4 69.95,194.85 139.63,270.65 19.91,19.4 37,32.62 63.42,41.91 34.22,11.03 64.2,8.02 98.98,0.86 176.99,-39.11 345.76,-187.36 474.96,-306.64 335.19,-349.5 880.13,-1565.64 980.25,-1600.17z"/>
   </g>
   <path class="fil1" d="M7780.8 11559.93c108.12,601.46 349.99,1388.27 1220.44,507.78 372.56,-376.87 638.28,-1209.14 860.21,-1718.85"/>
   <g>
    <path class="fil0" d="M6750.66 7644.97c93.9,64.59 -651.91,2518.97 -721.28,2773.9 17.18,328.23 40.83,650.7 122.95,970.06 27.97,103.92 57.15,192.29 108.57,287.21 36.05,63.64 70.19,111.55 127.7,157.35 50.61,37.82 92.78,55.15 154.32,68.36 84.09,14.88 155.33,11.18 239.6,0.19 201.54,-34.5 362.39,-92.83 549.92,-167.46 160.56,-63.36 280.89,-75.19 359.32,96.76 81.87,179.52 -25.67,266.58 -190.23,331.56 -222.95,86.5 -428.48,145.03 -667.58,173.59 -138.62,13.16 -249.74,10.92 -386.12,-20.67 -129.87,-33.92 -219.71,-78.68 -323.36,-164.36 -100.36,-89.38 -158.84,-172.5 -219.61,-291.78 -61.2,-129.12 -95.22,-243.58 -126.11,-382.71 -68.09,-351.89 -77.86,-692.92 -79.58,-1050.24 85.01,-270.77 917.16,-2797.34 1051.49,-2781.76z"/>
   </g>
   <path class="fil1" d="M7691.76 11831.34c-1430.76,652.41 -1787.35,246.78 -1827.49,-1408.6 -0.28,-11.66 830.37,-2635.11 886.39,-2777.77"/>
   <g>
    <path class="fil0" d="M10354.03 7564.7c28.34,-1.44 32.49,74.42 32.7,90.78 0.77,42.7 -6.33,78.75 -17.1,119.91 -25.72,104.11 -68.75,194.34 -118.33,288.93 -123.14,237.25 -273.91,451.28 -432.68,665.69 -149.65,198.39 -303.57,389.33 -460.81,581.56 -49.46,60.83 -103.43,123.13 -154.78,182.79 -14.28,16.6 -28.31,33.39 -42.56,49.98 -3.06,3.58 -6.01,7.06 -8.85,10.84 -0.86,1.12 2.19,-2.23 2.11,-2.3 0,0 7.19,-9.64 7.47,-10.02 4.14,-5.53 7.14,-11.84 10.63,-17.66 15.53,-30.09 20.01,-53.93 20.57,-88.36 5.63,125.36 1.81,227.26 -25.69,350.08 -26.92,103.21 -59.38,177.97 -121.12,265.09 -110.14,140.47 -208.72,199.9 -361.52,282.48 -85.87,46.12 -175.69,90.26 -240.88,164.4 -28.39,35.42 -43.87,65.11 -58.72,107.83 -5.36,9.68 -13.72,50.87 -16.9,64.98 -27.38,122.04 -142.13,132.66 -247.17,127.97 -148.48,-6.62 -239.58,-61.98 -202.17,-228.7 9.56,-42.66 23.35,-84.27 39.27,-124.94 40.49,-99.84 84.67,-169.88 158.38,-249.01 121.53,-121.15 226.39,-171.1 379.06,-241.16 87.41,-40.32 168.86,-75.6 234.99,-147.74 33.42,-39.02 50.31,-73.88 66.73,-122.51 26.23,-81.04 32.62,-154.99 34.42,-239.82 0.67,-35.52 5.14,-57.6 20.71,-88.53 0.64,-2.84 8.82,-14.61 11.02,-18.25 2.45,-4.1 6.11,-8.23 9.01,-12.09 2.39,-3.17 5.56,-6.46 8.24,-9.49 4.38,-4.95 10.22,-11.07 15,-15.63 15.7,-15.02 32.18,-34.3 47.95,-48.1 57.63,-50.41 110.73,-117.85 167.03,-167.45 172.66,-171.48 339.48,-346.06 503.78,-525.57 177.48,-181.64 336.99,-388.2 498.62,-583.71 58.45,-70.7 111.57,-161.46 161.81,-239.19 17.75,-27.47 31.42,-64.22 46.27,-93.79 6.2,-12.28 20.82,-76.39 33.51,-79.29z"/>
   </g>
   <path class="fil1" d="M8120.4 10799.67c39.42,-884.36 914.4,-408.21 891.36,-1358.26 -0.24,-9.35 1431.41,-1487.93 1342.27,-1876.71"/>
   <g>
    <path class="fil0" d="M12621.3 7617.18c2.34,6.02 -7.37,22.1 -10.12,27.27 -2.21,4.14 -12.25,27.77 -13.03,31.05 -7.09,29.41 -23.57,62.92 -29.82,92.58 -18.49,87.75 -45.47,180.03 -66.12,268.41 -38.9,163.27 -75.41,352.61 -125.37,510.2 -231.03,580.07 -744.78,2251.26 -973.87,2663.25 -70.46,99.62 -134.48,157.61 -244.58,211.08 -106.37,46.97 -196.14,62.78 -310.18,77.72 -234.97,30.89 -474.35,51.07 -710.94,79.5 -170.89,19.78 -288.75,-5.66 -316.06,-190.53 -28.06,-189.99 89.7,-246.84 263.1,-266.92 241.16,-26.17 476.87,-33.45 718.31,-47.42 61.04,-5.43 130.06,-11.77 188.15,-32.25 38.96,-15.47 56.61,-32.03 82.7,-64.98 161.75,-207.87 946.7,-2141.01 1117.87,-2510.4 62.43,-114.79 130.25,-338.03 180.17,-469.88 35.21,-89.42 71.47,-177.92 120.91,-260.6 18.32,-31.83 36.81,-61.82 63.09,-87.81 8.89,-12.03 21.08,-18.1 32.09,-26.4 5.63,-4.22 29.48,-14.61 33.7,-3.87z"/>
   </g>
   <path class="fil1" d="M9821.21 11387.71c1954.81,-288.72 1002.91,463.43 2462.88,-2881.49 72.61,-166.35 222.39,-844.06 337.21,-889.04"/>
   <g>
    <path class="fil0" d="M13317.8 4028.18c106.19,88.58 -187.59,536.51 -240.42,609.66 -151.6,207.67 -283.46,368.02 -404.3,600.73 -138.49,300.06 -174.22,532.33 -165.74,862.54 41.93,481.41 158.5,848.07 327.09,1293.93 56.15,152.52 -1.99,220.62 -140.63,275.98 -143.79,57.41 -233.5,40.66 -291.5,-116.88 -170.77,-479.2 -269.86,-938.46 -262.76,-1450.03 15.41,-390.23 83.01,-670.48 288.7,-1003.68 157.03,-241.64 304.43,-386.94 505.35,-585.39 51.88,-53.22 350.98,-475.97 384.21,-486.86z"/>
   </g>
   <path class="fil1" d="M12693.8 7671.02c-1056.72,-2645.96 467.03,-2810.47 624,-3642.84"/>
   <g>
    <path class="fil0" d="M11436.06 5274.46c0.88,1.01 10.65,619.62 29.96,714.22 46.23,196.87 112.53,330.31 237.82,488.63 260.99,293.4 505.95,425.16 860.23,570.39 98.21,42.61 38.5,182.96 10.57,253.57 -31.16,78.87 -83.26,216.87 -193.81,168.92 -400.94,-183.71 -709.35,-428.02 -958.72,-795.34 -130.24,-218.93 -190.11,-400.79 -206.87,-655.42 0.18,-133.58 76.23,-716.45 220.82,-744.97z"/>
   </g>
   <path class="fil1" d="M12574.64 7301.27c-797.65,-315.28 -1520.56,-942.98 -1138.58,-2026.81"/>
   <g>
    <path class="fil0" d="M12976.06 4336.9c-8.46,27.18 -541.65,383.74 -696.83,580.35 -56.23,73.62 -90.28,134.46 -116.48,223.5 -21.82,42.49 -23.99,179.3 -22.12,229.38 53.54,434.07 245.3,876.7 322.29,1332.92 22.72,148.92 -84.78,179.21 -206.3,193.3 -112.82,13.08 -227.77,14.89 -248.94,-123.81 -64.89,-466.44 -212.4,-943.78 -203.45,-1405.38 8.11,-123.76 26.94,-216.71 74.46,-331.73 54.61,-120.69 113.33,-201.15 206.6,-294.76 135.53,-115.13 747.58,-476.48 890.77,-403.77z"/>
   </g>
   <path class="fil1" d="M12256.62 6896.35c-152.91,-1319.55 -844.76,-1901.16 719.44,-2559.45"/>
   <g>
    <path class="fil0" d="M13329.29 4542.95c28.09,54.45 -270.81,2228.61 -190.08,2814.51 5.26,55.99 -183.79,80.03 -220.67,86.69 -57.85,10.45 -228.94,51.31 -237.84,-43.75 -21.12,-429.59 302.13,-2800.52 648.59,-2857.45z"/>
   </g>
   <path class="fil1" d="M12918.54 7444.15c-83.9,-464.08 190.12,-2489.73 410.75,-2901.2"/>
   <g>
    <path class="fil0" d="M13239.48 6557.52c164.02,265.41 84.3,2163.96 12.77,2559.35 -30.75,151.89 -134.64,152.9 -261.97,124.28 -122.33,-27.49 -219,-69.26 -189.38,-215.61 96.09,-438.74 234.22,-2354.04 438.58,-2468.02z"/>
   </g>
   <path class="fil1" d="M12990.28 9241.15c315.02,-1401.66 89.96,-2090.46 249.2,-2683.63"/>
   <g>
    <path class="fil0" d="M12693.2 3733.08c1.98,18.77 -95.63,46.11 -108.29,48.63 -0.47,1.25 -0.29,1.38 0.83,2.05 0.07,0.18 1.93,0.4 2.33,1.07 -332.27,479.19 -693.28,928.55 -986.94,1434.6 -75.26,126.97 -142.56,249.99 -185.51,391.86 -22.23,76.64 -35.28,142.39 -18.2,221.37 17.12,66.86 47.91,111.19 91.79,163.54 20.94,40.63 194.33,176.63 236.53,213.56 228.11,174.81 463.75,345.61 678.6,536.75 126.15,113.82 117.78,205.1 6.61,320.72 -106.82,111.05 -192.99,131.36 -315.05,21.22 -210.63,-192.23 -425.22,-372.31 -637.16,-561.6 -103.15,-92.01 -192.05,-176.36 -276.47,-286.73 -82.8,-112.48 -129.23,-205.62 -152.46,-344.55 -18,-149 4.2,-259.67 55.02,-399.55 67.75,-165.47 152.8,-300.49 253.99,-447.08 340.36,-448.74 779.75,-926.22 1185.66,-1318.08 7.74,-9.27 15.89,-11.16 24.41,-16.95 4.68,-3.21 22.33,-6.31 28.26,-6.12 13.38,0.5 114.03,6.18 116.05,25.29z"/>
   </g>
   <path class="fil1" d="M12410.95 7067.23c-1300.42,-1250.6 -1945,-855.25 155.12,-3320.9l127.13 -13.25"/>
   <g>
    <path class="fil0" d="M10862.39 6198.46c33.73,-8.53 263.87,166.32 331.73,201.67 97.41,49.05 175.63,71.2 283.6,85.14 260.81,16.77 446.22,-26.75 696.34,-68.15 81.63,-11.1 100.62,164.48 108.4,217.16 8.28,56.04 40.85,227.29 -46.38,239.14 -285.33,30.4 -564.05,19.64 -837.97,-71.47 -141.17,-52.35 -238.05,-109.41 -346.93,-213.72 -46.92,-51.02 -251.28,-315.16 -188.79,-389.77z"/>
   </g>
   <path class="fil1" d="M12282.46 6634.28c-674.5,99.62 -1104.27,70.53 -1420.07,-435.82"/>
   <g>
    <path class="fil0" d="M13080.85 5483.46c10.8,12.47 245.77,1007.36 269.09,1121.34 10.85,71.14 -173.96,91.19 -218.17,97.72 -43.06,6.36 -226.57,40.55 -237.09,-28.39 -26.12,-258.4 -42.89,-1045.14 186.17,-1190.67z"/>
   </g>
   <path class="fil1" d="M13131.77 6702.52c-77.44,-524.37 -131.98,-671.9 -50.92,-1219.06"/>
   <g>
    <path class="fil0" d="M8158.52 9309.21c-5.01,39.63 -308.68,227.98 -355.19,262.56 -139.42,114.88 -271.84,236.68 -357.27,398.29 -23.72,48.49 -42.41,97.19 -35.38,152.01 -2.04,11.24 14.01,38.64 17.6,48.44 4.59,12.52 36.26,44.21 46.56,53.55 81.56,64.59 175.58,102.32 273.09,136.07 162.12,47.31 303.84,72.4 468.46,100.28 118.53,21.99 98.2,159.99 84.21,248.06 -15.12,95.3 -40.06,228.49 -168.2,204.72 -183.26,-36.41 -362.64,-93.22 -533.74,-168.03 -155.99,-69.07 -278.19,-138.59 -392.61,-267.71 -46.99,-55.16 -76.82,-102.49 -103.03,-170.22 -22.99,-64.05 -31.45,-115.1 -29.86,-183.09 8.44,-125.11 46.02,-211.67 115.81,-314.2 140.69,-183.27 304.96,-300.52 508.95,-404.38 43.43,-21.59 431.13,-205.3 460.6,-96.35z"/>
   </g>
   <path class="fil1" d="M8300.6 10708.47c-2118.88,-336.08 -455.29,-1380.07 -142.08,-1399.26"/>
   <g>
    <path class="fil0" d="M9873.69 9120.43c181.06,143.79 -123.78,1503.39 -187.55,1700.68 -53.93,142.09 -108.45,257.76 -197.97,381.36 -95.53,122.15 -184.68,199.75 -331,255.55 -78.32,26.25 -141.06,35.06 -223.52,32.52 -86.62,-4.67 -152.88,-20.42 -233.7,-51.11 -129.83,-52.99 -232.9,-117.18 -338.81,-207.76 -114.85,-100.57 -47.69,-194.63 40,-279.79 72.48,-70.41 167.53,-150.63 263.39,-66.66 69.33,61.29 121.88,106.1 205.15,150.8 21.13,15.75 68.57,23.34 93.46,31.06 25.02,3.4 43.99,3.31 68.77,-1.84 65.98,-16.08 112.03,-57.15 157.53,-105.58 76.01,-84.23 126.46,-172.66 176.47,-273.95 107.11,-240.98 451.77,-1539.81 507.78,-1565.28z"/>
   </g>
   <path class="fil1" d="M8401.14 10951.88c1129.22,1162.47 1379.66,-1081.2 1472.55,-1831.45"/>
   <g>
    <path class="fil0" d="M934.48 11538.19c1071.37,-39.48 883.52,-62.79 1944.03,1026.76 120.61,126.64 231.74,273.78 76.95,417.8 -153.44,142.79 -290.12,26.07 -410.42,-100.27 -200.92,-214.28 -1571.25,-1132.07 -1610.56,-1344.29z"/>
   </g>
   <path class="fil1" d="M2955.46 12982.75c-2078.07,-2233.28 -1440.4,-974.88 -2020.98,-1444.56"/>
   <g>
    <path class="fil0" d="M866.24 12387.5c11.75,3.9 224.17,387.17 327.71,495.29 128.21,124.14 244.01,188.51 412.07,246.61 374.86,105.26 651.98,89.41 1029.13,50.33 103.64,-8.63 115.77,147.3 123.56,219.42 8.54,79.03 28.7,229.96 -85.26,239.47 -421.17,26.03 -809.95,-26.05 -1196.75,-201.75 -203.85,-105.31 -340.29,-214.47 -471.51,-403.9 -61.42,-103.24 -251,-565.75 -138.95,-645.47z"/>
   </g>
   <path class="fil1" d="M2758.71 13399.15c-862.7,93.3 -1752.71,-65.42 -1892.47,-1011.65"/>
   <g>
    <path class="fil0" d="M583.4 11783.71c5.31,8.59 -21.22,66.72 -25.24,74.87 -6.01,12.25 -20.77,81.6 -22.43,95.65 -11.72,97.23 -10.52,175.86 -6.03,273.63 31.24,266.22 99.48,463.96 243.81,691.82 203.99,282.27 417.25,426.26 742.99,546.32 467.7,134.69 845.6,127.76 1321.16,72.27 159.34,-17.2 208.48,58.46 229.78,202.63 22.48,152.23 -13.2,237.18 -180.38,255.2 -530.48,51.27 -1002.77,10.73 -1501.79,-188.65 -386.13,-172.97 -638.93,-376.89 -844.01,-749.65 -138.17,-274.72 -200.33,-523.41 -175.14,-830.64 9.59,-108.05 26.45,-204.74 73.12,-303.33 17.46,-38.22 34.49,-68.76 63.09,-99.71 8.24,-12.04 67.31,-62.59 81.07,-40.41z"/>
   </g>
   <path class="fil1" d="M3067.44 13740.9c-2810.35,415.07 -2788.42,-1768.43 -2484.04,-1957.19"/>
   <g>
    <path class="fil0" d="M2697.69 13860.05c132.63,-25.08 570.95,558.87 683.67,672.57 89.4,83.86 158.66,129.98 276.61,165.36 141.73,31.38 239.02,25.93 380.12,16.34 92.16,-4.54 103.69,159.98 109.79,222.71 7.4,76.45 25.94,231.66 -87.16,237.23 -192.78,6.29 -366.99,-25.09 -544.98,-100.67 -174.36,-81.12 -277.19,-171.3 -390.8,-325.13 -56.21,-87.35 -447.29,-815.76 -427.25,-888.41z"/>
   </g>
   <path class="fil1" d="M4147.88 14937.03c-962.88,93.41 -939.66,-525.08 -1450.19,-1076.98"/>
   <g>
    <path class="fil0" d="M118.23 10819.51c7.93,7.25 39.53,468.2 54.7,545.37 34.89,160.08 81.02,276.75 165.17,417.54 179.68,277.43 384.95,438.88 664.5,609.11 613.65,337.62 1098.56,460.28 1742.25,668.3 135.56,46.13 105.03,160.01 67.73,266.82 -36.73,105.2 -82.69,214.5 -215.99,169.19 -644.64,-229.42 -1197.98,-439.81 -1777.24,-822.61 -308.05,-223.55 -524.4,-433.12 -693.43,-778.65 -77.68,-175.45 -113.38,-316.99 -125.88,-508.24 -1.19,-77.75 25.04,-536.68 118.19,-566.83z"/>
   </g>
   <path class="fil1" d="M2812.58 13326.65c-1125.41,-393.03 -3047.4,-889.31 -2694.35,-2507.14"/>
   <g>
    <path class="fil0" d="M11219.48 4400.71c39.87,11.2 -64.91,439.34 -59.63,493.16 -76.71,750.91 -184.84,1683.31 -482.34,2379.46 -93.08,181.41 -182.92,318.73 -349.88,439.72 -132.87,85.24 -236.86,115 -392.13,130.57 -99.04,8 -200,5.85 -297.61,18.94 -83.2,13.57 -132.83,32.77 -198.61,86.29 -105.87,97.23 -169.76,223.35 -227.91,352.82 -82.37,203.25 -135.06,388.59 -190.24,598.89 -44.35,167.04 -109.07,267.66 -292.37,226.14 -189.14,-42.85 -197.85,-174.21 -152.71,-344.27 62.04,-229.42 138.61,-446.28 240.17,-661.6 96.56,-198.01 192.05,-354.26 366.11,-493.66 134.53,-99.49 244.88,-140.15 410.3,-157.98 31.3,-12.38 260.05,-1.55 317.22,-5.29 85.84,-3.8 143.85,-12.63 219.62,-55.66 114.62,-70.04 184.2,-176.32 249.71,-290.79 342.19,-610.46 514.1,-1555.38 644.45,-2242.85 14.18,-39.19 147.91,-487.36 195.85,-473.89z"/>
   </g>
   <path class="fil1" d="M8728.76 9126.7c740.13,-3267.28 1656.01,753.62 2362.98,-4242.45 13.61,-96.32 97.8,-377.04 127.74,-483.54"/>
   <g>
    <path class="fil0" d="M9942.18 3889.82c24.55,0 35.9,178.39 41.11,191.59 35.6,460.77 23.15,888.91 -60.35,1344.66 -70.75,307.76 -153.54,546.91 -333.74,808.62 -144.3,190.16 -275.36,304.1 -483.32,419.96 -161.65,83.61 -300.9,130.12 -471.97,185.86 -98.74,31.83 -215.7,66.6 -299.84,128.72 -25.8,20.56 -41.6,37.49 -57.06,66.72 -18.22,22.14 -21.5,86.93 -26.89,113.52 -4.79,192.92 60.12,401.41 119.89,582.78 111.94,308.4 238.14,590.36 373.69,887.55 72.03,159.92 99.98,295.16 -78.83,379.19 -181.11,85.13 -268.57,-29.19 -341.06,-190.08 -137.24,-309.34 -258.72,-623.78 -356.63,-947.86 -73.77,-249.57 -133.52,-487.4 -108.13,-749.56 12.78,-101.3 33.94,-176.54 84.89,-265.59 48.43,-79.01 97.27,-129.32 172.82,-182.46 136.49,-87.99 262.34,-121.98 416.64,-163.76 151.91,-40.13 279.88,-73.85 424.44,-139.1 169.54,-80.48 276.12,-162.51 398.24,-305.76 173.94,-213.62 259.82,-424.03 338.08,-686.11 129.1,-443.84 167.57,-831.51 206.91,-1287.3 2.9,-16.29 18.44,-191.59 41.11,-191.59z"/>
   </g>
   <path class="fil1" d="M8664.87 8998.99c-1919.67,-4084.79 1277.31,-486.41 1277.31,-4917.58 0,-63.89 0,-127.74 0,-191.59"/>
   <g>
    <path class="fil0" d="M9622.84 5933.46c7.02,31.34 -104.89,106.35 -126.01,135.88 -5.01,6.15 -2.15,15.17 -3.69,22.03 -1.62,7.17 8.97,88.4 9.31,88.78 162.18,2287.13 -663.03,696.45 -729.15,2793.35 -6.29,172.54 -30.24,344.79 -236.13,344.79 -211.62,0 -230.44,-187.52 -224.07,-361.58 117.71,-2387.03 982,-567.61 1046.94,-2769.92 1.32,-42.35 3.58,-80.9 17.24,-121.33 11.12,-34.32 25.04,-56.35 55.17,-76.75 6.15,-6.79 183.79,-64.12 190.39,-55.25z"/>
   </g>
   <path class="fil1" d="M8537.17 9318.29c0,-2802.92 1004.7,-770.64 894.08,-3134.82 -9.13,-195.4 34.32,-133.1 191.59,-250.01"/>
   <g>
    <path class="fil0" d="M8728.76 5039.38c11.69,16.71 -9.24,439.08 -12.78,462.91 -25.31,120.96 -71.59,198.69 -153.54,290.87 -122.92,135.88 -261.75,218.14 -423.85,300.55 -564.03,305.61 -1048.63,678.42 -1428.35,1200.74 -150.49,225.69 -256.99,434.56 -270.01,709.65 -0.79,120.35 15.09,208.49 60.42,319.68 6.64,34.88 79.55,146.41 105.31,183.1 86.4,122.99 51.51,203.74 -48.62,300.52 -123.29,119.18 -225.61,110.24 -328.2,-35.83 -63.32,-91.42 -107.64,-179.83 -147.84,-283.88 -63.36,-177.64 -81.99,-318.77 -70.94,-507.42 37.67,-364.9 174.5,-622.19 392.05,-912.22 446.73,-541.75 991.49,-923.31 1639.22,-1188.94 142.6,-59.33 271.25,-119.48 392.91,-215.7 68.8,-62.57 109.53,-113.33 145.1,-199.17 20.21,-64.68 72.94,-424.67 149.12,-424.86z"/>
   </g>
   <path class="fil1" d="M6557.34 8807.4c-1008.92,-1043.77 495.28,-2352.27 1532.75,-2820.99 779.46,-352.19 494.9,-673.82 638.67,-947.03"/>
   <g>
    <path class="fil0" d="M12049.71 8168.73c59.89,73.54 -105.76,513.23 -144.07,591.41 -78.64,131.29 -154.11,214.22 -291.85,284.22 -235.41,100.06 -445,68.12 -693.69,82.64 -127.41,11.35 -221.24,30.06 -340.46,78.48 -148.94,67.63 -248.92,145.92 -365.12,260.43 -368.78,420.26 -583.98,906.3 -791.61,1418.85 -66.19,159.91 -144.37,222.1 -310.96,157.87 -170.62,-65.77 -181.68,-171.9 -114.54,-334.04 236.93,-556.83 521.64,-1088.77 971.51,-1502.46 160.48,-139.93 297.53,-229.46 499.5,-298.9 157.5,-50.35 279.02,-65.66 443.38,-64.34 191.07,4.6 442.1,50.39 619.62,1.21 104.89,-35.64 164.33,-90.6 231.69,-176.93 66.04,-42.73 264.8,-504.06 286.6,-498.44z"/>
   </g>
   <path class="fil1" d="M9111.95 11042.63c1404.74,-3643.75 2426.68,-885.48 2937.76,-2873.9"/>
   <g>
    <path class="fil0" d="M16884.62 8330.19c-111.86,-37.6 620.83,-1758.63 672.92,-1902.89 202.83,-411.51 378.28,-812.01 501.31,-1255.01 35.53,-130.23 66.76,-260.81 74.07,-396.05 5.62,-33.95 -2.07,-68.38 -4.79,-101.95 -4.37,-19.53 -8.67,-17.61 1.7,-3.28 8.3,10.34 17.58,17.35 29.23,23.57 8.03,6.64 24.67,7.25 33.27,9.89 17.23,1.47 0.94,3.28 -15.39,11.76 -96.55,57.22 -192.31,155.65 -268.76,236.82 -332.88,383.67 -606.58,791.94 -884.92,1214.73 -96.85,145.66 -214.26,297.99 -394.12,182.62 -182.02,-116.77 -86.44,-291.54 10.63,-437.57 293.69,-436.56 608.39,-863.65 978.45,-1238.8 119.22,-118.77 237.23,-227.61 389.56,-302.48 69.17,-31.83 124.73,-47.9 201.67,-45.52 43.11,2.79 75.58,11.09 114.65,29.68 38.62,19.92 64.72,40.89 92.82,73.92 45.86,58.95 64.23,110.85 76.52,183.64 9.06,67.13 7.81,124.08 1.85,191.29 -19.04,163.46 -59.4,310.44 -109.41,466.77 -158.59,455.52 -361.12,860.13 -597.67,1279.53 -109.11,192.42 -831.51,1765.79 -903.59,1779.33z"/>
   </g>
   <path class="fil1" d="M16629.14 6350.4c1955.84,-3048.91 2080.87,-1797.55 1043.73,138.68 -118.57,221.35 -697.05,1569.82 -788.25,1841.11"/>
  </g>
 </g>
</svg>
