<?xml version="1.0" encoding="UTF-8"?>
<!DOCTYPE svg PUBLIC "-//W3C//DTD SVG 1.1//EN" "http://www.w3.org/Graphics/SVG/1.1/DTD/svg11.dtd">
<!-- Creator: CorelDRAW 2018 -->
<svg xmlns="http://www.w3.org/2000/svg" xml:space="preserve" width="185mm" height="185mm" version="1.1" style="shape-rendering:geometricPrecision; text-rendering:geometricPrecision; image-rendering:optimizeQuality; fill-rule:evenodd; clip-rule:evenodd"
viewBox="0 0 18500 18500"
 xmlns:xlink="http://www.w3.org/1999/xlink">
 <defs>
  <style type="text/css">
   <![CDATA[
    .fil1 {fill:none}
    .fil0 {fill:white}
   ]]>
  </style>
 </defs>
 <g id="Слой_x0020_1">
  <metadata id="CorelCorpID_0Corel-Layer"/>
  <g id="_1635552840">
   <g>
    <path class="fil0" d="M8089.67 15340.89c-385.46,188.63 -595.9,416.89 -1138.67,166.45 190.13,-545.01 454.08,-1104.59 657.66,-1696.09 160.65,-466.74 418.42,-1422.97 609.08,-1807.08 151.53,773.62 -88.84,2448.66 -128.07,3336.72zm-1286.08 73.35c-285.94,-83.92 -1362.93,-639.88 -1706.53,-357.77 84.1,268.84 444.24,-74.62 1483.27,457.83 724.65,371.35 755.33,351.85 1485.93,31.15 83.87,499.08 -16.41,1413.56 -165.14,1866.08l-4453.54 71.46 -149.9 -2072.79c235.92,-115.17 223.84,-134.53 256.45,-238.61 -162.34,-106.2 -39.14,-26.55 -262.72,15.71 -29.54,-664.82 -59.23,-1333.83 -82.87,-1993.32 -42.34,-1181.03 76.44,-909.24 -554.68,-1569.64 -181.9,-190.35 -920.77,-865.95 -665.66,-1256.15 136.37,-208.57 946.19,-818.9 1237.43,-935.34 56.56,979.35 638.53,1500.97 1693.88,1440.23 1090.48,-62.76 1091.28,-945.28 1603.32,-1577.57 284.83,131.69 540.75,469.6 828.1,531.08l-410.16 -367.98c111.2,-105.32 225.73,217.59 824.4,319.47 -42.27,-39.48 19.17,3.67 -84.66,-72.87l-395.23 -216.35c2.36,-233.02 14.94,-470.45 26.31,-703.47 13.09,-267.96 2.95,-341.98 264.05,-393.5 1275.38,-251.59 769.17,2445.84 626.11,3009.74 -175.95,693.51 -421.08,1393.63 -644.07,2048.24 -195.44,573.68 -492,1488.47 -754.09,1964.37zm1260.28 -5505.89c-129.26,-54.79 -131.78,-89.96 -298.7,-130.27l298.7 130.27zm-483.77 17.96l-224.1 -112.48c-3.11,14.22 30.35,51.4 86.36,74.1 90.58,36.7 38.89,14.08 137.74,38.38zm-4009.54 -1324.37c160.09,94.22 154.26,129.35 276.07,273.64 209.09,247.66 605.72,582.8 947.62,656.55 830.29,179.07 1101.05,-563.26 1403.57,-721.46l197.76 414.24c-527.99,401.91 -367.32,1629.23 -1840.25,1471.61 -1461.71,-156.44 -1241.57,-1755.98 -984.77,-2094.58zm3203.73 394.59c83.49,-190.83 253.5,-311.19 452.04,-396.14l33.87 821.65c-229.11,-89.38 -389.83,-234.75 -485.91,-425.51zm1198.79 8555.01c98.85,-90 67.12,-29.63 125.87,-197.71l144.71 -831.58c60.16,-394.81 4.03,-889.39 18.33,-1310.4 28.55,-840.33 146.6,-1658.29 167.9,-2484.52 9.22,-357.99 -119.44,-993.85 -93.47,-1182.76 89.67,-652.29 476.37,-2169.39 32.08,-2992.9 -145.82,-270.26 -156.59,-150.87 -363.22,-334.08 668.51,-86.07 1242.8,123.09 1491.15,602.04 298.04,574.8 421.47,730.76 1049.93,1125.5 1707.63,1072.55 2007.49,460.69 3149.32,-95.93 987.31,-481.3 1016.58,262.04 1535.24,385.28 283.39,67.34 1815.7,98.18 2104.32,42.68 395.19,-75.99 882.13,-712.89 1024.88,-1148.4 172.5,-526.3 257.66,-1476.09 -183.55,-1766.89 -172.23,53.45 -98.06,47.55 -217.58,224.86 -179.9,266.86 -486.64,520.29 -788.52,661.51 -753.27,352.37 -733.6,212.1 -1399.38,-57.89 -2964.37,-1202.03 -3800.31,635.43 -4552.03,412.14 -249.34,-74.07 -698.54,-677.09 -1006.5,-913.63 -377.16,-289.7 -904.08,-475.69 -1526.28,-306.53 -706.21,192.01 -778.7,505.72 -1306.54,23.61l21.21 -427.96c638.11,67.08 1262.41,-60.78 1397.87,-628.79 155.52,-652.14 490.5,-381.94 1417.43,-211.42 -308.75,-157.31 -1286.22,-557.03 -1513.45,-87.64 -153.11,316.26 -60.52,459.76 -420.68,563.51 -345.85,99.6 -582.36,66.36 -874.07,-45.18 -10.5,-1110.76 -13.42,-2261.26 -320.48,-3265.32 -151.88,-496.68 -390.95,-867.32 -695.66,-1116.98 -599.24,-491 -946.77,145.43 -1314.52,136.46 50.97,34.07 235.36,4.76 -114.33,281.43l-149.54 -282.63 262.88 -51.97c-276.38,-158.94 -305.22,-516.47 -769.92,-100.37 -128.2,114.81 -440.55,499.35 -507.46,692.53 -1017.72,-53.68 -1708.84,-431.49 -1758.55,875.73 -439.52,-89.77 -469.53,-407.16 -195.65,-764.02 251.66,-327.92 402.62,-381.94 888.93,-562.55 414.88,-154.07 635.5,-219.27 851.72,-546.5 124.78,-188.85 338.46,-770.97 367.17,-1021.9 -44.94,251.42 -563.65,963.44 -688.66,1061.2 -444.83,347.92 -939.96,71.7 -1436.05,376.4 -336,206.39 -718.2,527.11 -860.81,954.9 -201.45,604.3 285.65,1011.94 515.97,1242.05 -520.84,287.12 -797.76,984.95 -732.39,1548.85 44.32,382.41 132.72,306.59 -98.11,539.27 333.94,-97.28 189.19,-102.44 376.75,206.84 296.45,488.77 682.12,586.64 1103.08,929.8 -261.56,634.23 -1510.06,903.23 -2132.42,1013.61 327.02,13.46 1020.8,-124.46 1326.11,-203.77 588.4,-152.84 650.42,-328.52 1004.71,-559.57 60.9,699.15 -270,1352.06 -673.4,1667.9 80.29,85.19 15,71.53 290.67,-173.41 48.85,-43.4 58.79,-51.54 104.93,-100.74 351.16,-374.32 638.19,-812.13 670.61,-1389.61l437.73 141.93c128.27,623.01 -191.19,969.7 -784.43,1268.72 94.11,63.7 37.99,23.46 330.33,-148.45 87.67,-51.57 174.48,-104.3 309.97,-206.56 118.62,-89.53 201.62,-130.33 263.45,-260.12 56.68,-119.04 31.4,-113.79 57.81,-202.98l77.98 -175.18c-2.69,17.95 -210.58,819.45 -213.03,823.42 -183.12,297.44 -1852.28,875.76 -1350.13,1721.06 168.94,284.39 749.28,885.06 1002.25,1124.86 271.16,257.02 201.86,1542.49 218.37,1979.83l165.81 3003.93c38.21,479.93 -53.75,644.33 483.23,630.23 599.52,-15.72 4025.43,-0.13 4250.11,-105.24zm-1332.76 -8723.72c-95.63,-210.3 -164.09,-381.2 -196.76,-643.47l766.35 -123.99c4.35,366.32 -0.76,301.92 -218.34,472.97 -167.85,131.95 -199.3,207.75 -351.25,294.49zm707.49 -583.98c21.17,-350.86 -56.9,-181.43 522.2,-390.31 221.96,-80.06 427.55,-175.77 672.7,-256.09 850.6,-278.68 1461.24,11.36 1999.75,589.68 601.36,645.8 587.13,882.19 1782.31,187.77 1200.11,-697.3 2472.9,-465.26 3717.83,112.74 314.58,146.04 334.15,205.69 726.86,86.06 238.79,-72.73 468.07,-165.93 654.36,-277.66 122.85,-73.69 177.93,-131.26 280.54,-194.02 479.01,-292.95 -13.3,207.95 201.45,-71.03 162.16,-191.57 140.97,-268.83 284.25,-393.14 109.99,391.66 198.37,434.94 130.57,934.03 -36.91,271.63 -133.31,625.54 -255.03,833.23 -360.23,614.63 -598.41,719.73 -1494.65,726.59 -1498.3,11.48 -1168.93,5.93 -1759.73,-411.61 -1108.38,-783.32 -1872.28,1060.37 -3294.44,550.4 -446.21,-160 -1103.77,-585.82 -1397.58,-831.23 -486.91,-406.66 -353.89,-845.34 -970.98,-1202.89 -774.88,-449 -1078.14,-122.11 -1800.41,7.48zm10489.2 -115.3c-60.65,187.75 23.72,-73.44 0,0zm-11068.7 -160.88c19.9,-138.04 58.86,-215.2 63.94,-369.69l-46.04 152.75c-10.59,36.77 -35.3,128.33 -51.78,151.69 -44.78,63.47 -12.44,49.67 -128.07,89.57 -61.23,21.13 -134.03,21.44 -199.4,30.29l-58.49 -1340.17c149.86,100.35 215.27,239.75 337.93,389.57 180.72,220.69 108.24,191.61 145.85,526.3l156.73 -213.98c257.33,156.22 224.6,91 204.58,473.07l-425.25 110.6zm603.49 -214.2c51.16,-248.49 26.89,-145.48 321.07,-68.94 -57.87,54.16 91,62.41 -150.93,109.43 -319.66,62.15 -77.9,11.24 -170.14,-40.49zm-4671.26 -1308.34c143.79,268.92 347.84,1005.98 382.24,1336.08 -325.92,-151.51 -360.91,-55.85 -417.13,-475.27 -29.45,-219.77 14.24,-609 34.89,-860.81zm4299.07 374.3c227.63,79.79 210.11,223.41 163.47,485.88l-164.63 -172.73 1.16 -313.15zm-198.07 -5.91c-125.86,-202.12 -103.91,-178.69 -170.69,-422.39l170.69 422.39zm-4707.41 397.79c-230.02,-192.69 -479.57,-385.59 -616.43,-782.64 -167.54,-486.03 28.94,-905.17 352.98,-1064.97 -189.63,1129.32 97.03,1025.37 263.45,1847.61zm1300.86 940.25l1772.79 326.89c-230.49,-139.16 -1000.98,-321.67 -1370.95,-433.6 -736.37,-222.81 -365.03,-122.51 -836.76,-2480.06 -79.37,-396.69 9.79,-365.2 247.92,-547.68 298.45,100.31 631.45,467.57 964.74,504.73l35.84 -551.92c271.37,38.57 187.33,119.73 277.69,214.25 104.45,109.25 264.32,160.77 397.77,271.62 218.67,181.66 469.35,410.96 625.61,669.46 363.02,600.58 377.08,1362.83 519.91,2129.18 86.87,466.15 -45.95,521.77 -330.59,798.53 -801.27,779.11 -1507.54,37.47 -1998.22,-602.95 -76.6,-100 -298.2,-284.33 -305.75,-298.45zm1972.13 403.54l-197.46 -80.26 197.46 80.26zm436.71 -4066.69l23.48 612.53 -221.9 -510.87 198.42 -101.66zm870.93 -149.46c-324.85,-1263.91 -296.56,-1131.6 -886.23,-1506.59 32.71,-33.55 165,-66 257.3,-46.19 627.49,134.69 1107.87,2888.39 1073.34,3497.24 -128.91,-299.75 -111.04,-647.5 -190,-1008.62 -70.04,-320.33 -171.08,-611.54 -254.41,-935.84zm-2223.7 -1432.89c-18.19,-20.33 -103.08,8.33 -65.47,-187.21 40.83,-212.19 164.09,-512.04 368.03,-538.03 -24.3,169.17 -172.89,607.7 -302.56,725.24z"/>
   </g>
   <path class="fil0" d="M6156.21 14945.73c158.29,-24.5 83.48,112.05 267.8,-351.26 61.12,-153.65 121.86,-314.96 178.56,-493.79 312.33,-984.75 374.58,-1902.56 398.14,-2928.81 5.95,-258.36 47.84,-485.89 -63.53,-630.09 -128.92,68.11 -95.6,-138.71 -99.72,526.26 -6.94,1123.72 -125.1,2404.08 -554.34,3439.6 -81.45,196.51 -179.02,291.81 -126.91,438.09z"/>
   <path class="fil1" d="M6630.85 6391.12c66.78,243.7 44.83,220.27 170.69,422.39"/>
  </g>
 </g>
</svg>
