<?xml version="1.0" encoding="UTF-8"?>
<!DOCTYPE svg PUBLIC "-//W3C//DTD SVG 1.1//EN" "http://www.w3.org/Graphics/SVG/1.1/DTD/svg11.dtd">
<!-- Creator: CorelDRAW 2018 -->
<svg xmlns="http://www.w3.org/2000/svg" xml:space="preserve" width="16.9332mm" height="16.9332mm" version="1.1" style="shape-rendering:geometricPrecision; text-rendering:geometricPrecision; image-rendering:optimizeQuality; fill-rule:evenodd; clip-rule:evenodd"
viewBox="0 0 1693.32 1693.32"
 xmlns:xlink="http://www.w3.org/1999/xlink">
 <defs>
  <style type="text/css">
   <![CDATA[
    .fil1 {fill:none}
    .fil0 {fill:white}
   ]]>
  </style>
 </defs>
 <g id="Слой_x0020_1">
  <metadata id="CorelCorpID_0Corel-Layer"/>
  <g id="_1644312872">
   <g>
    <path class="fil0" d="M893.57 1310.95l-5.36 -1.13c-0.42,-0.12 -1.25,-0.35 -1.74,-0.75l7.1 1.88zm-48.12 -89.15c3.77,5.53 4.17,10.27 7.72,18.52 3.14,7.32 6.39,12.97 10.29,19.54 6.34,10.69 20.35,26.14 23.17,33.23 -16.69,17.16 -30.35,47.63 -40.43,60.83l-0.75 -1.15 0 -130.97zm0 -100.9l0 -57.47c34.32,0.36 68.86,-13.34 78.95,-42.46 -19.02,6.17 -42.01,21.13 -65.81,18.1 2.81,-21.92 11.53,-39.87 20.64,-55.53 9.09,-15.6 28.81,-31.55 34.43,-38.46 26.59,18.35 43.29,71.94 25.46,114.38 -16.91,40.25 -55.2,61.51 -93.67,61.44zm0 -128.26l0 -40.17c7.99,-0.01 15.84,-0.57 27.64,-1.5 -5.87,8.3 -9.39,12.42 -14.33,21.24 -3.72,6.64 -7.94,14.75 -12.56,21.61l-0.75 -1.18zm0 -74.26l0 -197.12c51.81,-1.09 90.43,38.01 97.63,82.51 9.45,58.39 -32.9,104.25 -79.62,112.92 -6.14,1.14 -12.15,1.68 -18.01,1.69zm0 -325.89l0 -91.55 1.66 -3.15c8.61,28.25 18.51,38.32 27.59,59.91l-28.5 35.66c-0.26,-0.29 -0.51,-0.58 -0.75,-0.87zm0 -171.72l0 -68.84c0.26,-0.01 0.53,-0.01 0.79,-0.01 34.15,-0.95 66.16,-11.64 100.46,-12.48 119.38,-2.92 120.99,125.98 67.53,196.3 -44.05,-17.39 -81.27,-12.74 -119.36,7.24 -13.64,-20.3 -31.12,-57.57 -34.11,-88.41 22.34,-1.48 42.87,-11.4 65.46,-9.63 21.59,1.69 36.19,14.3 53.79,19.3 -5.48,-16.9 -30.64,-38.77 -50.37,-44.89 -27.99,-8.67 -55.19,1.1 -83.35,1.42l-0.84 0zm130.97 582.17c9.71,-7.54 15.98,-1.18 26.7,2.83 14.34,5.37 18.82,0.62 21.09,15.42 3.23,21.16 9.65,43.22 11.86,61.38l-29.56 -20.52c-11.31,-6.78 -19.85,-11.63 -31.18,-17.89l1.09 -41.22zm70.66 11.4c57.97,-4.59 83.17,-22.8 106.89,-54.59 43.11,13.25 115.18,76.19 92.31,141.66 -21.64,61.93 -89.25,64.7 -135.68,104.34 -22.73,19.4 -40.65,39.29 -61.83,59.25 -84.85,79.96 -182.82,-4.83 -179.24,-115.79 8.23,-4.67 22.55,-6.69 33.11,-11.91 30.94,-15.27 49.31,-36.23 65.23,-69.54 28.59,13.01 72.71,45.6 84.51,65.46l-40.69 44.55c-20.46,16.23 -46.26,15.48 -58.14,19.57 -0.47,0.16 -1.25,0.57 -1.62,0.71l-3.14 1.69c72.86,27.96 97.43,-16.27 133.92,-44.74 29.48,-23.01 91.81,-40.69 83.86,-113.65l-4.8 5.44c-0.3,0.43 -0.63,1 -0.91,1.45 -1.6,2.57 -1.61,3.27 -3.06,5.99 -18.26,34.24 -44.94,46.91 -80.89,62.26 -13.04,-14.7 -28.18,-76.5 -29.83,-102.15zm134.99 -82.03c48.42,3.19 58.98,9.17 109.56,-1.86 9.91,9.9 16.8,21.77 25.34,31.27 8.29,9.2 23.67,20.92 27.99,30.81 -24.78,3.35 -60.17,20.34 -76.17,21.56 -13.18,-19.8 -22.26,-34.73 -37.08,-47.08 -22.51,-18.76 -40.79,-27.51 -49.64,-34.7zm-219.9 -44.91c0.86,-2.68 15.88,-42.91 16.51,-44 6.54,5.88 9,11.07 14.67,17.1l12.03 11.08c3.13,3.32 0.77,0.12 3.29,3.66l-46.5 12.16zm22.4 -84.22c17.63,-9.06 32.2,-20.33 60.33,-21.08 71.19,-1.88 122.16,66.49 99.62,133.23 -35.66,105.59 -175.88,75.24 -190.26,3.21 18.92,-12.45 75.93,-28.31 101.44,-18.26 9.33,7.73 -32.38,53.76 -37.1,58.28 64.34,-1.7 94.74,-118.13 48.96,-149.86 1.55,20.59 5.47,50.28 -2.44,67.84 -34.37,-9.8 -73.68,-41.04 -80.55,-73.36zm117.47 -39.72c-5.53,-1.42 -15.36,-4.41 -21.27,-6.58 -26.37,-9.71 -0.02,-47.19 0.43,-48.45l72.14 14.54c-24.01,10.98 -33.9,28.89 -51.3,40.49zm-190.91 -63.2c14.98,-4.37 23.68,-12.41 35.9,-17.21l-4.11 42.44 -31.79 -25.23zm-45.61 -13.49c-28.45,-99.7 82.42,-170.4 157.24,-111.46 51.95,40.91 56.37,116.94 1.29,160.22 -11.15,8.76 -35.36,23.27 -55.6,20.02 -4.9,-38.74 1.31,-77.17 16.65,-106.31 11.62,5.04 24.45,24.68 31.69,36.94l10.91 14.33c1.16,-66.52 -59.44,-115.59 -127.38,-93.28 2.46,2.02 1.16,1.3 5.13,3.07l12.76 3.25c6.61,1.51 12.45,3.18 17.79,5.04 9.8,3.41 20.28,8.03 28.17,14.47 -7.85,16.96 -63.54,58.72 -98.65,53.71zm321.02 -87.96c-4.97,-0.77 -4.42,0.84 -3.61,-3.32 -4.72,1.44 -4.05,2.91 -4.14,-1.1 -5.14,-1.74 -8.2,-3.84 -13.75,-6.12 -0.39,-0.16 -8.07,-2.48 -8.67,-2.45 -7.9,0.28 -1.86,-4.82 -7.62,2.81 4.51,-1.33 3.92,-2.26 2.38,2.16 4.51,-1.51 3.79,-2.34 2.42,2.2 4.44,-1.44 3.46,-2 2.1,2.49 4.4,-1.31 3.58,-2.03 2.24,2.38 4.47,-1.38 2.87,-1.9 3.72,3.22 5.91,1.25 11.36,12.45 14.3,17.48 10.88,18.61 18.27,62.06 17.49,77.84 -45.22,2.1 -63.33,-3.1 -103.65,-10.01 2.32,-18.64 4.36,-41.05 -0.23,-59.63 -1.89,-7.67 -4.71,-16.5 -7.74,-23.62 -4.03,-9.48 -8.92,-13 -10.81,-22.6 17.88,-32.55 92.28,-95.07 156.95,-70.9 68.71,25.68 59.06,114.24 73.39,161.75 13.42,44.46 122.93,181.71 -22.06,225.8 -24.81,7.55 -80.11,7.58 -100.69,-4.71 2.21,-58.73 -23.63,-92.92 -54.08,-114.58 4.12,-10.16 25.79,-26.3 35.21,-32.37 10.2,-6.56 31.48,-19.95 45.34,-21.68 16.83,51.24 37.67,23.05 26.26,115.6 5.56,-3.07 5.97,-1.77 11.94,-12.72 26.03,-47.8 17.74,-62.04 -4.31,-111.2 -14.97,-33.38 -14.3,-65.87 -34.47,-95.78 -4.27,-6.34 -16.98,-18.91 -17.91,-20.94zm-102.68 -164.19c30.64,-7.42 46.65,-20.1 70.18,-30.85l-5.18 72.4 -14.21 6.73c-5.41,2.21 -9.69,4.54 -13.96,6.71 -9.09,4.62 -17.3,10.44 -25.03,16.05 -21.38,15.51 -34.26,32.21 -43.53,39.32 24.99,-62.6 21.53,-29.48 31.73,-110.36z"/>
   </g>
   <path class="fil0" d="M1148.75 588.63c-1.38,4.49 -2.08,3.67 2.38,2.16 -1.54,4.47 -2.13,3.53 2.42,2.2 -1.3,4.43 -2.27,3.85 2.1,2.49 -1.41,4.39 -2.19,3.64 2.24,2.38 -1.56,4.93 -2.01,3.22 3.72,3.22 -0.85,-5.12 0.75,-4.6 -3.72,-3.22 1.34,-4.41 2.16,-3.69 -2.24,-2.38 1.36,-4.49 2.34,-3.93 -2.1,-2.49 1.37,-4.54 2.09,-3.71 -2.42,-2.2 1.54,-4.42 2.13,-3.49 -2.38,-2.16 5.76,-7.63 -0.28,-2.53 7.62,-2.81 0.6,-0.03 8.28,2.29 8.67,2.45 5.55,2.28 8.61,4.38 13.75,6.12 0.09,4.01 -0.58,2.54 4.14,1.1 -0.81,4.16 -1.36,2.55 3.61,3.32 0,-5.74 1.55,-5.09 -3.61,-3.32 0.99,-4.28 1.1,-2.39 -4.14,-1.1 8.48,-6.52 30.59,-1.26 41.93,-4.83 2.9,-10.8 3.03,-53 0.25,-63.81 -7.74,-2.84 -56.84,-4.65 -62.97,0.71 -3.83,3.54 -3.51,-0.74 -3.23,22.07 0.11,9.13 0.03,18.3 0.03,27.44 -0.5,5.63 0.53,1.28 -6.54,7.29l-3.7 3.01c1.52,4.85 0.51,0.59 4.19,2.36z"/>
   <path class="fil1" d="M886.47 1309.07c0.49,0.4 1.32,0.63 1.74,0.75l5.36 1.13"/>
   <g>
    <path class="fil0" d="M799.75 1310.96l5.36 -1.13c0.42,-0.12 1.25,-0.35 1.74,-0.75l-7.1 1.88zm48.12 -89.15c-3.77,5.53 -4.17,10.27 -7.72,18.52 -3.14,7.32 -6.39,12.97 -10.29,19.54 -6.34,10.69 -20.35,26.14 -23.17,33.23 16.69,17.16 30.35,47.63 40.43,60.83l0.75 -1.15 0 -130.97zm0 -100.9l0 -57.47c-34.32,0.36 -68.86,-13.34 -78.95,-42.46 19.02,6.17 42.01,21.13 65.81,18.1 -2.81,-21.92 -11.53,-39.87 -20.64,-55.53 -9.09,-15.6 -28.81,-31.55 -34.43,-38.46 -26.59,18.35 -43.29,71.94 -25.46,114.38 16.91,40.25 55.2,61.51 93.67,61.44zm0 -128.26l0 -40.17c-7.99,-0.01 -15.84,-0.57 -27.64,-1.5 5.87,8.3 9.39,12.42 14.33,21.24 3.72,6.64 7.94,14.75 12.56,21.61l0.75 -1.18zm0 -74.26l0 -197.12c-51.81,-1.09 -90.43,38.01 -97.63,82.51 -9.45,58.39 32.9,104.25 79.62,112.92 6.14,1.14 12.15,1.68 18.01,1.69zm0 -325.89l0 -91.55 -1.66 -3.15c-8.61,28.25 -18.51,38.32 -27.59,59.91l28.5 35.66c0.26,-0.29 0.51,-0.58 0.75,-0.87zm0 -171.72l0 -68.84c-0.26,-0.01 -0.53,-0.01 -0.79,-0.01 -34.15,-0.95 -66.16,-11.64 -100.46,-12.48 -119.38,-2.92 -120.99,125.98 -67.53,196.3 44.05,-17.39 81.27,-12.74 119.36,7.24 13.64,-20.3 31.12,-57.57 34.11,-88.41 -22.34,-1.48 -42.87,-11.4 -65.46,-9.63 -21.59,1.69 -36.19,14.3 -53.79,19.3 5.48,-16.9 30.64,-38.77 50.37,-44.89 27.99,-8.67 55.19,1.1 83.35,1.42l0.84 0zm-130.97 582.17c-9.71,-7.54 -15.98,-1.18 -26.7,2.83 -14.34,5.37 -18.82,0.62 -21.09,15.42 -3.23,21.16 -9.65,43.22 -11.86,61.38l29.56 -20.52c11.31,-6.78 19.85,-11.63 31.18,-17.89l-1.09 -41.22zm-70.66 11.4c-57.97,-4.59 -83.17,-22.8 -106.89,-54.59 -43.11,13.25 -115.18,76.19 -92.31,141.66 21.64,61.93 89.25,64.7 135.68,104.34 22.73,19.4 40.65,39.29 61.83,59.25 84.85,79.96 182.82,-4.83 179.24,-115.79 -8.23,-4.67 -22.55,-6.69 -33.11,-11.91 -30.94,-15.27 -49.31,-36.23 -65.23,-69.54 -28.59,13.01 -72.71,45.6 -84.51,65.46l40.69 44.55c20.46,16.23 46.26,15.48 58.14,19.57 0.47,0.16 1.25,0.57 1.62,0.71l3.14 1.69c-72.86,27.96 -97.43,-16.27 -133.92,-44.74 -29.48,-23.01 -91.81,-40.69 -83.86,-113.65l4.8 5.44c0.3,0.43 0.63,1 0.91,1.45 1.6,2.57 1.61,3.27 3.06,5.99 18.26,34.24 44.94,46.91 80.89,62.26 13.04,-14.7 28.18,-76.5 29.83,-102.15zm-134.99 -82.03c-48.42,3.19 -58.98,9.17 -109.56,-1.86 -9.91,9.9 -16.8,21.77 -25.34,31.27 -8.29,9.2 -23.67,20.92 -27.99,30.81 24.78,3.35 60.17,20.34 76.17,21.56 13.18,-19.8 22.26,-34.73 37.08,-47.08 22.51,-18.76 40.79,-27.51 49.64,-34.7zm219.9 -44.91c-0.86,-2.67 -15.88,-42.91 -16.51,-44 -6.54,5.88 -9,11.07 -14.67,17.11l-12.03 11.07c-3.13,3.32 -0.77,0.12 -3.29,3.66l46.5 12.16zm-22.4 -84.22c-17.63,-9.06 -32.2,-20.33 -60.33,-21.08 -71.19,-1.88 -122.16,66.49 -99.62,133.23 35.66,105.59 175.88,75.24 190.26,3.21 -18.92,-12.45 -75.93,-28.31 -101.44,-18.26 -9.33,7.73 32.38,53.76 37.1,58.28 -64.34,-1.7 -94.74,-118.13 -48.96,-149.86 -1.55,20.59 -5.47,50.28 2.44,67.84 34.37,-9.8 73.68,-41.04 80.55,-73.36zm-117.47 -39.72c5.53,-1.42 15.36,-4.41 21.27,-6.58 26.37,-9.71 0.02,-47.19 -0.43,-48.45l-72.14 14.54c24.01,10.98 33.9,28.89 51.3,40.49zm190.91 -63.2c-14.98,-4.37 -23.68,-12.41 -35.9,-17.21l4.11 42.44 31.79 -25.23zm45.61 -13.49c28.45,-99.7 -82.42,-170.4 -157.24,-111.46 -51.95,40.91 -56.37,116.94 -1.29,160.22 11.15,8.76 35.36,23.27 55.6,20.02 4.9,-38.74 -1.31,-77.17 -16.65,-106.31 -11.62,5.04 -24.45,24.68 -31.69,36.94l-10.91 14.33c-1.16,-66.52 59.44,-115.59 127.38,-93.28 -2.46,2.02 -1.16,1.3 -5.13,3.07l-12.76 3.25c-6.61,1.51 -12.45,3.18 -17.79,5.04 -9.8,3.41 -20.28,8.03 -28.17,14.48 7.85,16.95 63.54,58.71 98.65,53.7zm-321.02 -87.96c4.97,-0.77 4.42,0.84 3.61,-3.32 4.72,1.44 4.05,2.91 4.14,-1.1 5.14,-1.74 8.2,-3.84 13.75,-6.12 0.39,-0.16 8.07,-2.48 8.67,-2.45 7.9,0.28 1.86,-4.82 7.62,2.81 -4.51,-1.33 -3.92,-2.26 -2.38,2.16 -4.51,-1.51 -3.79,-2.34 -2.42,2.2 -4.44,-1.44 -3.46,-2 -2.1,2.49 -4.4,-1.31 -3.58,-2.03 -2.24,2.38 -4.47,-1.38 -2.87,-1.9 -3.72,3.22 -5.91,1.25 -11.36,12.45 -14.3,17.48 -10.88,18.61 -18.27,62.06 -17.49,77.84 45.22,2.1 63.33,-3.1 103.65,-10.01 -2.32,-18.64 -4.36,-41.05 0.23,-59.63 1.89,-7.67 4.71,-16.5 7.74,-23.62 4.03,-9.48 8.92,-13 10.81,-22.6 -17.88,-32.55 -92.28,-95.07 -156.95,-70.9 -68.71,25.68 -59.06,114.24 -73.39,161.75 -13.42,44.46 -122.93,181.71 22.06,225.8 24.81,7.55 80.11,7.58 100.69,-4.71 -2.21,-58.73 23.63,-92.92 54.08,-114.58 -4.12,-10.16 -25.79,-26.3 -35.21,-32.37 -10.2,-6.56 -31.48,-19.95 -45.34,-21.68 -16.83,51.24 -37.67,23.05 -26.26,115.6 -5.56,-3.07 -5.97,-1.77 -11.94,-12.72 -26.03,-47.8 -17.74,-62.04 4.31,-111.2 14.97,-33.38 14.3,-65.87 34.47,-95.78 4.27,-6.34 16.98,-18.91 17.91,-20.94zm102.68 -164.19c-30.64,-7.42 -46.65,-20.1 -70.18,-30.85l5.18 72.4 14.21 6.73c5.41,2.21 9.69,4.54 13.96,6.71 9.09,4.62 17.3,10.44 25.03,16.05 21.38,15.51 34.26,32.21 43.53,39.32 -24.99,-62.6 -21.53,-29.48 -31.73,-110.36z"/>
   </g>
   <path class="fil0" d="M542.37 588.64c1.38,4.49 2.08,3.67 -2.38,2.16 1.54,4.47 2.13,3.53 -2.42,2.2 1.3,4.43 2.27,3.85 -2.1,2.49 1.41,4.39 2.19,3.64 -2.24,2.38 1.56,4.93 2.01,3.22 -3.72,3.22 0.85,-5.12 -0.75,-4.6 3.72,-3.22 -1.34,-4.41 -2.16,-3.69 2.24,-2.38 -1.36,-4.49 -2.34,-3.93 2.1,-2.49 -1.37,-4.54 -2.09,-3.71 2.42,-2.2 -1.54,-4.42 -2.13,-3.49 2.38,-2.16 -5.76,-7.63 0.28,-2.53 -7.62,-2.81 -0.6,-0.03 -8.28,2.29 -8.67,2.45 -5.55,2.28 -8.61,4.38 -13.75,6.12 -0.09,4.01 0.58,2.54 -4.14,1.1 0.81,4.16 1.36,2.55 -3.61,3.32 0,-5.74 -1.55,-5.09 3.61,-3.32 -0.99,-4.28 -1.1,-2.39 4.14,-1.1 -8.48,-6.52 -30.59,-1.26 -41.93,-4.83 -2.9,-10.8 -3.03,-53 -0.25,-63.81 7.74,-2.84 56.84,-4.65 62.97,0.71 3.83,3.54 3.51,-0.74 3.23,22.07 -0.11,9.13 -0.03,18.3 -0.03,27.44 0.5,5.63 -0.53,1.28 6.54,7.29l3.7 3.01c-1.52,4.85 -0.51,0.59 -4.19,2.36z"/>
   <path class="fil1" d="M804.65 1309.08c-0.49,0.4 -1.32,0.63 -1.74,0.75l-5.36 1.13"/>
  </g>
 </g>
</svg>
