<?xml version="1.0" encoding="UTF-8"?>
<!DOCTYPE svg PUBLIC "-//W3C//DTD SVG 1.1//EN" "http://www.w3.org/Graphics/SVG/1.1/DTD/svg11.dtd">
<!-- Creator: CorelDRAW 2018 -->
<svg xmlns="http://www.w3.org/2000/svg" xml:space="preserve" width="250mm" height="250mm" version="1.1" style="shape-rendering:geometricPrecision; text-rendering:geometricPrecision; image-rendering:optimizeQuality; fill-rule:evenodd; clip-rule:evenodd"
viewBox="0 0 25000 25000"
 xmlns:xlink="http://www.w3.org/1999/xlink">
 <defs>
  <style type="text/css">
   <![CDATA[
    .fil0 {fill:white}
   ]]>
  </style>
 </defs>
 <g id="Слой_x0020_1">
  <metadata id="CorelCorpID_0Corel-Layer"/>
  <g id="_839001912">
   <path class="fil0" d="M9840.92 15288.61c206.95,-34.68 220.01,-36.51 330.72,-146.92l42.66 290.31c-7.92,82.53 -19.32,76.8 -34.45,109.88 -167.54,56.78 -222.96,-116.32 -338.93,-253.27zm58.31 -8057.86c287.95,-158.51 635.39,-174.58 1013.08,-416.68 375.73,-240.8 440.6,-446.16 718.33,-753.96 40.82,535.78 15.24,1031.98 -182.67,1475.66 -338.76,35.8 -634.68,-11.46 -972.37,-20.85 -276.55,-7.74 -402.74,-111.48 -576.37,-284.17zm2671.58 -207.13c-237.61,-339.17 -638.99,-848.95 -503.52,-1402.1 91.45,135.29 184.44,558.17 240.98,729.44 82.06,248.66 186.92,451.83 262.54,672.66zm-717.98 -1763.19l-43.83 -585.82c-398.07,605.85 -84.66,1137.73 -973.08,1712.38 -870.64,563.14 -1328.14,233.72 -2257.86,284.76 -320.2,287.71 -150.23,122.47 -526.15,333.2 -1166.03,653.76 561.36,958.08 963.81,1092.42 -441.38,397.18 -784.09,865.14 -1283.95,1239.58 -379.05,283.93 -226.74,418.75 -151.07,938.04 70.37,482.97 59.32,615.66 227.93,1076 255.04,696.23 307.62,1333.34 606.79,1994.66 147.05,325.05 889.25,1575.38 889.78,1659.15l-318.26 316.72c-25.58,543.11 374.15,388.5 701.32,612.64l1078.12 5836.64c227.28,-690.39 -463.29,-4775.77 -514.87,-5886.62 164.12,-338.93 302.01,-163.29 244.35,-803.88 -36.21,-402.79 -142.73,-533.95 -492.36,-370.71 -293.26,-1458.17 -547.06,-1757.46 -361.14,-3381.53l1054.07 4046.16c161.94,-314.83 -189.7,-2642.34 -273.77,-3084.24 -132.27,-695.29 -318.78,-2654.51 -1262.79,-2174.56 -21.8,57.72 -69.42,1016.09 -131.57,1317.39 -110.83,536.96 -190.47,812.86 -60.91,1203.37 87.79,264.61 742.61,2037.31 711.12,2114.17 -462.81,-139.66 -1597.77,-4262.08 -1709.9,-5029.39l1623.71 -1363.11c512.09,435.76 624.34,991.33 933.14,1264.27 76.27,-681.17 -433.22,-1301.38 -749.82,-1588.02 -465.42,-421.35 -1096.91,-488.29 -1557.24,-803.35 664.51,-392.16 1883.17,778.36 2104.72,1005.57 957.89,982.53 787.51,2010.14 1026.01,2260.99 443.03,-1056.21 -112.9,-1351.48 -193.6,-2036.85l756.97 112.67c-946.55,1640.13 581.57,1118.11 796.2,1130.16 -67.82,521.49 -18.43,972.02 380.94,1187.71 -52.53,-249.78 -194.67,-432.74 -206.84,-663.92 -16.3,-311.64 250.43,-525.44 29.3,-723.12 -156.14,-239.79 -571.16,-104.27 -883.1,-100.02l561.07 -1125.2 898.34 941.18 -907.5 -2057.23 607.09 533.42 -327.23 -1354.43 265.55 -201.46c287.48,162.17 1091.95,1692.3 1425.8,2118.96 249.78,319.2 1354.19,1789.31 1611.48,1904.75 -200.16,-626.53 -1199.65,-1881.53 -1564.22,-2501.44 -251.5,-427.6 -432.87,-929.42 -685.72,-1365.59 -418.28,-721.64 -437.83,-770.14 -1218.9,-574.95 -42.01,-257.88 -57.72,-969.65 -245.95,-1076.23 -409.88,-232.12 -481.48,337.87 -595.98,614.71z"/>
   <path class="fil0" d="M9129.09 5279.99c424.59,-297.76 672.96,5.67 1181.62,-990.39l499.21 1065.77c-187.45,207.78 -555.98,427.25 -899.29,507.9 -452.48,106.34 -395.88,80.64 -781.54,-583.28zm-546.71 -788.94c99.9,-432.69 1029.61,-1215.24 1690.05,-906.2 -38.82,243.76 -29.66,14.71 -116.98,260.24 -96.59,271.35 -157.62,469.97 -470.79,691.28 -364.75,257.76 -484.68,158.44 -1102.28,-45.32zm1584.36 -1261.85l-713.85 0c-500.57,319.02 -1269.71,490.88 -1368.54,1163.43 -62.51,425.3 220.18,451.06 405.16,827.15 109.82,223.32 472.86,564.26 634.26,663.81l-173.87 427.13c1278.46,544.76 2774.91,-1086.39 2379.2,-1796.39l-283.46 491.89c-173.33,-281.39 -222.13,-707.35 -309.21,-1033.81 -80.23,-301.13 -343.07,-537.91 -569.69,-743.21z"/>
   <path class="fil0" d="M11718.72 18901.19c44.19,-50.33 560.6,-1943.97 626.94,-2200.13 453.07,-1749.78 532.42,-3986.31 -542.1,-5442.71 -729.68,-989.03 -903.96,-262.36 -815.87,-89.09 270.7,532.48 1489.01,1081.78 1205.2,4384.02 -99.91,1162.49 -512.27,2189.21 -474.17,3347.91z"/>
   <path class="fil0" d="M17514.3 14119.57c-949.44,-1082.9 -3018.96,-4229.71 -3469.25,-5852.71 -68.95,-248.48 -175.17,-1030.67 -596.81,-619.19 -714.26,697.18 3292.55,6307.43 4066.06,6471.9z"/>
   <path class="fil0" d="M15910.27 10457.66c-45.08,383.84 -290.19,879.98 345.13,795.32 -30.24,-87.38 -0.06,0.88 -75.32,-72.61l-93.11 -98.07c68.71,-94.53 72.79,-109.95 144.45,-188.17 321.15,243.47 -14,330.67 585.76,927.06 -103.74,-791.71 22.15,-1059.74 -233.18,-1340.54l-71.43 -81.35c-198.74,-213.45 -236.19,-169.15 -602.3,58.36z"/>
   <path class="fil0" d="M17081.38 12503.49c401.79,-309.63 -65.88,-553.51 -146.81,-261.42 -40.77,147.1 59.9,201.87 146.81,261.42z"/>
  </g>
 </g>
</svg>
