<?xml version="1.0" encoding="UTF-8"?>
<!DOCTYPE svg PUBLIC "-//W3C//DTD SVG 1.1//EN" "http://www.w3.org/Graphics/SVG/1.1/DTD/svg11.dtd">
<!-- Creator: CorelDRAW 2018 -->
<svg xmlns="http://www.w3.org/2000/svg" xml:space="preserve" width="185mm" height="185mm" version="1.1" style="shape-rendering:geometricPrecision; text-rendering:geometricPrecision; image-rendering:optimizeQuality; fill-rule:evenodd; clip-rule:evenodd"
viewBox="0 0 18500 18500"
 xmlns:xlink="http://www.w3.org/1999/xlink">
 <defs>
  <style type="text/css">
   <![CDATA[
    .str0 {stroke:#2B2A29;stroke-width:17.64;stroke-miterlimit:2.61313}
    .fil2 {fill:#FEFEFE}
    .fil3 {fill:#BBBBBB}
    .fil4 {fill:#8D8D8D}
    .fil1 {fill:#030303}
    .fil0 {fill:#373737}
   ]]>
  </style>
 </defs>
 <g id="Слой_x0020_1">
  <metadata id="CorelCorpID_0Corel-Layer"/>
  <g id="_1634311744">
   <path class="fil0" d="M9521.47 16176.75c-142.43,-548.23 -248.79,-940.18 -628.76,-1182.62 -787.21,-502.35 -454.58,-162.35 -841.18,-1119.27 -376.94,-932.83 -895.59,-1704.02 -1260.84,-2562.81 2047.76,589.36 3504,-1333.28 5638.06,-1198.64 94.52,657.91 -1148.86,3278.29 -1511.51,3966.66 -212.14,402.62 -237.68,266.54 -498.01,597.44 -266.55,338.99 -413.31,883.76 -638.14,1204.99l-259.62 294.25zm-3401.39 -6869.75c-116.32,154.99 -188.33,2.17 -192.37,344.76l-1274.55 -230.32c-835.7,-49.93 -1334.44,-57.29 -1971.42,191.07 -69.71,367.27 -66.96,709.86 43.29,1038.6 2002.02,894 1340.21,-1022.3 3065.73,1452.48l1916.87 2701.06 -1456.09 958.94c-347.5,270 -1112.2,863.26 -1296.05,1103.4 137.1,508.55 387.19,790.96 823,1033.69 933.55,-386.46 1537.49,-1942.13 2707.55,-2034.34 707.85,1557.11 286.89,2371.16 1002.38,2633.66 209.83,-1048.41 29.59,-885.63 631.65,-1675.44 338.26,-443.61 653.44,-1007.72 1034.42,-1377.3 385.02,556.03 399.16,1539.5 483.73,2278.08l1378.02 -83.55c-132.77,-2438.85 -1194.89,-3071.07 -1407.32,-3624.64 640.16,-552.14 1716.28,-2141.71 2105.78,-3102.24 746.66,518.79 1246.41,434.8 2150.51,135.65 -222.53,-152.39 10.97,-52.1 -323.11,-120.79 -125.12,-25.83 -331.05,-31.75 -476.51,-46.18 -342.74,-34.34 -480.12,-43.29 -723.14,-245.61 -105.06,-87.46 -313.44,-365.25 -336.39,-520.24l39.97 -490.51c-0.86,-6.79 -7.21,-36.66 -19.77,-48.93l-99.71 191.79c-4.62,-20.63 -32.91,48.35 -37.81,67.97l-95.97 -232.91c-646.65,-130.6 -749.98,-122.23 -1430.12,-328.6 -2609.27,-111.84 -3838.65,1307.89 -5113.2,882.31 -1547.73,-516.91 -1232.85,-514.46 -1129.37,-851.86z"/>
   <path class="fil1" d="M4653.16 9421.44l1274.55 230.32c4.04,-342.59 76.05,-189.77 192.37,-344.76 425.42,-441.3 1862.18,-3845.87 2188.9,-4191.64 361.06,-381.99 371.02,-79.37 643.04,-701.35 181.4,-414.74 428.46,-1753.22 480.27,-2262.93l216.17 478.39c487.34,1486.83 254.86,1242.51 1102.54,3293.45 456.16,1103.83 1295.04,2377.95 1611.65,3353.63 680.14,206.37 783.47,198 1430.12,328.6l95.97 232.91c4.9,-19.62 33.19,-88.6 37.81,-67.97l99.71 -191.79c-70.42,-379.68 -367.99,-747.96 -619.81,-1181.03 -233.35,-401.33 -505.52,-762.83 -770.33,-1181.76l-1571.39 -2314.88c285.15,-383.29 464.24,-506.53 841.47,-947.69l2277.07 -3199.21c-309.25,-355.29 -507.82,-645.94 -1073.95,-753.74 -487.48,430.48 -1691.18,2715.64 -2131.18,3274.41 -105.35,133.77 -106.65,130.02 -190.2,208.67l-1082.47 -2507.1c-44.45,-443.33 133.77,-581.58 -17.18,-915.65 -458.61,419.94 -677.97,1128.36 -918.82,1851.06 -175.77,528.04 -461.5,1728.99 -791.83,2005.92 -1548.16,-1309.19 -1030.67,-3857.13 -2909.01,-2544.05 -103.9,1226.49 1651.2,2952.3 2447.5,3656.83 -383.86,727.03 -2039.82,2886.35 -2862.97,4391.36z"/>
  </g>
  <path class="fil2" d="M4653.16 9421.44l1274.55 230.32c4.04,-342.59 76.05,-189.77 192.37,-344.76 425.42,-441.3 1862.18,-3845.87 2188.9,-4191.64 361.06,-381.99 371.02,-79.37 643.04,-701.35 181.4,-414.74 428.46,-1753.22 480.27,-2262.93l216.17 478.39c487.34,1486.83 254.86,1242.51 1102.54,3293.45 456.16,1103.83 1295.04,2377.95 1611.65,3353.63 680.14,206.37 783.47,198 1430.12,328.6l95.97 232.91c4.9,-19.62 33.19,-88.6 37.81,-67.97l99.71 -191.79c-70.42,-379.68 -367.99,-747.96 -619.81,-1181.03 -233.35,-401.33 -505.52,-762.83 -770.33,-1181.76l-1571.39 -2314.88c285.15,-383.29 464.24,-506.53 841.47,-947.69l2277.07 -3199.21c-309.25,-355.29 -507.82,-645.94 -1073.95,-753.74 -487.48,430.48 -1691.18,2715.64 -2131.18,3274.41 -105.35,133.77 -106.65,130.02 -190.2,208.67l-1082.47 -2507.1c-44.45,-443.33 133.77,-581.58 -17.18,-915.65 -458.61,419.94 -677.97,1128.36 -918.82,1851.06 -175.77,528.04 -461.5,1728.99 -791.83,2005.92 -1548.16,-1309.19 -1030.67,-3857.13 -2909.01,-2544.05 -103.9,1226.49 1651.2,2952.3 2447.5,3656.83 -383.86,727.03 -2039.82,2886.35 -2862.97,4391.36z"/>
  <path class="fil3" d="M5927.71 9651.76l-1274.55 -230.32c-835.7,-49.93 -1334.44,-57.29 -1971.42,191.07 -69.71,367.27 -66.96,709.86 43.29,1038.6 2002.02,894 1340.21,-1022.3 3065.73,1452.48l1916.87 2701.06 -1456.09 958.94c-347.5,270 -1112.2,863.26 -1296.05,1103.4 137.1,508.55 387.19,790.96 823,1033.69 933.55,-386.46 1537.49,-1942.13 2707.55,-2034.34 707.85,1557.11 286.89,2371.16 1002.38,2633.66 209.83,-1048.41 29.59,-885.63 631.65,-1675.44 338.26,-443.61 653.44,-1007.72 1034.42,-1377.3 385.02,556.03 399.16,1539.5 483.73,2278.08l1378.02 -83.55c-132.77,-2438.85 -1194.89,-3071.07 -1407.32,-3624.64 640.16,-552.14 1716.28,-2141.71 2105.78,-3102.24 746.66,518.79 1246.41,434.8 2150.51,135.65 -222.53,-152.39 10.97,-52.1 -323.11,-120.79 -125.12,-25.83 -331.05,-31.75 -476.51,-46.18 -342.74,-34.34 -480.12,-43.29 -723.14,-245.61 -105.06,-87.46 -313.44,-365.25 -336.39,-520.24l39.97 -490.51c-0.86,-6.79 -7.21,-36.66 -19.77,-48.93l-99.71 191.79c-4.62,-20.63 -32.91,48.35 -37.81,67.97l-95.97 -232.91c-646.65,-130.6 -749.98,-122.23 -1430.12,-328.6 -2609.27,-111.84 -3838.65,1307.89 -5113.2,882.31 -1547.73,-516.91 -1232.85,-514.46 -1129.37,-851.86 -116.32,154.99 -188.33,2.17 -192.37,344.76zm2965 5342.37c-787.21,-502.35 -454.58,-162.35 -841.18,-1119.27 -376.94,-932.83 -895.59,-1704.02 -1260.84,-2562.81 2047.76,589.36 3504,-1333.28 5638.06,-1198.64 94.52,657.91 -1148.86,3278.29 -1511.51,3966.66 -212.14,402.62 -237.68,266.54 -498.01,597.44 -266.55,338.99 -413.31,883.76 -638.14,1204.99l-259.62 294.25c-142.43,-548.23 -248.79,-940.18 -628.76,-1182.62z"/>
  <path class="fil4 str0" d="M12428.75 10113.41c94.52,657.91 -1148.86,3278.29 -1511.51,3966.66 -212.14,402.62 -237.68,266.54 -498.01,597.44 -266.55,338.99 -413.31,883.76 -638.14,1204.99l-259.62 294.25c-142.43,-548.23 -248.79,-940.18 -628.76,-1182.62 -787.21,-502.35 -454.58,-162.35 -841.18,-1119.27 -376.94,-932.83 -895.59,-1704.02 -1260.84,-2562.81 2047.76,589.36 3504,-1333.28 5638.06,-1198.64zm-6501.04 -461.65l-1274.55 -230.32c-835.7,-49.93 -1334.44,-57.29 -1971.42,191.07 -69.71,367.27 -66.96,709.86 43.29,1038.6 2002.02,894 1340.21,-1022.3 3065.73,1452.48l1916.87 2701.06 -1456.09 958.94c-347.5,270 -1112.2,863.26 -1296.05,1103.4 137.1,508.55 387.19,790.96 823,1033.69 933.55,-386.46 1537.49,-1942.13 2707.55,-2034.34 707.85,1557.11 286.89,2371.16 1002.38,2633.66 209.83,-1048.41 29.59,-885.63 631.65,-1675.44 338.26,-443.61 653.44,-1007.72 1034.42,-1377.3 385.02,556.03 399.16,1539.5 483.73,2278.08l1378.02 -83.55c-132.77,-2438.85 -1194.89,-3071.07 -1407.32,-3624.64 640.16,-552.14 1716.28,-2141.71 2105.78,-3102.24 746.66,518.79 1246.41,434.8 2150.51,135.65 -222.53,-152.39 10.97,-52.1 -323.11,-120.79 -125.12,-25.83 -331.05,-31.75 -476.51,-46.18 -342.74,-34.34 -480.12,-43.29 -723.14,-245.61 -105.06,-87.46 -313.44,-365.25 -336.39,-520.24l39.97 -490.51c-0.86,-6.79 -7.21,-36.66 -19.77,-48.93l-99.71 191.79c-4.62,-20.63 -32.91,48.35 -37.81,67.97l-95.97 -232.91c-646.65,-130.6 -749.98,-122.23 -1430.12,-328.6 -2609.27,-111.84 -3838.65,1307.89 -5113.2,882.31 -1547.73,-516.91 -1232.85,-514.46 -1129.37,-851.86 -116.32,154.99 -188.33,2.17 -192.37,344.76z"/>
 </g>
</svg>
