<?xml version="1.0" encoding="UTF-8"?>
<!DOCTYPE svg PUBLIC "-//W3C//DTD SVG 1.1//EN" "http://www.w3.org/Graphics/SVG/1.1/DTD/svg11.dtd">
<!-- Creator: CorelDRAW 2018 -->
<svg xmlns="http://www.w3.org/2000/svg" xml:space="preserve" width="185mm" height="185mm" version="1.1" style="shape-rendering:geometricPrecision; text-rendering:geometricPrecision; image-rendering:optimizeQuality; fill-rule:evenodd; clip-rule:evenodd"
viewBox="0 0 18500 18500"
 xmlns:xlink="http://www.w3.org/1999/xlink">
 <defs>
  <style type="text/css">
   <![CDATA[
    .fil0 {fill:white}
   ]]>
  </style>
 </defs>
 <g id="Слой_x0020_1">
  <metadata id="CorelCorpID_0Corel-Layer"/>
  <g id="_1637249648">
   <path class="fil0" d="M9115.4 13356.2l28.64 280.06c-71.06,-8.5 -131.52,-29.21 -185.37,-35.86 -182.53,-22.56 -180.13,83.36 -360.36,-88.57l517.09 -155.63zm220.57 -3181.7c150.83,15.71 155.73,329.3 201.92,629.91 36.57,237.95 68.26,480.56 75.87,730.1 9.51,312.29 -76.52,800.34 -177.85,1063.4 -52.82,137.14 -72.13,95.21 -224.43,153.18l124.49 -2576.59zm4410.34 27.16c33.52,1149.67 607.33,1447.06 1495.74,1704.58 -459.89,1546.06 -869.37,2237.25 -2560.06,2775.52 -346.05,110.17 -680.83,197.17 -1019.94,307.59 -265.56,86.47 -278.3,156.07 -461.39,-4.39 -516.25,-452.47 -978.4,-1103.32 -2038.92,-1322.54l10.55 -330.79c753.56,-221.24 1586.89,-337.62 2444.3,-333.59 0.54,-675.96 -156.83,-398.37 545.95,-1161.21l864.63 -890.75c157.72,211.17 158.3,553.71 262.78,765.85 7.07,-243.49 -164.67,-836.76 -107.93,-946.88l564.29 -563.39zm-2446.61 -7780.74c7.18,-9.21 6.07,-3.34 31.47,-54.38 73.85,-148.39 103.34,-311.4 233.99,-428.66 403.58,-362.23 1574.79,142.59 1950.51,133.48l-780.41 -379.9c-271.95,-107.94 -622.33,-216.32 -940.97,-221.12 -789.86,-11.9 -917.01,720.97 -1229.3,1094.16 -668.12,-16.08 -631.16,244.25 -928.08,136.03 -607.6,-221.43 -1021.44,51.93 -1302.72,458.11 -331.35,478.46 -759.47,1476.62 -947.84,2108.28 -124.28,416.75 -191.95,802.2 -297.78,1230.5 -221.73,897.34 -694.72,1854.29 -1391.71,2427.29 -122.39,100.62 -336.6,181.2 -479.83,285.67 532.79,-24.79 1183.14,-791.68 1403.55,-1121.15 967.57,-1446.31 834.61,-2247.69 1541.06,-3475.31 214.65,-373.01 404.1,-882.83 710.59,-1182.92 112.31,-109.98 227.27,-162.2 449.63,-117.86 29.75,365.65 -363.03,624.07 -531.32,899.49 -305.34,499.73 -688.44,1453.3 -808.25,2050.36 -81.14,404.43 -246,676.68 -392.43,1035.05 -317.17,776.19 -481.96,1526.17 -333.2,2465.9 30.58,193.15 80.99,413.3 131.56,594.66 44.29,158.82 147.84,405.2 167.61,531.27 61.18,389.99 -625.1,406.87 -854.67,546.83 283.34,6.06 598.75,-57.86 814.8,-162.72 515.69,-250.27 -52.71,-701.74 163.74,-2446.6l52.07 250.75c22.33,417.68 97.55,829.29 167.14,1238.06 45.45,267.1 -57.97,256.02 -47.2,490.87l120.35 -181.83c140.81,831.59 677.52,1444.34 332.79,1807.09 212.18,-129.94 228.94,-311.66 155.67,-587.47 -132.34,-498.17 -5.54,-388.15 -39.34,-644.62l-40.35 215.66 -80.95 -238.83c-64.3,-348.2 -210.96,-837.26 -34.57,-1145.29 62.83,-109.72 128.03,-246.9 207.02,-324.1 487.2,547.32 -60.72,1015.4 -35.94,1495.55l51.56 -84.34c12.25,-25.12 27.92,-69.67 38.34,-95.31 58.74,-144.55 112.82,-307.92 203.14,-434.06 33.83,-47.24 20.49,-29.89 56.38,-61.96 74.63,406.68 8.23,764.12 35.87,1165.39 58.87,-617.43 170.27,-573.04 153.05,-1356.47l29.08 -168.18c91.97,58.43 65.17,168.58 67.82,303.81l29.8 2336.34c-1289.01,586.45 -648.17,622.63 -1974.41,71.51 -382.47,-158.94 -1763.92,-710.52 -2167.98,-721.88 -13.96,215.36 -96.65,707.83 -53.82,883.67 834.21,89.54 1606.22,252.42 2412.69,443.47 109.44,25.92 227.09,45.85 306.87,113.16 -680.99,111.59 -1770.13,-385.19 -2870.59,263.61 -195.49,115.27 -480.2,317.52 -720.24,390l349.09 792.73c-439.22,-151.06 -871.02,-323.88 -1345.19,-468.31l-1437.59 -384.07c211.97,-170.63 458.56,-334.5 688.35,-504.6 980.68,-725.9 1376.87,-669.7 2379.79,-1043.9 10.15,-3.78 44.22,-19.21 51.57,-22.43 6.34,-2.78 20.8,-1.73 25.34,-13.39 4.63,-11.88 17.33,-8.87 25.53,-14.07 -626.81,-4.94 -1715.22,139.41 -2245.79,334.26l-1748.55 767.71 134.03 399.36 -459.7 -42.13 8.5 898.09c1392.49,-4.55 2509,208.8 3757.46,540.03 428.87,113.79 3019.69,881.04 3222.92,1025.86l-10.84 512.69c801.26,-71.07 1582.23,-335.52 2348.34,-503.79 394.14,-86.58 781.91,-161.53 1194.63,-200.06 384.26,-35.88 947.52,28.79 1228.55,-176.18 -398.78,80.28 -742.88,-24.09 -1137.44,-64.04 -794.95,-80.47 -1596.77,-6.67 -2392.04,36.2 -401.09,21.63 -807.78,-0.63 -1210.75,17.81l-20.87 238.61c-241.7,-89.83 -503.91,-225.18 -752.93,-334.9 -377.85,-166.48 -2130.55,-898 -2231.17,-990.4 943.14,-642.24 841.06,-992.78 2475.31,-1101.24 -98.14,108.1 -251.41,170.68 -379.91,244.14 -108.13,61.8 -287.07,149.02 -398.39,181.3 875.11,-80.83 1402.56,-794.2 2674.18,-468.16l3.3 562.92c509.89,2.12 846.94,45.57 1276.79,211.36 268.05,103.39 739.61,310.16 964.44,506.6 -566.39,133.88 -1065.36,358.36 -1815.54,518.88 -391.41,83.76 -1825.64,210.25 -2007.54,310.86 257.09,-87.36 929.11,-43.37 1257.2,-58.58 424.93,-19.7 809.05,-52.85 1221.29,-120.94 555.11,-91.7 1074.65,-241.76 1606.71,-381.7 291.51,-76.67 258.14,1.27 503.17,70.54l-113.51 -150.77c230.09,-91.94 649.66,-141.6 922.95,-203.37 871.79,-197.03 1680.82,-484.18 2272.63,-1081.31 760.34,-767.15 891.96,-2047.07 1757.96,-2678.79 -69.67,-147.33 -376.78,-655.25 -542.46,-748.05 -170.44,190.21 -301.35,305.17 -480.19,541.44 -129.18,170.67 -233.78,442.38 -376.75,608.38 -382.29,-136.17 -823.74,-476.65 -972.99,-832.15 -199.96,-476.32 45.9,-1029.65 175.32,-1441.59 165.69,87.82 515.93,469.88 951.48,678.86 185.92,89.19 258.12,45.46 300.26,234.29 11.41,-129.09 12.75,-52.18 49.1,-93.19 189.25,50.94 273.48,75.35 486.69,54.99 -178.14,15.69 -370.82,-90.18 -527.43,-137.34 14.77,-492.46 203.99,-1035.19 294.02,-1519.87 94.98,-8.25 566.66,77.27 776.45,83.78 174.92,339.89 15.4,483.66 722.24,654.2l-380.99 15.58c35.31,468.59 167.43,1026.91 250.05,1492.12 94.05,529.57 137.99,1011.61 180.85,1559.23 83.45,1066.41 210.97,2171.13 261.97,3236.93 106.4,-257.9 176.61,-2625.8 207.06,-3118.11 69.36,-1121.37 1.81,-2067.2 -1.32,-3167.79l268.31 -160.89c54.13,-38.71 34.52,-14.8 71.63,-67.27 68.64,-395.1 173.63,-1340.09 60.58,-1719.95 -68.44,-229.92 -278.85,-361.62 -440.9,-488.03 -498.75,-389.06 -1117.13,-844.68 -1687.65,-1136.89 -175.56,-89.92 -173.58,-27 -272.39,-192.01 -59.5,-99.36 -110.94,-185.37 -175.42,-289.39 -876.69,-1414.52 -1933.61,-4032.13 -3930.32,-3311.84 -492.02,177.49 -535.25,385.15 -643.73,270.68zm-3049.4 10027.02c-46.61,21 133.14,-60 0,0zm-422.65 -1609.07c36.18,-4.64 -15.75,-127.15 -18.35,-1.89 -2.67,128.02 17.98,1.94 18.35,1.89zm-2751.65 -1596.41l140.22 -37.53 -140.22 37.53zm8439.67 -7171.1c8.97,6.47 14.99,17.92 62.42,37.64 56.61,23.52 24.64,7.36 89.73,6.77l-152.15 -44.41zm-6262.22 14091.04c-0.85,-1.56 -28.71,-120.83 -37.42,-129.94l37.42 129.94zm4954.3 -28.19c-38.21,33.52 24.4,-21.4 0,0zm-2871.78 -6042.28c-46.8,-85.65 -27.25,-262.48 -18.03,-378.76 20.14,101 41.12,123.95 65.66,222.63 33.18,133.44 42.34,122.9 -47.63,156.13zm381.94 527.98c-80.67,-75.95 -68.82,-341.39 -65.8,-469.55 48.71,60.6 24.99,2.59 65.66,120.36 4.37,12.69 10.31,73.41 12.29,84.28 0.81,-117.51 -11.69,-141.5 24.97,-221.73 717,-32.06 1545.81,-211.12 2226.55,-344.69 -36.33,236.13 -207.14,605.31 -275.03,814.28 62.84,-123.09 118.42,-204.95 185.9,-332.08 287.24,-541.26 164.11,-493.76 459.93,-602.58 109.98,-40.46 249.37,-124.58 358.72,-125.21 21.85,370.43 101.74,599.11 162.19,916.15 28.7,150.51 44.17,74.2 -148.72,345.53 -245.96,346.02 -854.4,1073.43 -1112.21,1446.56l-50.87 -150.67c-377.22,47.41 -759,126.72 -1107.38,219.02 -351.4,93.12 -667.74,234.79 -984.34,317.17 75.33,-332.6 216.23,-510.17 248.3,-917.31 27.8,-352.98 -41.72,-793.95 -0.16,-1099.53zm-1564.57 -1539.81l206.98 398.69 -219.48 426.06 12.5 -824.75zm850.47 1055.08c-94.99,-49.26 -98.03,-236.54 -124.47,-335.91 -125.64,-472.37 -233.71,-432.03 -95.22,-674.36 53.2,-93.1 98.44,-196.33 150.71,-270.6 52.26,153.43 59.67,454.92 76.43,647.5 14.77,169.75 93.89,516.47 -7.45,633.37zm3955.48 -765.9c329.88,-154.78 801.99,-539.91 939.92,-588.56 -1.37,180.34 0.07,426.54 -80.22,560.96 -96.73,161.91 -598.86,764.86 -765.4,1029.8 -130.53,-236.6 -102.81,-704.98 -94.3,-1002.2zm1631.43 -60.26c96.63,-243.62 567.15,-591.23 712.38,-879.73 139.77,25.27 283,111.56 372.39,178.24l-5.1 1607.26c-360.67,-109.89 -886.03,-663.26 -1079.67,-905.77zm-1892.37 -834.71l-19.34 519.61c-75.01,67.92 -167.7,110.66 -251.29,163.07l270.63 -682.68zm3441.34 -960.03c399.24,181.69 635.09,681.32 682.9,1302.04 -279.94,-26.62 -510.07,-156.67 -743.73,-239.56l60.83 -1062.48zm-617.89 698.58c52.75,-61.86 49.36,-68.8 110.55,-120.55l11.12 233.54 -121.67 -112.99zm-6934.4 681.78c-109.41,-655.04 -155.22,-983.05 -93.47,-1686.79 29.98,29.85 21.9,19.34 50.58,64.93l313.05 753.96c25.22,154.15 -199.74,757.63 -270.16,867.9zm772.82 -675.89c-52.64,-140.98 -85.48,-211.49 -60.15,-392.81 40.25,60.75 8.5,-69.02 51.79,109.87l8.36 282.94zm3967.3 -1145.63c58.61,522.38 125.88,774.5 454.3,973.09 -46.38,69.01 -278.68,280.46 -370.23,356.2 -120.56,99.73 -255.62,244.61 -396.77,316.75l312.7 -1646.04zm347.9 719.89c-98.36,-144.36 -128.79,-290.79 -125.5,-475.34 127.13,119.51 206.24,366.85 235.48,578.23 -97.05,-55.6 -41.13,-1.85 -109.98,-102.89zm-3939.87 2220.04c-18.74,-497.8 -124.24,-957.95 -146.9,-1434.6 -12.67,-266.49 22.25,-528.64 3.58,-796.8 -16.84,-241.84 -84.03,-436.55 -112.66,-642.57 -40.47,-291.29 276.34,-2164.64 484.2,-2581.97 640.77,247.76 439.65,311.96 568,505.03 245.6,-6.93 270.76,-56.93 465.03,62.36l55.64 -46.16c193.86,-131.73 98.81,61.65 325.84,-93.94l37.32 -28.53c431.57,96.84 756.9,831.04 914.01,1327.08 203.48,642.42 189.81,1283.34 65.02,1968.46 -57.45,315.4 -124.82,612.39 -209.35,916.15 -71.87,258.2 -220.27,254.84 -695.22,402.94 -481.61,150.17 -1240.89,379.98 -1754.51,442.55zm6598.73 -3486.47c68.33,39.71 107.61,140.46 137.12,224.45l-365.17 -132.56c40.14,-119.54 93.79,-169.95 228.05,-91.89zm-1618.09 550.02c-91.29,-277.98 -168.99,-855.06 -32.54,-1125.37l417.5 645.75c-99.59,131.43 -255.5,395.09 -384.96,479.62zm1864.39 -546.37c-171.7,-29.81 -242.56,-236.13 -356.88,-497.78 112.69,92.13 229.73,148.59 353.57,254.21l1037.85 856.12c353.07,303.15 500.46,412.59 474.22,765.58 -22.67,304.99 -105.15,775.95 -194.27,1063.36l-390.96 -128.46c-56.3,-625.9 26.12,-890.2 -290.84,-1399.63 -214.09,-344.08 -443.39,-451.86 -614.19,-681.9 -180.62,-243.28 -45.06,-219.04 -18.5,-231.5zm-309.06 -106.29c-279.72,-91.95 -439.17,-216.3 -512.84,-491.61 240.89,-9.18 223.2,40.75 322.12,185.57 70.34,102.95 140.02,190.41 190.72,306.04zm-553.64 -566.77l-198.11 -503.84c123.16,118.15 266.96,343.98 362.66,500.74l-164.55 3.1zm-1831.22 -778.97c87,65.22 61.9,13.96 83.57,137.69l-101.48 -4.87c-7.8,-52.44 -10.06,-31.67 -5.27,-85.15l23.18 -47.67zm217.49 -1569.12c107.96,114.85 172.03,176.74 250.62,317.04 -215.83,-58.2 -172.93,-99.5 -250.62,-317.04zm-739.88 -191.26c-80.8,70.33 -398.53,126.59 -480.69,87.59 -41.85,-19.87 -101.79,-89.2 -165.89,-136.62 -42.5,-31.45 -98.43,-64.49 -147.82,-93.13 397.08,-169.7 567.46,-32.75 794.4,142.16zm-1587.63 -268.79c-35.67,93.49 2.38,60.33 -93.37,109.08 -0.82,0.41 -75.79,17.67 -87.23,21.24 64.48,-74.09 74.36,-76.44 180.6,-130.32z"/>
   <path class="fil0" d="M1748.04 6532.57c8.84,-150.88 -3.23,-286.14 199.99,-204.94 88.65,35.42 126.11,125.7 89.16,248.66l-289.15 -43.72zm878.73 -1178c-19.73,-777.96 93.86,-1619.29 139.09,-2401.15l-910.45 1.55 302.11 2498.22 -1409.72 252.69c5.83,-888.02 104.6,-1743.01 152.18,-2613.85l-899.98 -15.44c8.74,1296.68 16.96,3465.92 434.26,4571 175.67,465.19 343.59,549.23 730.27,531.79 626.14,-28.24 3040.86,-178.11 3365.24,-328.58 -459.09,-5.58 -3367.48,29.12 -3546.88,-78.1 -51.64,-36.84 -61.6,-36.2 -106.01,-203.79 -21.48,-81.04 -35.99,-157.3 -51.24,-245.27 -28.35,-163.54 -47.28,-340.02 -57.72,-516.42l230.66 15.71c306.22,-364.61 664.3,-44.8 1176.07,-191.29 38.05,-253 -167.82,-415.25 -426.39,-348.02l-7.19 231.67c-651.67,-100.7 -610.52,-197.15 -985.57,174.71l-14.05 -833.37 1497.21 83.33 259.75 1183.86c-242.55,-104.41 -522.67,-536.85 -1155.26,39.09l-195.75 202.85c-55.27,68.09 -22.36,15.25 -55.78,83.67 284.43,-71.96 642.3,-547.09 1015.36,-213.88l126.03 107.29 252.28 -198.15 148.43 429.3 -15.36 -1633.24c592.97,2.76 1123.26,12.7 1714.7,-28.3l124.83 915.38c42.69,-774.06 -2.73,-1467.87 81.37,-2255.52 36.57,-342.57 79.41,-691.9 106.64,-1042.22 35.32,-454.42 113.06,-748.86 -194.55,-962.66 -711.73,-494.66 -3087.24,-493.86 -4130.48,-500.01l0.72 899.45c1075.72,-48.44 2905.28,-321.76 3883.23,-20.77 64.73,298.15 32.26,1096.86 37.18,1446.85 6.63,472.46 56.9,936.08 66.47,1387.83 -79.66,-140.38 -328.25,-564.51 -420.92,-673.99l-1260.78 247.78zm-1657.94 2044.8c51.07,53.32 -86.79,86.15 132.77,75.99 -72.67,-42.49 -68.07,-30.24 -132.77,-75.99z"/>
   <path class="fil0" d="M7204.24 15055.5c14.72,-68.37 283.13,-65.34 377.04,-68.76l-85.2 -882.65c-161.95,15.3 -576.59,240.1 -713.05,324.46 -1102.25,681.41 -352.65,1101.37 1132.04,852.87 -205.83,-94.57 -538.91,-105.31 -710.83,-225.92z"/>
   <path class="fil0" d="M1748.75 5425.89c-74.67,-376.68 -211.9,-557.98 -236.46,-967.18 -27.35,-455.72 -267.1,-135.4 -233.75,-659.29 6.6,-103.65 35.77,-198.98 -14.23,-285.23 -345.48,187.73 -184.95,830.41 -220.84,919.02 -24.74,61.1 -774.6,1063.75 705.28,992.68z"/>
   <path class="fil0" d="M3696.13 6662.23c-72.34,-14.47 -57.08,-51.96 -159.65,-89.35 -156.23,-56.95 -336.52,-8.33 -472.45,50.65 -152.86,66.32 -283.43,126.93 -353.8,250.39 190.87,109.91 572.35,445.11 679.95,505.9l60.7 -180.76c0.51,-8.05 2.19,-12.18 5.74,-17 140.8,43.31 204.89,76.57 340.41,11.31 276.82,-136.22 -110.84,-331.05 519.9,-344.62 -213.04,-281.94 -566,-175.56 -620.8,-186.52z"/>
   <path class="fil0" d="M3247.87 4126.07l343.34 -146.86c106.19,207.87 161.87,320.49 84.22,598.41l-633.72 205.25 196.67 -387.81 -127.16 -90.39c-66.62,-39.74 -87.84,-51.23 -152.86,-73.08 -127.97,156.59 -279.15,605.55 -246.26,841.93 247.24,51.43 708.67,-212.69 944.44,-314.07 436.89,-187.84 24.48,-829.83 -48.38,-847.58 -136.86,20.79 -283.95,145.66 -360.29,214.2z"/>
   <path class="fil0" d="M9717.91 10619.91l10.1 -33.3 19.96 149.59 7.06 -602.93c-36.66,80.23 -24.16,104.22 -24.97,221.73 -1.98,-10.87 -7.92,-71.59 -12.29,-84.28 -40.67,-117.77 -16.95,-59.76 -65.66,-120.36 -3.02,128.16 -14.87,393.6 65.8,469.55z"/>
   <path class="fil0" d="M14354.77 3826.12c-78.59,-140.3 -142.66,-202.19 -250.62,-317.04 77.69,217.54 34.79,258.84 250.62,317.04z"/>
   <path class="fil0" d="M9335.97 10091.93c89.97,-33.23 80.81,-22.69 47.63,-156.13 -24.54,-98.68 -45.52,-121.63 -65.66,-222.63 -9.22,116.28 -28.77,293.11 18.03,378.76z"/>
   <path class="fil0" d="M9360.22 8218.75l-8.36 -282.94c-43.29,-178.89 -11.54,-49.12 -51.79,-109.87 -25.33,181.32 7.51,251.83 60.15,392.81z"/>
   <path class="fil0" d="M11596.04 3179.35c11.44,-3.57 86.41,-20.83 87.23,-21.24 95.75,-48.75 57.7,-15.59 93.37,-109.08 -106.24,53.88 -116.12,56.23 -180.6,130.32z"/>
  </g>
 </g>
</svg>
