<?xml version="1.0" encoding="UTF-8"?>
<!DOCTYPE svg PUBLIC "-//W3C//DTD SVG 1.1//EN" "http://www.w3.org/Graphics/SVG/1.1/DTD/svg11.dtd">
<!-- Creator: CorelDRAW 2018 -->
<svg xmlns="http://www.w3.org/2000/svg" xml:space="preserve" width="250mm" height="250mm" version="1.1" style="shape-rendering:geometricPrecision; text-rendering:geometricPrecision; image-rendering:optimizeQuality; fill-rule:evenodd; clip-rule:evenodd"
viewBox="0 0 25000 25000"
 xmlns:xlink="http://www.w3.org/1999/xlink">
 <defs>
  <style type="text/css">
   <![CDATA[
    .str0 {stroke:#FEFEFE;stroke-width:200;stroke-miterlimit:22.9256}
    .fil0 {fill:white}
   ]]>
  </style>
 </defs>
 <g id="Слой_x0020_1">
  <metadata id="CorelCorpID_0Corel-Layer"/>
  <g id="_843322560">
   <polygon class="fil0 str0" points="12506.56,12500.58 20498.85,13188.06 21908.05,13323.11 20496.81,13211.39 "/>
   <polygon class="fil0 str0" points="12506.48,12501.15 20409.29,13882.73 21801.5,14140.1 20405.22,13905.8 "/>
   <polygon class="fil0 str0" points="12506.36,12501.7 20259.88,14567.13 21624.57,14944.92 20253.8,14589.75 "/>
   <polygon class="fil0 str0" points="12506.19,12502.25 20050.32,15235.62 21376.93,15730.93 20042.31,15257.63 "/>
   <polygon class="fil0 str0" points="12505.97,12502.78 19782.53,15882.98 21060.81,16491.97 19772.63,15904.22 "/>
   <polygon class="fil0 str0" points="12505.7,12503.29 19459.38,16504.47 20679.61,17222.49 19447.67,16524.75 "/>
   <polygon class="fil0 str0" points="12505.4,12503.78 19083.45,17095.48 20236.39,17917.06 19070.02,17114.67 "/>
   <polygon class="fil0 str0" points="12505.05,12504.23 18657.74,17651.67 19734.66,18570.6 18642.68,17669.61 "/>
   <polygon class="fil0 str0" points="12504.66,12504.66 18185.53,18168.97 19178.3,19178.3 18168.97,18185.53 "/>
   <polygon class="fil0 str0" points="12504.23,12505.05 17669.61,18642.68 18570.6,19734.66 17651.67,18657.74 "/>
   <polygon class="fil0 str0" points="12503.78,12505.4 17114.66,19070.02 17917.06,20236.39 17095.48,19083.45 "/>
   <polygon class="fil0 str0" points="12503.29,12505.71 16524.75,19447.67 17222.49,20679.61 16504.47,19459.38 "/>
   <polygon class="fil0 str0" points="12502.78,12505.97 15904.22,19772.63 16491.97,21060.81 15882.98,19782.54 "/>
   <polygon class="fil0 str0" points="12502.25,12506.19 15257.63,20042.31 15730.93,21376.93 15235.62,20050.33 "/>
   <polygon class="fil0 str0" points="12501.7,12506.36 14589.75,20253.81 14944.92,21624.57 14567.13,20259.88 "/>
   <polygon class="fil0 str0" points="12501.15,12506.48 13905.8,20405.22 14140.1,21801.5 13882.73,20409.29 "/>
   <polygon class="fil0 str0" points="12500.58,12506.56 13211.39,20496.81 13323.11,21908.05 13188.06,20498.85 "/>
   <polygon class="fil0 str0" points="12500,12506.59 12511.71,20528.86 12500,21944.55 12488.29,20528.86 "/>
   <polygon class="fil0 str0" points="12499.42,12506.56 11811.94,20498.85 11676.89,21908.05 11788.61,20496.81 "/>
   <polygon class="fil0 str0" points="12498.85,12506.48 11117.27,20409.29 10859.9,21801.5 11094.2,20405.22 "/>
   <polygon class="fil0 str0" points="12498.3,12506.36 10432.87,20259.88 10055.08,21624.57 10410.25,20253.81 "/>
   <polygon class="fil0 str0" points="12497.75,12506.19 9764.38,20050.33 9269.07,21376.93 9742.37,20042.31 "/>
   <polygon class="fil0 str0" points="12497.22,12505.97 9117.02,19782.54 8508.03,21060.81 9095.78,19772.63 "/>
   <polygon class="fil0 str0" points="12496.71,12505.71 8495.53,19459.38 7777.51,20679.61 8475.25,19447.67 "/>
   <polygon class="fil0 str0" points="12496.22,12505.4 7904.52,19083.45 7082.94,20236.39 7885.33,19070.02 "/>
   <polygon class="fil0 str0" points="12495.77,12505.05 7348.33,18657.74 6429.4,19734.66 7330.39,18642.68 "/>
   <polygon class="fil0 str0" points="12495.34,12504.66 6831.03,18185.53 5821.7,19178.3 6814.47,18168.97 "/>
   <polygon class="fil0 str0" points="12494.95,12504.23 6357.32,17669.61 5265.34,18570.6 6342.26,17651.67 "/>
   <polygon class="fil0 str0" points="12494.6,12503.78 5929.98,17114.67 4763.61,17917.06 5916.55,17095.48 "/>
   <polygon class="fil0 str0" points="12494.29,12503.29 5552.33,16524.75 4320.39,17222.49 5540.62,16504.47 "/>
   <polygon class="fil0 str0" points="12494.03,12502.78 5227.37,15904.22 3939.19,16491.97 5217.46,15882.98 "/>
   <polygon class="fil0 str0" points="12493.81,12502.25 4957.69,15257.63 3623.07,15730.93 4949.67,15235.62 "/>
   <polygon class="fil0 str0" points="12493.64,12501.7 4746.19,14589.75 3375.43,14944.92 4740.12,14567.13 "/>
   <polygon class="fil0 str0" points="12493.52,12501.15 4594.78,13905.8 3198.5,14140.1 4590.71,13882.73 "/>
   <polygon class="fil0 str0" points="12493.44,12500.58 4503.19,13211.39 3091.95,13323.11 4501.15,13188.06 "/>
   <polygon class="fil0 str0" points="12493.41,12500 4471.14,12511.71 3055.45,12500 4471.14,12488.29 "/>
   <polygon class="fil0 str0" points="12493.44,12499.42 4501.15,11811.94 3091.95,11676.89 4503.19,11788.61 "/>
   <polygon class="fil0 str0" points="12493.52,12498.85 4590.71,11117.27 3198.5,10859.9 4594.78,11094.2 "/>
   <polygon class="fil0 str0" points="12493.64,12498.3 4740.12,10432.87 3375.43,10055.08 4746.19,10410.25 "/>
   <polygon class="fil0 str0" points="12493.81,12497.75 4949.67,9764.38 3623.07,9269.07 4957.69,9742.37 "/>
   <polygon class="fil0 str0" points="12494.03,12497.22 5217.46,9117.02 3939.19,8508.03 5227.37,9095.78 "/>
   <polygon class="fil0 str0" points="12494.29,12496.71 5540.62,8495.53 4320.39,7777.51 5552.33,8475.25 "/>
   <polygon class="fil0 str0" points="12494.6,12496.22 5916.55,7904.52 4763.61,7082.94 5929.98,7885.34 "/>
   <polygon class="fil0 str0" points="12494.95,12495.77 6342.26,7348.33 5265.34,6429.4 6357.32,7330.39 "/>
   <polygon class="fil0 str0" points="12495.34,12495.34 6814.45,6831.01 5821.69,5821.69 6831.01,6814.45 "/>
   <polygon class="fil0 str0" points="12495.77,12494.95 7330.39,6357.32 6429.4,5265.34 7348.33,6342.26 "/>
   <polygon class="fil0 str0" points="12496.22,12494.6 7885.33,5929.98 7082.94,4763.61 7904.52,5916.55 "/>
   <polygon class="fil0 str0" points="12496.71,12494.3 8475.25,5552.33 7777.51,4320.39 8495.53,5540.62 "/>
   <polygon class="fil0 str0" points="12497.22,12494.03 9095.78,5227.37 8508.03,3939.19 9117.02,5217.47 "/>
   <polygon class="fil0 str0" points="12497.75,12493.81 9742.37,4957.69 9269.07,3623.07 9764.38,4949.68 "/>
   <polygon class="fil0 str0" points="12498.3,12493.64 10410.25,4746.2 10055.08,3375.43 10432.87,4740.12 "/>
   <polygon class="fil0 str0" points="12498.85,12493.52 11094.2,4594.78 10859.9,3198.5 11117.27,4590.71 "/>
   <polygon class="fil0 str0" points="12499.42,12493.44 11788.61,4503.19 11676.89,3091.95 11811.94,4501.15 "/>
   <polygon class="fil0 str0" points="12500,12493.41 12488.29,4471.15 12500,3055.45 12511.71,4471.15 "/>
   <polygon class="fil0 str0" points="12500.58,12493.44 13188.06,4501.15 13323.11,3091.95 13211.39,4503.19 "/>
   <polygon class="fil0 str0" points="12501.15,12493.52 13882.73,4590.71 14140.1,3198.5 13905.8,4594.78 "/>
   <polygon class="fil0 str0" points="12501.7,12493.64 14567.13,4740.12 14944.92,3375.43 14589.75,4746.2 "/>
   <polygon class="fil0 str0" points="12502.25,12493.81 15235.62,4949.68 15730.93,3623.07 15257.63,4957.69 "/>
   <polygon class="fil0 str0" points="12502.78,12494.03 15882.98,5217.47 16491.97,3939.19 15904.22,5227.37 "/>
   <polygon class="fil0 str0" points="12503.29,12494.3 16504.47,5540.62 17222.49,4320.39 16524.75,5552.33 "/>
   <polygon class="fil0 str0" points="12503.78,12494.6 17095.48,5916.55 17917.06,4763.61 17114.66,5929.98 "/>
   <polygon class="fil0 str0" points="12504.23,12494.95 17651.67,6342.26 18570.6,5265.34 17669.61,6357.32 "/>
   <polygon class="fil0 str0" points="12504.66,12495.34 18168.97,6814.47 19178.3,5821.7 18185.53,6831.03 "/>
   <polygon class="fil0 str0" points="12505.05,12495.77 18642.68,7330.39 19734.66,6429.4 18657.74,7348.33 "/>
   <polygon class="fil0 str0" points="12505.4,12496.22 19070.02,7885.34 20236.39,7082.94 19083.45,7904.52 "/>
   <polygon class="fil0 str0" points="12505.7,12496.71 19447.67,8475.25 20679.61,7777.51 19459.38,8495.53 "/>
   <polygon class="fil0 str0" points="12505.97,12497.22 19772.63,9095.78 21060.81,8508.03 19782.53,9117.02 "/>
   <polygon class="fil0 str0" points="12506.19,12497.75 20042.31,9742.37 21376.93,9269.07 20050.32,9764.38 "/>
   <polygon class="fil0 str0" points="12506.36,12498.3 20253.8,10410.25 21624.57,10055.08 20259.88,10432.87 "/>
   <polygon class="fil0 str0" points="12506.48,12498.85 20405.22,11094.2 21801.5,10859.9 20409.29,11117.27 "/>
   <polygon class="fil0 str0" points="12506.56,12499.42 20496.81,11788.61 21908.05,11676.89 20498.85,11811.94 "/>
   <polygon class="fil0 str0" points="12506.59,12500 20528.85,12488.29 21944.55,12500 20528.85,12511.71 "/>
  </g>
 </g>
</svg>
